<?xml version="1.0" encoding="UTF-8" standalone="no"?>
<!-- Created with Inkscape (http://www.inkscape.org/) -->

<svg
   xmlns:dc="http://purl.org/dc/elements/1.1/"
   xmlns:cc="http://creativecommons.org/ns#"
   xmlns:rdf="http://www.w3.org/1999/02/22-rdf-syntax-ns#"
   xmlns:svg="http://www.w3.org/2000/svg"
   xmlns="http://www.w3.org/2000/svg"
   xmlns:sodipodi="http://sodipodi.sourceforge.net/DTD/sodipodi-0.dtd"
   xmlns:inkscape="http://www.inkscape.org/namespaces/inkscape"
   width="322.94397"
   height="293.94427"
   id="svg4559"
   version="1.1"
   inkscape:version="0.91pre2 r13516"
   viewBox="0 0 322.94397 293.94428"
   sodipodi:docname="connectedsequence.svg">
  <defs
     id="defs4561" />
  <sodipodi:namedview
     id="base"
     pagecolor="#ffffff"
     bordercolor="#666666"
     borderopacity="1.0"
     inkscape:pageopacity="0.0"
     inkscape:pageshadow="2"
     inkscape:zoom="0.98994949"
     inkscape:cx="131.84531"
     inkscape:cy="125.67157"
     inkscape:document-units="px"
     inkscape:current-layer="layer1"
     showgrid="false"
     fit-margin-top="0"
     fit-margin-left="0"
     fit-margin-right="0"
     fit-margin-bottom="0"
     inkscape:window-width="1600"
     inkscape:window-height="837"
     inkscape:window-x="-8"
     inkscape:window-y="-8"
     inkscape:window-maximized="1" />
  <metadata
     id="metadata4564">
    <rdf:RDF>
      <cc:Work
         rdf:about="">
        <dc:format>image/svg+xml</dc:format>
        <dc:type
           rdf:resource="http://purl.org/dc/dcmitype/StillImage" />
        <dc:title></dc:title>
      </cc:Work>
    </rdf:RDF>
  </metadata>
  <g
     inkscape:label="Layer 1"
     inkscape:groupmode="layer"
     id="layer1"
     transform="translate(-312.94201,-255.86197)">
    <g
       id="g4838">
      <path
         style="fill:#ececec;fill-opacity:1;stroke:#000000;stroke-width:1;stroke-miterlimit:4;stroke-dasharray:none;stroke-dashoffset:0;stroke-opacity:1"
         d="m 473.13022,309.90005 a 53.538086,53.538086 0 0 1 -53.53809,53.53809 53.538086,53.538086 0 0 1 -53.53808,-53.53809 53.538086,53.538086 0 0 1 53.53808,-53.53808 53.538086,53.538086 0 0 1 53.53809,53.53808 z"
         id="path4567-6-6-1-7" />
      <g
         style="font-style:normal;font-weight:normal;font-size:27.5px;line-height:125%;font-family:sans-serif;letter-spacing:0px;word-spacing:0px;fill:#000000;fill-opacity:1;stroke:none;stroke-width:1px;stroke-linecap:butt;stroke-linejoin:miter;stroke-opacity:1"
         id="text4757">
        <path
           d="m 405.09933,317.20193 -0.12084,-0.10742 0,-0.69824 0.12084,-0.10742 q 0.98023,-0.0134 1.26221,-0.094 0.28198,-0.094 0.49683,-0.34912 0.22827,-0.26855 0.89966,-1.71875 l 1.40991,-3.06152 3.65234,-8.27148 q 1.03394,-2.43042 2.05445,-4.86084 l 0.8728,0 5.73364,13.48144 0.76538,1.79932 q 0.33569,0.76538 0.76538,1.66504 0.44312,0.89965 0.60425,1.06079 0.17456,0.16113 0.41626,0.25512 0.25513,0.0806 1.1145,0.094 l 0.10742,0.10742 0,0.69824 -0.10742,0.10742 q -1.42334,-0.12084 -2.5647,-0.12084 -2.229,0.0671 -4.458,0.12084 l -0.10742,-0.10742 0,-0.69824 0.10742,-0.10742 q 1.5039,-0.0269 1.87988,-0.12085 0.37598,-0.10742 0.37598,-0.46997 0,-0.29541 -0.18799,-0.77881 l -1.65161,-4.09546 -7.77466,0 -1.46362,3.4375 q -0.38941,0.92651 -0.38941,1.3562 0,0.3357 0.36255,0.49683 0.36255,0.16113 1.82617,0.17456 l 0.12085,0.10742 0,0.69824 -0.10742,0.10742 q -1.73218,-0.10742 -3.03467,-0.10742 -1.47705,0 -2.98096,0.10742 z m 6.12305,-7.53295 6.79444,0 -3.37037,-8.09693 -3.42407,8.09693 z m 4.06861,-12.54151 0,0 z m -0.30884,20.77271 0,0 z"
           style="font-style:normal;font-variant:normal;font-weight:normal;font-stretch:normal;font-size:27.5px;font-family:'Palatino Linotype';-inkscape-font-specification:'Palatino Linotype'"
           id="path4876" />
        <path
           d="m 427.37961,311.55936 -0.17578,-0.0586 -0.0977,-0.80078 0.0977,-0.0976 q 0.97656,-0.28321 2.4707,-0.90821 1.49414,-0.625 2.13867,-0.95703 l 0.25391,0.0977 q -0.15625,4.27734 -0.15625,5.13672 l 0,3.62304 q 0,1.33789 0.0293,2.51953 0.0293,1.17188 0.0879,1.38672 0.0586,0.20508 0.19531,0.32227 0.14648,0.11719 0.40039,0.15625 0.25391,0.0293 1.51367,0.0976 l 0.0684,0.0781 0,0.43945 -0.0684,0.0781 q -2.13867,-0.0781 -3.01758,-0.0781 -0.66406,0 -3.25195,0.0781 l -0.0684,-0.0781 0,-0.43945 0.0781,-0.0781 q 1.46484,-0.10742 1.66992,-0.15625 0.21484,-0.0488 0.32226,-0.16601 0.11719,-0.12695 0.18555,-0.46875 0.0684,-0.3418 0.10742,-2.02149 0.0488,-1.67968 0.0488,-1.71875 l 0,-3.84765 q 0,-2.83203 -0.0195,-3.07617 -0.01,-0.24414 -0.16602,-0.24414 -0.0391,0 -0.10742,0.0195 -0.0684,0.0195 -0.42969,0.17578 l -0.96679,0.42969 q -0.60547,0.26367 -1.14258,0.55664 z"
           style="font-style:normal;font-variant:normal;font-weight:normal;font-stretch:normal;font-size:20px;font-family:'Palatino Linotype';-inkscape-font-specification:'Palatino Linotype';baseline-shift:sub"
           id="path4878" />
      </g>
    </g>
    <g
       id="g4844"
       transform="translate(-0.69981693,0)">
      <path
         style="fill:#ececec;fill-opacity:1;stroke:#000000;stroke-width:1;stroke-miterlimit:4;stroke-dasharray:none;stroke-dashoffset:0;stroke-opacity:1"
         d="m 580.96399,309.90005 a 53.538086,53.538086 0 0 1 -53.53809,53.53809 53.538086,53.538086 0 0 1 -53.53808,-53.53809 53.538086,53.538086 0 0 1 53.53808,-53.53808 53.538086,53.538086 0 0 1 53.53809,53.53808 z"
         id="path4567-6-2-5-1" />
      <g
         style="font-style:normal;font-weight:normal;font-size:27.5px;line-height:125%;font-family:sans-serif;letter-spacing:0px;word-spacing:0px;fill:#000000;fill-opacity:1;stroke:none;stroke-width:1px;stroke-linecap:butt;stroke-linejoin:miter;stroke-opacity:1"
         id="text4757-2">
        <path
           d="m 512.43018,317.19217 -0.12085,-0.10742 0,-0.69824 0.12085,-0.10743 q 0.98022,-0.0134 1.2622,-0.094 0.28199,-0.094 0.49683,-0.34912 0.22827,-0.26856 0.89966,-1.71875 l 1.40991,-3.06153 3.65234,-8.27148 q 1.03394,-2.43042 2.05445,-4.86084 l 0.8728,0 5.73364,13.48145 0.76538,1.79931 q 0.3357,0.76538 0.76538,1.66504 0.44312,0.89966 0.60425,1.06079 0.17456,0.16113 0.41626,0.25513 0.25513,0.0806 1.1145,0.094 l 0.10743,0.10743 0,0.69824 -0.10743,0.10742 q -1.42334,-0.12085 -2.56469,-0.12085 -2.22901,0.0671 -4.45801,0.12085 l -0.10742,-0.10742 0,-0.69824 0.10742,-0.10743 q 1.5039,-0.0269 1.87988,-0.12085 0.37598,-0.10742 0.37598,-0.46997 0,-0.29541 -0.18799,-0.77881 l -1.65161,-4.09545 -7.77466,0 -1.46362,3.4375 q -0.38941,0.92651 -0.38941,1.3562 0,0.33569 0.36255,0.49682 0.36255,0.16114 1.82617,0.17456 l 0.12085,0.10743 0,0.69824 -0.10742,0.10742 q -1.73218,-0.10742 -3.03467,-0.10742 -1.47705,0 -2.98095,0.10742 z m 6.12304,-7.53296 6.79444,0 -3.37037,-8.09692 -3.42407,8.09692 z m 4.06861,-12.5415 0,0 z m -0.30884,20.7727 0,0 z"
           style="font-style:normal;font-variant:normal;font-weight:normal;font-stretch:normal;font-size:27.5px;font-family:'Palatino Linotype';-inkscape-font-specification:'Palatino Linotype'"
           id="path4882" />
        <path
           d="m 533.66553,322.6824 -0.11719,-0.0976 0,-0.44922 3.27148,-3.4668 q 2.02149,-2.13867 2.61719,-3.31055 0.5957,-1.17187 0.5957,-2.1875 0,-1.1914 -0.72265,-1.98242 -0.72266,-0.79101 -1.95313,-0.79101 -0.79101,0 -1.37695,0.24414 -0.58594,0.24414 -0.79102,0.54687 -0.19531,0.30274 -0.57617,1.69922 l -0.0879,0.0781 -0.40039,0 -0.0976,-0.0879 q 0.2246,-1.31836 0.3125,-2.60743 0.91796,-0.89843 1.70898,-1.14257 0.80078,-0.25391 1.66992,-0.25391 1.03516,0 1.98242,0.39062 0.94727,0.39063 1.52344,1.26954 0.57617,0.86914 0.57617,2.02148 0,0.85938 -0.34179,1.72852 -0.33204,0.85937 -0.98633,1.66992 -0.64453,0.80078 -1.76758,1.92383 l -3.04688,3.10546 3.85743,0 q 1.77734,0 2.95898,-0.12695 l 0.0684,0.0781 q -0.0586,0.33203 -0.0586,0.86914 0,0.48828 0.0586,0.77148 l -0.0684,0.10742 q -0.70312,-0.0391 -2.1582,-0.0684 -1.45508,-0.0293 -1.92383,-0.0293 -0.94727,0 -2.54883,0.0195 -1.60156,0.0293 -2.17773,0.0781 z"
           style="font-size:20px;baseline-shift:sub"
           id="path4884" />
      </g>
    </g>
    <g
       id="g4850"
       transform="translate(0,-0.70046928)">
      <path
         style="fill:#ececec;fill-opacity:1;stroke:#000000;stroke-width:1;stroke-miterlimit:4;stroke-dasharray:none;stroke-dashoffset:0;stroke-opacity:1"
         d="m 635.38599,402.58157 a 53.538086,53.538086 0 0 1 -53.53809,53.53809 53.538086,53.538086 0 0 1 -53.53809,-53.53809 53.538086,53.538086 0 0 1 53.53809,-53.53808 53.538086,53.538086 0 0 1 53.53809,53.53808 z"
         id="path4567-6-7" />
      <g
         style="font-style:normal;font-weight:normal;font-size:27.5px;line-height:125%;font-family:sans-serif;letter-spacing:0px;word-spacing:0px;fill:#000000;fill-opacity:1;stroke:none;stroke-width:1px;stroke-linecap:butt;stroke-linejoin:miter;stroke-opacity:1"
         id="text4757-7">
        <path
           d="m 566.901,409.75162 -0.12085,-0.10742 0,-0.69825 0.12085,-0.10742 q 0.98023,-0.0134 1.26221,-0.094 0.28198,-0.094 0.49682,-0.34912 0.22828,-0.26856 0.89966,-1.71875 l 1.40991,-3.06153 3.65235,-8.27148 q 1.03393,-2.43042 2.05444,-4.86084 l 0.8728,0 5.73365,13.48144 0.76538,1.79932 q 0.33569,0.76538 0.76538,1.66504 0.44311,0.89966 0.60425,1.06079 0.17456,0.16113 0.41626,0.25513 0.25512,0.0806 1.1145,0.094 l 0.10742,0.10742 0,0.69825 -0.10742,0.10742 q -1.42334,-0.12085 -2.5647,-0.12085 -2.229,0.0671 -4.45801,0.12085 l -0.10742,-0.10742 0,-0.69825 0.10742,-0.10742 q 1.50391,-0.0268 1.87989,-0.12085 0.37597,-0.10742 0.37597,-0.46997 0,-0.29541 -0.18799,-0.77881 l -1.65161,-4.09546 -7.77466,0 -1.46362,3.4375 q -0.3894,0.92652 -0.3894,1.3562 0,0.3357 0.36255,0.49683 0.36255,0.16113 1.82617,0.17456 l 0.12085,0.10742 0,0.69825 -0.10742,0.10742 q -1.73218,-0.10742 -3.03467,-0.10742 -1.47705,0 -2.98096,0.10742 z m 6.12305,-7.53296 6.79443,0 -3.37036,-8.09693 -3.42407,8.09693 z m 4.0686,-12.54151 0,0 z m -0.30884,20.77271 0,0 z"
           style="font-style:normal;font-variant:normal;font-weight:normal;font-stretch:normal;font-size:27.5px;font-family:'Palatino Linotype';-inkscape-font-specification:'Palatino Linotype'"
           id="path4888" />
        <path
           d="m 588.70276,414.91959 q -0.17578,-1.15235 -0.6543,-2.77344 l 0.0488,-0.14649 0.36133,-0.13671 0.13672,0.0684 q 0.34179,0.89844 0.73242,1.48438 0.39062,0.58594 1.12305,0.89844 0.73242,0.3125 1.58203,0.3125 1.07422,0 1.69922,-0.44922 0.63476,-0.44922 0.97656,-1.2207 0.3418,-0.77149 0.3418,-1.73829 0,-1.29882 -0.6836,-2.04101 -0.67383,-0.74219 -1.875,-0.74219 -0.41015,0 -0.73242,0.0781 -0.32227,0.0781 -0.99609,0.35156 l -0.10743,-0.0977 0.21485,-1.06445 q 0.79101,0.0488 1.05469,0.0488 1.14257,0 1.80664,-0.81055 0.67382,-0.81055 0.67382,-1.91406 0,-0.9668 -0.70312,-1.6211 -0.69336,-0.65429 -1.71875,-0.65429 -0.67383,0 -1.2793,0.27343 -0.5957,0.27344 -0.98633,0.66407 -0.16601,0.33203 -0.52734,1.30859 l -0.0977,0.0879 -0.43945,0 -0.0781,-0.0879 0.58593,-2.26562 q 1.22071,-1.37696 3.31055,-1.37696 1.5918,0 2.56836,0.84961 0.98633,0.83985 0.98633,2.11914 0,0.97657 -0.57617,1.79688 -0.57618,0.81054 -1.60157,1.5332 1.68946,0.20508 2.37305,1.01563 0.69336,0.80078 0.69336,1.94336 0,1.875 -1.69922,3.3789 -1.69922,1.49414 -3.92578,1.49414 -0.66406,0 -1.24023,-0.11719 -0.57618,-0.10742 -1.34766,-0.44921 z"
           style="font-size:20px;baseline-shift:sub"
           id="path4890" />
      </g>
    </g>
    <g
       style="font-style:normal;font-weight:normal;font-size:40px;line-height:125%;font-family:sans-serif;letter-spacing:0px;word-spacing:0px;fill:#000000;fill-opacity:1;stroke:none;stroke-width:1px;stroke-linecap:butt;stroke-linejoin:miter;stroke-opacity:1"
       id="text4798" />
    <g
       id="g4856"
       transform="translate(0,-1.1000522)">
      <path
         style="fill:#ececec;fill-opacity:1;stroke:#000000;stroke-width:1;stroke-miterlimit:4;stroke-dasharray:none;stroke-dashoffset:0;stroke-opacity:1"
         d="m 581.2995,495.76816 a 53.538086,53.538086 0 0 1 -53.53809,53.53808 53.538086,53.538086 0 0 1 -53.53808,-53.53808 53.538086,53.538086 0 0 1 53.53808,-53.53809 53.538086,53.538086 0 0 1 53.53809,53.53809 z"
         id="path4567-6-2-5" />
      <g
         style="font-style:normal;font-weight:normal;font-size:27.5px;line-height:125%;font-family:sans-serif;letter-spacing:0px;word-spacing:0px;fill:#000000;fill-opacity:1;stroke:none;stroke-width:1px;stroke-linecap:butt;stroke-linejoin:miter;stroke-opacity:1"
         id="text4757-1">
        <path
           d="m 512.70221,503.07004 -0.12085,-0.10742 0,-0.69825 0.12085,-0.10742 q 0.98022,-0.0134 1.26221,-0.094 0.28198,-0.094 0.49682,-0.34912 0.22827,-0.26856 0.89966,-1.71875 l 1.40991,-3.06153 3.65235,-8.27148 q 1.03393,-2.43042 2.05444,-4.86084 l 0.8728,0 5.73365,13.48144 0.76538,1.79932 q 0.33569,0.76538 0.76538,1.66504 0.44311,0.89966 0.60425,1.06079 0.17456,0.16113 0.41625,0.25513 0.25513,0.0806 1.11451,0.094 l 0.10742,0.10742 0,0.69825 -0.10742,0.10742 q -1.42334,-0.12085 -2.5647,-0.12085 -2.229,0.0671 -4.45801,0.12085 l -0.10742,-0.10742 0,-0.69825 0.10742,-0.10742 q 1.50391,-0.0268 1.87988,-0.12085 0.37598,-0.10742 0.37598,-0.46997 0,-0.29541 -0.18799,-0.77881 l -1.65161,-4.09546 -7.77466,0 -1.46362,3.4375 q -0.3894,0.92652 -0.3894,1.35621 0,0.33569 0.36254,0.49682 0.36255,0.16113 1.82618,0.17456 l 0.12085,0.10742 0,0.69825 -0.10743,0.10742 q -1.73217,-0.10742 -3.03466,-0.10742 -1.47705,0 -2.98096,0.10742 z m 6.12305,-7.53296 6.79443,0 -3.37036,-8.09692 -3.42407,8.09692 z m 4.0686,-12.54151 0,0 z m -0.30884,20.77271 0,0 z"
           style="font-style:normal;font-variant:normal;font-weight:normal;font-stretch:normal;font-size:27.5px;font-family:'Palatino Linotype';-inkscape-font-specification:'Palatino Linotype'"
           id="path4895" />
        <path
           d="m 536.70123,508.54074 -0.0781,-0.0781 0,-0.41993 0.0781,-0.0781 q 1.44532,-0.0391 1.70899,-0.0879 0.27343,-0.0488 0.40039,-0.20508 0.12695,-0.15625 0.18554,-0.76172 0.0684,-0.60547 0.0684,-1.28906 l 0,-0.72266 -2.13867,0 q -1.86523,0 -3.15429,0.0586 l -0.16602,-0.52735 q 1.69922,-3.18359 5.67383,-9.21875 l 1.37695,-0.55664 0.24414,0.11719 q -0.10742,1.66016 -0.10742,4.11133 l -0.0293,2.7539 0,2.02149 q 1.34766,-0.01 2.08008,-0.0586 l 0.0879,0.0977 q -0.0195,0.37109 -0.0195,0.53711 0.01,0.32227 0.0293,0.63477 l -0.0977,0.0879 q -0.94726,-0.0586 -1.58203,-0.0586 l -0.49805,0 0,0.6543 q 0,1.09375 0.0586,1.55273 0.0586,0.45899 0.18554,0.59571 0.12696,0.12695 0.50782,0.19531 0.39062,0.0586 1.33789,0.0684 l 0.0879,0.0781 0,0.41993 -0.0781,0.0781 q -1.71875,-0.0781 -2.88086,-0.0781 -1.89453,0 -3.28125,0.0781 z m -1.80664,-4.88281 4.16992,0 0.0879,-6.94336 q -0.9375,1.33789 -2.36328,3.67187 -1.42578,2.33399 -1.89453,3.27149 z"
           style="font-size:20px;baseline-shift:sub"
           id="path4897" />
      </g>
    </g>
    <g
       id="g4862"
       transform="translate(0.80047233,0)">
      <path
         style="fill:#ececec;fill-opacity:1;stroke:#000000;stroke-width:1;stroke-miterlimit:4;stroke-dasharray:none;stroke-dashoffset:0;stroke-opacity:1"
         d="m 473.4657,495.76816 a 53.538086,53.538086 0 0 1 -53.53809,53.53808 53.538086,53.538086 0 0 1 -53.53808,-53.53808 53.538086,53.538086 0 0 1 53.53808,-53.53809 53.538086,53.538086 0 0 1 53.53809,53.53809 z"
         id="path4567-6-6-1" />
      <g
         style="font-style:normal;font-weight:normal;font-size:27.5px;line-height:125%;font-family:sans-serif;letter-spacing:0px;word-spacing:0px;fill:#000000;fill-opacity:1;stroke:none;stroke-width:1px;stroke-linecap:butt;stroke-linejoin:miter;stroke-opacity:1"
         id="text4757-9">
        <path
           d="m 405.00024,502.92844 -0.12085,-0.10743 0,-0.69824 0.12085,-0.10742 q 0.98023,-0.0134 1.26221,-0.094 0.28198,-0.094 0.49683,-0.34912 0.22827,-0.26856 0.89966,-1.71875 l 1.40991,-3.06153 3.65234,-8.27148 q 1.03394,-2.43042 2.05444,-4.86084 l 0.87281,0 5.73364,13.48144 0.76538,1.79932 q 0.33569,0.76538 0.76538,1.66504 0.44312,0.89966 0.60425,1.06079 0.17456,0.16113 0.41626,0.25513 0.25513,0.0806 1.1145,0.094 l 0.10742,0.10742 0,0.69824 -0.10742,0.10743 q -1.42334,-0.12085 -2.5647,-0.12085 -2.229,0.0671 -4.458,0.12085 l -0.10743,-0.10743 0,-0.69824 0.10743,-0.10742 q 1.5039,-0.0269 1.87988,-0.12085 0.37598,-0.10742 0.37598,-0.46997 0,-0.29541 -0.18799,-0.77881 l -1.65161,-4.09546 -7.77466,0 -1.46363,3.4375 q -0.3894,0.92652 -0.3894,1.3562 0,0.3357 0.36255,0.49683 0.36255,0.16113 1.82617,0.17456 l 0.12085,0.10742 0,0.69824 -0.10742,0.10743 q -1.73218,-0.10743 -3.03467,-0.10743 -1.47705,0 -2.98096,0.10743 z m 6.12305,-7.53296 6.79443,0 -3.37036,-8.09693 -3.42407,8.09693 z m 4.0686,-12.54151 0,0 z m -0.30883,20.77271 0,0 z"
           style="font-style:normal;font-variant:normal;font-weight:normal;font-stretch:normal;font-size:27.5px;font-family:'Palatino Linotype';-inkscape-font-specification:'Palatino Linotype'"
           id="path4901" />
        <path
           d="m 427.06567,508.1843 q -0.23437,-0.76172 -0.96679,-2.51954 l 0.0195,-0.12695 0.3418,-0.19531 0.11718,0.0293 q 0.81055,1.47461 1.00586,1.67968 0.20508,0.19532 0.91797,0.46875 0.71289,0.26368 1.50391,0.26368 0.98633,0 1.74804,-0.42969 0.76172,-0.42969 1.13282,-1.26953 0.37109,-0.83985 0.37109,-1.9043 0,-1.04492 -0.37109,-1.79688 -0.36133,-0.76171 -1.11328,-1.15234 -0.75196,-0.39062 -1.6211,-0.39062 -0.54687,0 -0.99609,0.14648 -0.43946,0.14648 -0.74219,0.38086 -0.29297,0.22461 -0.70312,0.67383 l -0.4004,-0.11719 0.10743,-2.09961 q 0.0391,-0.5957 0.0391,-1.20117 l 0,-1.73828 q 0,-0.78125 -0.0488,-1.49414 -0.0293,-0.43946 -0.0293,-0.55664 l 0.12696,-0.0977 q 1.49414,0.11719 3.4082,0.11719 1.45508,0 3.48633,-0.11719 l 0.0391,0.0977 q -0.0684,0.47851 -0.0684,0.88867 0,0.20508 0.0293,0.68359 l -0.0977,0.0586 q -1.11328,-0.0781 -2.98828,-0.0781 -2.54883,0 -2.95898,0.0195 -0.14649,1.15235 -0.20508,4.0625 0.80078,-0.58594 1.44531,-0.79101 0.64453,-0.21485 1.39649,-0.21485 1.06445,0 2.04101,0.48828 0.97656,0.48829 1.45508,1.41602 0.48828,0.92773 0.48828,2.00195 0,1.98242 -1.64062,3.65235 -1.63086,1.66015 -4.17969,1.66015 -0.6836,0 -1.13281,-0.11718 -0.43946,-0.11719 -0.95704,-0.38086 z"
           style="font-size:20px;baseline-shift:sub"
           id="path4903" />
      </g>
    </g>
    <g
       id="g4868"
       transform="translate(0.7997859,0.59953075)">
      <path
         style="fill:#ececec;fill-opacity:1;stroke:#000000;stroke-width:1;stroke-miterlimit:4;stroke-dasharray:none;stroke-dashoffset:0;stroke-opacity:1"
         d="m 419.71838,402.58157 a 53.538086,53.538086 0 0 1 -53.53808,53.53809 53.538086,53.538086 0 0 1 -53.53809,-53.53809 53.538086,53.538086 0 0 1 53.53809,-53.53808 53.538086,53.538086 0 0 1 53.53808,53.53808 z"
         id="path4567-6-6" />
      <g
         style="font-style:normal;font-weight:normal;font-size:27.5px;line-height:125%;font-family:sans-serif;letter-spacing:0px;word-spacing:0px;fill:#000000;fill-opacity:1;stroke:none;stroke-width:1px;stroke-linecap:butt;stroke-linejoin:miter;stroke-opacity:1"
         id="text4757-95">
        <path
           d="m 351.18457,409.74185 -0.12085,-0.10742 0,-0.69824 0.12085,-0.10742 q 0.98022,-0.0134 1.26221,-0.094 0.28198,-0.094 0.49682,-0.34912 0.22827,-0.26855 0.89966,-1.71875 l 1.40991,-3.06152 3.65235,-8.27149 q 1.03393,-2.43042 2.05444,-4.86084 l 0.8728,0 5.73365,13.48145 0.76538,1.79931 q 0.33569,0.76539 0.76538,1.66504 0.44311,0.89966 0.60425,1.06079 0.17456,0.16114 0.41626,0.25513 0.25512,0.0806 1.1145,0.094 l 0.10742,0.10742 0,0.69824 -0.10742,0.10742 q -1.42334,-0.12085 -2.5647,-0.12085 -2.229,0.0671 -4.45801,0.12085 l -0.10742,-0.10742 0,-0.69824 0.10742,-0.10742 q 1.50391,-0.0269 1.87989,-0.12085 0.37597,-0.10743 0.37597,-0.46997 0,-0.29541 -0.18799,-0.77881 l -1.65161,-4.09546 -7.77466,0 -1.46362,3.4375 q -0.3894,0.92651 -0.3894,1.3562 0,0.33569 0.36255,0.49683 0.36254,0.16113 1.82617,0.17456 l 0.12085,0.10742 0,0.69824 -0.10742,0.10742 q -1.73218,-0.10742 -3.03467,-0.10742 -1.47705,0 -2.98096,0.10742 z m 6.12305,-7.53296 6.79443,0 -3.37036,-8.09692 -3.42407,8.09692 z m 4.0686,-12.5415 0,0 z m -0.30884,20.7727 0,0 z"
           style="font-style:normal;font-variant:normal;font-weight:normal;font-stretch:normal;font-size:27.5px;font-family:'Palatino Linotype';-inkscape-font-specification:'Palatino Linotype'"
           id="path4907" />
        <path
           d="m 380.4082,401.62857 0,0.11719 q -1.06445,0.22461 -2.43164,1.06445 -1.35742,0.83984 -2.28515,2.25586 -0.92774,1.41602 -1.07422,3.41797 0.33203,-0.23438 0.76172,-0.56641 0.55664,-0.41992 0.81054,-0.57617 0.26367,-0.15625 0.69336,-0.27344 0.43946,-0.11718 1.00586,-0.11718 1.00586,0 1.80664,0.44921 0.80078,0.43946 1.20117,1.3086 0.40039,0.85937 0.40039,2.01172 0,1.63086 -0.79101,2.73437 -0.79102,1.09375 -1.67969,1.57227 -0.88867,0.46875 -2.04101,0.46875 -1.96289,0 -3.04688,-1.46485 -1.08398,-1.47461 -1.08398,-3.82812 0,-1.5625 0.44922,-2.99805 0.45898,-1.44531 1.38671,-2.60742 0.92774,-1.17187 2.36329,-2.08008 1.44531,-0.9082 2.84179,-1.23047 l 0.71289,0.3418 z m -5.97656,9.31641 q 0,0.96679 0.27344,1.91406 0.2832,0.94726 0.89844,1.46484 0.61523,0.51758 1.44531,0.51758 0.71289,0 1.31836,-0.40039 0.60547,-0.40039 0.91797,-1.25 0.32226,-0.85937 0.32226,-1.80664 0,-0.94727 -0.3125,-1.68945 -0.3125,-0.75196 -0.9082,-1.16211 -0.5957,-0.41992 -1.38672,-0.41992 -0.58594,0 -1.17188,0.2832 -0.58593,0.2832 -0.9082,0.64453 -0.3125,0.36133 -0.40039,0.77148 -0.0879,0.40039 -0.0879,1.13282 z"
           style="font-size:20px;baseline-shift:sub"
           id="path4909" />
      </g>
    </g>
  </g>
</svg>
