<?xml version="1.0" encoding="UTF-8" standalone="no"?>
<!-- Created with Inkscape (http://www.inkscape.org/) -->

<svg
   xmlns:osb="http://www.openswatchbook.org/uri/2009/osb"
   xmlns:dc="http://purl.org/dc/elements/1.1/"
   xmlns:cc="http://creativecommons.org/ns#"
   xmlns:rdf="http://www.w3.org/1999/02/22-rdf-syntax-ns#"
   xmlns:svg="http://www.w3.org/2000/svg"
   xmlns="http://www.w3.org/2000/svg"
   xmlns:sodipodi="http://sodipodi.sourceforge.net/DTD/sodipodi-0.dtd"
   xmlns:inkscape="http://www.inkscape.org/namespaces/inkscape"
   width="334.17282"
   height="198.79247"
   id="svg2"
   version="1.1"
   inkscape:version="0.91 r13725"
   inkscape:export-filename="C:\Users\shapie2\Documents\blog\set theory\sets.png"
   inkscape:export-xdpi="90"
   inkscape:export-ydpi="90"
   sodipodi:docname="intersection.svg">
  <defs
     id="defs4">
    <linearGradient
       id="linearGradient3767"
       osb:paint="solid">
      <stop
         style="stop-color:#000000;stop-opacity:1;"
         offset="0"
         id="stop3769" />
    </linearGradient>
  </defs>
  <sodipodi:namedview
     id="base"
     pagecolor="#ffffff"
     bordercolor="#666666"
     borderopacity="1.0"
     inkscape:pageopacity="0.0"
     inkscape:pageshadow="2"
     inkscape:zoom="1.01"
     inkscape:cx="301.39773"
     inkscape:cy="75.153927"
     inkscape:document-units="px"
     inkscape:current-layer="layer1"
     showgrid="false"
     inkscape:window-width="1440"
     inkscape:window-height="851"
     inkscape:window-x="0"
     inkscape:window-y="0"
     inkscape:window-maximized="1"
     fit-margin-top="0"
     fit-margin-left="0"
     fit-margin-right="0"
     fit-margin-bottom="0" />
  <metadata
     id="metadata7">
    <rdf:RDF>
      <cc:Work
         rdf:about="">
        <dc:format>image/svg+xml</dc:format>
        <dc:type
           rdf:resource="http://purl.org/dc/dcmitype/StillImage" />
        <dc:title />
      </cc:Work>
    </rdf:RDF>
  </metadata>
  <g
     inkscape:label="Layer 1"
     inkscape:groupmode="layer"
     id="layer1"
     transform="translate(-122.61217,-408.72364)">
    <path
       style="opacity:0.8;fill:#b3b3b3;stroke:#000000;stroke-width:1.50000012;stroke-miterlimit:4;stroke-opacity:1;stroke-dasharray:none"
       d="M 152.15625 48.84375 C 144.78294 61.234541 140.527 75.495571 140.375 89.9375 C 140.12666 106.06933 145.03923 122.31073 154.5625 135.375 C 160.1568 143.12428 167.28544 150.00228 175.9375 154.21875 C 184.27268 157.99131 193.87058 158.58414 202.71875 156.34375 C 203.99233 152.99126 204.97062 149.55914 205.5625 146.09375 C 208.85171 127.68633 204.32576 108.62669 194.21875 92.09375 C 184.38808 76.209693 170.34238 62.271378 154.34375 50.375 C 153.62616 49.853561 152.89064 49.354957 152.15625 48.84375 z "
       transform="translate(122.61217,408.72364)"
       id="path2985" />
    <g
       style="font-style:normal;font-weight:normal;font-size:40px;line-height:125%;font-family:Sans;letter-spacing:0px;word-spacing:0px;fill:#000000;fill-opacity:1;stroke:none"
       id="text3773">
      <path
         d="m 325.37885,485.41373 q -0.87891,0 -0.87891,-0.50782 0,-0.52734 0.42969,-0.64453 0.44922,-0.13672 1.13281,-0.13672 0.68359,0 1.71875,-0.76171 1.03516,-0.78125 1.95312,-2.42188 l 13.08594,-23.04687 q 0.60547,-1.07422 1.26953,-1.07422 0.15625,0 0.27344,0.0195 0.13672,0.0195 0.21484,0.11719 0.0781,0.0976 0.11719,0.13671 0.0391,0.0391 0.0781,0.19532 0.0391,0.15625 0.0391,0.19531 0,0.0391 0.0391,0.25391 l 0,0.19531 1.71875,24.84375 q 0.0391,0.91797 0.42969,1.15234 0.41016,0.23438 1.66016,0.29297 1.07421,0 1.07421,0.54688 0,0.68359 -0.80078,0.68359 -0.19531,0 -1.44531,-0.0586 -1.23047,-0.0586 -2.67578,-0.0586 -1.19141,0 -2.55859,0.0391 -1.34766,0.0391 -1.5625,0.0391 -0.9961,0 -0.9961,-0.48828 0,-0.23438 0.15625,-0.42969 0.15625,-0.23438 1.03516,-0.25391 0.89844,-0.0195 1.62109,-0.35156 0.74219,-0.35156 0.74219,-1.36719 0,-0.0391 -0.0781,-1.15234 -0.0781,-1.11328 -0.19531,-2.65625 -0.11719,-1.54297 -0.15625,-2.46094 l -9.12109,0 q -0.44922,0.80078 -0.97656,1.71875 -0.50782,0.91797 -0.82032,1.42578 -0.29297,0.48828 -0.60547,1.05469 -0.3125,0.56641 -0.46875,0.85937 -0.13671,0.29297 -0.29296,0.625 -0.15625,0.3125 -0.19532,0.52735 -0.0391,0.19531 -0.0391,0.39062 0,0.56641 0.33203,0.85938 0.35156,0.29297 0.74219,0.35156 0.41016,0.0586 0.74219,0.21484 0.33203,0.13672 0.37109,0.41016 0.0391,0.3125 -0.15625,0.54688 -0.19531,0.21484 -0.64453,0.21484 -0.11719,0 -0.58594,-0.0391 -0.44922,-0.0391 -1.25,-0.0586 -0.80078,-0.0195 -1.71875,-0.0195 -0.76172,0 -1.66015,0.0391 -0.89844,0.0391 -1.09375,0.0391 z m 9.04296,-10.35157 8.32032,0 -0.87891,-13.08593 -7.44141,13.08593 z"
         style="font-style:italic;font-variant:normal;font-weight:500;font-stretch:normal;font-size:40px;line-height:125%;font-family:'CMU Classical Serif';-inkscape-font-specification:'CMU Classical Serif, Medium Italic';text-align:start;writing-mode:lr-tb;text-anchor:start"
         id="path4100" />
      <path
         d="m 383.01556,484.88638 q 0,-0.44922 0.33204,-0.54687 0.35156,-0.11719 1.11328,-0.11719 l 0.3125,0 q 1.32812,0 1.83593,-0.41016 0.48829,-0.3125 0.97657,-2.36328 l 5.11718,-20.39062 q 0.15625,-0.72266 0.15625,-0.91797 0,-0.76172 -1.75781,-0.76172 l -0.33203,0 q -0.83984,0 -1.03516,-0.11719 -0.48828,-0.27343 -0.11718,-0.80078 0.15625,-0.3125 0.91797,-0.33203 l 12.1289,0 q 3.8086,0 5.42969,1.67969 1.64062,1.67969 1.64062,3.76953 0,0.76172 -0.27343,1.64062 -0.27344,0.87891 -1.03516,2.08985 -0.76172,1.1914 -2.48047,2.24609 -1.71875,1.05469 -4.19922,1.6211 2.79297,0.23437 4.25782,1.875 1.48437,1.64062 1.48437,3.63281 0,3.00781 -2.65625,5.60547 -2.65625,2.59765 -6.17187,3.08593 -0.6836,0.0781 -2.12891,0.0781 l -12.71484,0 q -0.80079,0 -0.80079,-0.56641 z m 10.03907,-13.20312 q -2.91016,11.69922 -2.91016,12.01172 0,0.3125 0.23438,0.42968 0.23437,0.0977 0.91796,0.0977 l 4.6875,0 q 2.32422,0 4.1211,-1.17187 1.75781,-1.15235 2.77344,-2.98829 1.01562,-1.85546 1.01562,-3.92578 0,-1.91406 -0.97656,-3.18359 -0.97656,-1.26953 -2.8125,-1.26953 l -7.05078,0 z m 0.23437,-0.91797 4.16016,0 q 0.15625,0 0.52734,0.0195 0.3711,0.0195 0.52735,0.0195 3.47656,0 5.58593,-2.40234 2.12891,-2.42188 2.12891,-5.11719 0,-1.52344 -0.87891,-2.71484 -0.8789,-1.19141 -2.96875,-1.19141 l -4.3164,0 q -1.32813,0 -1.66016,0.21484 -0.33203,0.21485 -0.625,1.21094 -2.40234,9.51172 -2.48047,9.96094 z"
         style="font-style:italic;font-variant:normal;font-weight:500;font-stretch:normal;font-size:40px;line-height:125%;font-family:'CMU Classical Serif';-inkscape-font-specification:'CMU Classical Serif, Medium Italic';text-align:start;writing-mode:lr-tb;text-anchor:start"
         id="path4102" />
    </g>
    <g
       style="font-style:italic;font-variant:normal;font-weight:500;font-stretch:normal;font-size:30px;line-height:125%;font-family:'CMU Serif';-inkscape-font-specification:'CMU Serif, Medium Italic';text-align:start;letter-spacing:0px;word-spacing:0px;writing-mode:lr-tb;text-anchor:start;fill:#000000;fill-opacity:1;stroke:none;stroke-width:1px;stroke-linecap:butt;stroke-linejoin:miter;stroke-opacity:1"
       id="text3591">
      <path
         d="m 361.73935,484.76361 -1.97754,0 0,-9.09668 q 0,-3.82324 0.10254,-4.83398 0.17578,-1.83106 0.67383,-3.01758 0.49804,-1.18652 1.58203,-2.3291 1.09863,-1.14258 2.69531,-1.86035 1.61133,-0.71778 3.42774,-0.71778 1.74316,0 3.31054,0.68848 1.58203,0.67383 2.75391,1.8457 1.17187,1.17188 1.66992,2.49024 0.5127,1.31836 0.67383,3.29589 0.0586,0.76172 0.0586,4.43848 l 0,9.09668 -1.96289,0 0,-9.19922 q 0,-3.32519 -0.0879,-4.24804 -0.14648,-1.66993 -0.54199,-2.65137 -0.38086,-0.9961 -1.20117,-1.86035 -0.80567,-0.86426 -2.08008,-1.4209 -1.25977,-0.55664 -2.60742,-0.55664 -1.34766,0 -2.66602,0.58593 -1.31836,0.58594 -2.16797,1.55274 -0.83496,0.95215 -1.17187,2.09473 -0.33692,1.14257 -0.43946,2.66601 -0.0439,0.79102 -0.0439,3.83789 l 0,9.19922 z"
         style="font-style:italic;font-variant:normal;font-weight:500;font-stretch:normal;font-size:30px;line-height:125%;font-family:'CMU Serif';-inkscape-font-specification:'CMU Serif, Medium Italic';text-align:start;writing-mode:lr-tb;text-anchor:start"
         id="path3350" />
    </g>
  </g>
</svg>
