<?xml version="1.0" encoding="UTF-8" standalone="no"?>
<!-- Created with Inkscape (http://www.inkscape.org/) -->

<svg
   xmlns:osb="http://www.openswatchbook.org/uri/2009/osb"
   xmlns:dc="http://purl.org/dc/elements/1.1/"
   xmlns:cc="http://creativecommons.org/ns#"
   xmlns:rdf="http://www.w3.org/1999/02/22-rdf-syntax-ns#"
   xmlns:svg="http://www.w3.org/2000/svg"
   xmlns="http://www.w3.org/2000/svg"
   xmlns:sodipodi="http://sodipodi.sourceforge.net/DTD/sodipodi-0.dtd"
   xmlns:inkscape="http://www.inkscape.org/namespaces/inkscape"
   width="334.17282"
   height="198.79247"
   id="svg2"
   version="1.1"
   inkscape:version="0.91 r13725"
   inkscape:export-filename="C:\Users\shapie2\Documents\blog\set theory\sets.png"
   inkscape:export-xdpi="90"
   inkscape:export-ydpi="90"
   sodipodi:docname="sets.svg">
  <defs
     id="defs4">
    <linearGradient
       id="linearGradient3767"
       osb:paint="solid">
      <stop
         style="stop-color:#000000;stop-opacity:1;"
         offset="0"
         id="stop3769" />
    </linearGradient>
  </defs>
  <sodipodi:namedview
     id="base"
     pagecolor="#ffffff"
     bordercolor="#666666"
     borderopacity="1.0"
     inkscape:pageopacity="0.0"
     inkscape:pageshadow="2"
     inkscape:zoom="1.01"
     inkscape:cx="97.93238"
     inkscape:cy="75.153927"
     inkscape:document-units="px"
     inkscape:current-layer="text3773"
     showgrid="false"
     inkscape:window-width="1440"
     inkscape:window-height="851"
     inkscape:window-x="446"
     inkscape:window-y="2"
     inkscape:window-maximized="0"
     fit-margin-top="0"
     fit-margin-left="0"
     fit-margin-right="0"
     fit-margin-bottom="0" />
  <metadata
     id="metadata7">
    <rdf:RDF>
      <cc:Work
         rdf:about="">
        <dc:format>image/svg+xml</dc:format>
        <dc:type
           rdf:resource="http://purl.org/dc/dcmitype/StillImage" />
        <dc:title></dc:title>
      </cc:Work>
    </rdf:RDF>
  </metadata>
  <g
     inkscape:label="Layer 1"
     inkscape:groupmode="layer"
     id="layer1"
     transform="translate(-122.61217,-408.72364)">
    <path
       transform="matrix(0.75561217,0,0,0.62456505,92.001152,248.86123)"
       style="opacity:0.8;fill:#b3b3b3;stroke:#000000;stroke-width:2.18349886;stroke-miterlimit:4;stroke-opacity:1;stroke-dasharray:none"
       d="m 192.59375,312.625 c -17.23781,1.99796 -32.62317,11.06576 -46.40625,21.09375 -27.35949,19.32679 -56.450598,36.71411 -80.306246,60.50734 -13.494599,14.14896 -23.438368,32.58505 -24.350004,52.39891 -0.596065,20.63566 8.683585,40.61968 22.509021,55.586 17.962708,20.52934 40.998469,35.8226 64.687859,48.96273 26.5067,13.94372 56.2973,22.69336 86.42907,21.81194 22.55728,-0.61164 45.53533,-7.07147 63.37501,-21.29031 18.87666,-15.10812 30.66987,-38.0336 34.0257,-61.80427 4.35304,-29.47239 -1.63492,-60.0264 -15.01084,-86.49753 -13.01021,-25.43219 -31.57952,-47.73657 -52.75259,-66.78403 -11.54577,-10.15013 -24.71929,-19.27729 -39.89917,-22.81797 -4.04139,-0.89437 -8.16138,-1.32289 -12.30156,-1.16656 z"
       id="path2985"
       inkscape:connector-curvature="0" />
    <path
       style="opacity:0.8;fill:#b3b3b3;stroke:#000000;stroke-width:1.5;stroke-miterlimit:4;stroke-opacity:1;stroke-dasharray:none"
       d="m 369.55044,409.49845 c -24.54135,0.88404 -48.97049,8.08894 -69.61256,21.49171 -22.3547,14.73038 -36.65351,40.90331 -36.9353,67.67683 -0.24834,16.13183 4.64523,32.36966 14.1685,45.43393 5.5943,7.74928 12.71851,14.6401 21.37057,18.85657 10.04882,4.54817 21.94613,4.47097 32.13379,0.38471 13.22039,-5.58072 25.35457,-13.59571 39.08168,-17.92634 9.6479,-3.26588 19.65909,-5.40308 29.82457,-5.94866 7.25711,-0.3791 14.56917,-0.70402 21.66266,-2.53464 6.45814,-1.57559 12.52451,-4.96208 17.50644,-9.14792 7.32504,-6.23167 11.91475,-15.1146 14.56895,-24.25279 2.52775,-8.85795 3.31211,-18.19173 2.26269,-27.34504 -2.06492,-18.26273 -11.34314,-35.59579 -25.44838,-47.38902 -12.24365,-10.47924 -27.84673,-16.52179 -43.75031,-18.46781 -5.57723,-0.72304 -11.21327,-0.93546 -16.8333,-0.83153 z"
       id="path3756"
       inkscape:connector-curvature="0" />
    <g
       style="font-style:italic;font-variant:normal;font-weight:500;font-stretch:normal;font-size:40px;line-height:125%;font-family:'CMU Classical Serif';-inkscape-font-specification:'CMU Classical Serif, Medium Italic';text-align:start;letter-spacing:0px;word-spacing:0px;writing-mode:lr-tb;text-anchor:start;fill:#000000;fill-opacity:1;stroke:none"
       id="text3773">
      <path
         d="m 200.2719,544.40234 q -0.87891,0 -0.87891,-0.50781 0,-0.52734 0.42969,-0.64453 0.44922,-0.13672 1.13281,-0.13672 0.68359,0 1.71875,-0.76172 1.03516,-0.78125 1.95313,-2.42187 l 13.08593,-23.04688 q 0.60547,-1.07422 1.26953,-1.07422 0.15625,0 0.27344,0.0195 0.13672,0.0195 0.21485,0.11719 0.0781,0.0977 0.11718,0.13672 0.0391,0.0391 0.0781,0.19531 0.0391,0.15625 0.0391,0.19532 0,0.0391 0.0391,0.2539 l 0,0.19531 1.71875,24.84375 q 0.0391,0.91797 0.42969,1.15235 0.41016,0.23437 1.66016,0.29297 1.07422,0 1.07422,0.54687 0,0.6836 -0.80079,0.6836 -0.19531,0 -1.44531,-0.0586 -1.23047,-0.0586 -2.67578,-0.0586 -1.19141,0 -2.55859,0.0391 -1.34766,0.0391 -1.5625,0.0391 -0.9961,0 -0.9961,-0.48828 0,-0.23437 0.15625,-0.42969 0.15625,-0.23437 1.03516,-0.2539 0.89844,-0.0195 1.62109,-0.35156 0.74219,-0.35157 0.74219,-1.36719 0,-0.0391 -0.0781,-1.15235 -0.0781,-1.11328 -0.19532,-2.65625 -0.11718,-1.54296 -0.15625,-2.46093 l -9.12109,0 q -0.44922,0.80078 -0.97656,1.71875 -0.50782,0.91797 -0.82032,1.42578 -0.29296,0.48828 -0.60546,1.05469 -0.3125,0.5664 -0.46875,0.85937 -0.13672,0.29297 -0.29297,0.625 -0.15625,0.3125 -0.19532,0.52734 -0.0391,0.19532 -0.0391,0.39063 0,0.56641 0.33203,0.85937 0.35157,0.29297 0.74219,0.35157 0.41016,0.0586 0.74219,0.21484 0.33203,0.13672 0.37109,0.41016 0.0391,0.3125 -0.15625,0.54687 -0.19531,0.21485 -0.64453,0.21485 -0.11719,0 -0.58594,-0.0391 -0.44922,-0.0391 -1.25,-0.0586 -0.80078,-0.0195 -1.71875,-0.0195 -0.76172,0 -1.66015,0.0391 -0.89844,0.0391 -1.09375,0.0391 z m 9.04297,-10.35156 8.32031,0 -0.87891,-13.08594 -7.4414,13.08594 z"
         style=""
         id="path3353" />
    </g>
    <g
       style="font-style:italic;font-variant:normal;font-weight:500;font-stretch:normal;font-size:40px;line-height:125%;font-family:'CMU Classical Serif';-inkscape-font-specification:'CMU Classical Serif, Medium Italic';text-align:start;letter-spacing:0px;word-spacing:0px;writing-mode:lr-tb;text-anchor:start;fill:#000000;fill-opacity:1;stroke:none"
       id="text3777">
      <path
         d="m 355.07291,493.37994 q 0,-0.44921 0.33203,-0.54687 0.35156,-0.11719 1.11328,-0.11719 l 0.3125,0 q 1.32812,0 1.83594,-0.41015 0.48828,-0.3125 0.97656,-2.36329 l 5.11719,-20.39062 q 0.15625,-0.72266 0.15625,-0.91797 0,-0.76172 -1.75782,-0.76172 l -0.33203,0 q -0.83984,0 -1.03515,-0.11719 -0.48828,-0.27343 -0.11719,-0.80078 0.15625,-0.3125 0.91797,-0.33203 l 12.1289,0 q 3.8086,0 5.42969,1.67969 1.64063,1.67969 1.64063,3.76953 0,0.76172 -0.27344,1.64063 -0.27344,0.8789 -1.03516,2.08984 -0.76172,1.19141 -2.48047,2.24609 -1.71875,1.05469 -4.19921,1.6211 2.79296,0.23437 4.25781,1.875 1.48437,1.64062 1.48437,3.63281 0,3.00781 -2.65625,5.60547 -2.65625,2.59765 -6.17187,3.08594 -0.6836,0.0781 -2.12891,0.0781 l -12.71484,0 q -0.80078,0 -0.80078,-0.56641 z m 10.03906,-13.20312 q -2.91016,11.69922 -2.91016,12.01172 0,0.3125 0.23438,0.42969 0.23437,0.0977 0.91797,0.0977 l 4.6875,0 q 2.32422,0 4.12109,-1.17187 1.75781,-1.15235 2.77344,-2.98828 1.01562,-1.85547 1.01562,-3.92579 0,-1.91406 -0.97656,-3.18359 -0.97656,-1.26953 -2.8125,-1.26953 l -7.05078,0 z m 0.23437,-0.91797 4.16016,0 q 0.15625,0 0.52734,0.0195 0.3711,0.0195 0.52735,0.0195 3.47656,0 5.58594,-2.40234 2.1289,-2.42188 2.1289,-5.11719 0,-1.52344 -0.8789,-2.71484 -0.87891,-1.19141 -2.96875,-1.19141 l -4.31641,0 q -1.32813,0 -1.66016,0.21485 -0.33203,0.21484 -0.625,1.21093 -2.40234,9.51172 -2.48047,9.96094 z"
         style=""
         id="path3350" />
    </g>
  </g>
</svg>
