<?xml version="1.0" encoding="UTF-8" standalone="no"?>
<!-- Created with Inkscape (http://www.inkscape.org/) -->

<svg
   xmlns:osb="http://www.openswatchbook.org/uri/2009/osb"
   xmlns:dc="http://purl.org/dc/elements/1.1/"
   xmlns:cc="http://creativecommons.org/ns#"
   xmlns:rdf="http://www.w3.org/1999/02/22-rdf-syntax-ns#"
   xmlns:svg="http://www.w3.org/2000/svg"
   xmlns="http://www.w3.org/2000/svg"
   xmlns:sodipodi="http://sodipodi.sourceforge.net/DTD/sodipodi-0.dtd"
   xmlns:inkscape="http://www.inkscape.org/namespaces/inkscape"
   width="334.18802"
   height="198.79382"
   id="svg2"
   version="1.1"
   inkscape:version="0.91 r13725"
   inkscape:export-filename="C:\Users\shapie2\Documents\blog\set theory\sets.png"
   inkscape:export-xdpi="90"
   inkscape:export-ydpi="90"
   sodipodi:docname="union.svg">
  <defs
     id="defs4">
    <linearGradient
       id="linearGradient3767"
       osb:paint="solid">
      <stop
         style="stop-color:#000000;stop-opacity:1;"
         offset="0"
         id="stop3769" />
    </linearGradient>
  </defs>
  <sodipodi:namedview
     id="base"
     pagecolor="#ffffff"
     bordercolor="#666666"
     borderopacity="1.0"
     inkscape:pageopacity="0.0"
     inkscape:pageshadow="2"
     inkscape:zoom="1.01"
     inkscape:cx="-134.23823"
     inkscape:cy="75.14461"
     inkscape:document-units="px"
     inkscape:current-layer="layer1"
     showgrid="false"
     inkscape:window-width="1440"
     inkscape:window-height="851"
     inkscape:window-x="194"
     inkscape:window-y="2"
     inkscape:window-maximized="0"
     fit-margin-top="0"
     fit-margin-left="0"
     fit-margin-right="0"
     fit-margin-bottom="0" />
  <metadata
     id="metadata7">
    <rdf:RDF>
      <cc:Work
         rdf:about="">
        <dc:format>image/svg+xml</dc:format>
        <dc:type
           rdf:resource="http://purl.org/dc/dcmitype/StillImage" />
        <dc:title />
      </cc:Work>
    </rdf:RDF>
  </metadata>
  <g
     inkscape:label="Layer 1"
     inkscape:groupmode="layer"
     id="layer1"
     transform="translate(-122.60456,-408.71297)">
    <path
       style="opacity:0.8;fill:#b3b3b3;stroke:#000000;stroke-width:1.50000012;stroke-miterlimit:4;stroke-opacity:1;stroke-dasharray:none"
       d="m 373.78125,409.46875 c -1.40584,-0.0166 -2.81374,0.005 -4.21875,0.0312 -24.54135,0.88404 -48.98293,8.09723 -69.625,21.5 -10.29318,6.78257 -18.8609,15.9864 -25.15625,26.5625 -8.194,-5.70382 -17.4421,-10.68926 -27.96875,-12.71875 -3.05372,-0.55859 -6.15288,-0.81639 -9.28125,-0.71875 -13.0251,1.24786 -24.64784,6.89312 -35.0625,13.15625 -20.67316,12.07084 -42.66188,22.95208 -60.6875,37.8125 -10.19668,8.83695 -17.71741,20.34371 -18.40625,32.71875 -0.45039,12.88831 6.58458,25.37131 17.03125,34.71875 13.57284,12.82191 30.97501,22.35563 48.875,30.5625 20.02879,8.70876 42.51332,14.1755 65.28125,13.625 17.04456,-0.38201 34.42637,-4.40066 47.90625,-13.28125 10.94407,-7.24007 18.72638,-17.35315 22.90625,-28.375 1.80172,-0.45854 3.59123,-1.02835 5.3125,-1.71875 13.22039,-5.58072 25.33539,-13.60687 39.0625,-17.9375 9.6479,-3.26588 19.67827,-5.39192 29.84375,-5.9375 7.25711,-0.3791 14.56276,-0.70063 21.65625,-2.53125 6.45814,-1.57559 12.51807,-4.97041 17.5,-9.15625 7.32504,-6.23167 11.9083,-15.11181 14.5625,-24.25 2.52775,-8.85795 3.33067,-18.19044 2.28125,-27.34375 -2.06492,-18.26273 -11.36351,-35.58177 -25.46875,-47.375 -12.24365,-10.47924 -27.84642,-16.52273 -43.75,-18.46875 -4.18292,-0.54228 -8.37623,-0.82521 -12.59375,-0.875 z"
       id="path2985"
       inkscape:connector-curvature="0" />
    <g
       style="font-style:italic;font-variant:normal;font-weight:500;font-stretch:normal;font-size:40px;line-height:125%;font-family:'CMU Classical Serif';-inkscape-font-specification:'CMU Classical Serif, Medium Italic';text-align:start;letter-spacing:0px;word-spacing:0px;writing-mode:lr-tb;text-anchor:start;fill:#000000;fill-opacity:1;stroke:none"
       id="text3773">
      <path
         d="m 244.82635,520.63995 q -0.8789,0 -0.8789,-0.50781 0,-0.52734 0.42969,-0.64453 0.44921,-0.13672 1.13281,-0.13672 0.68359,0 1.71875,-0.76172 1.03515,-0.78125 1.95312,-2.42187 l 13.08594,-23.04688 q 0.60547,-1.07422 1.26953,-1.07422 0.15625,0 0.27344,0.0195 0.13672,0.0195 0.21484,0.11719 0.0781,0.0977 0.11719,0.13672 0.0391,0.0391 0.0781,0.19531 0.0391,0.15625 0.0391,0.19532 0,0.0391 0.0391,0.2539 l 0,0.19531 1.71875,24.84375 q 0.0391,0.91797 0.42969,1.15235 0.41015,0.23437 1.66015,0.29297 1.07422,0 1.07422,0.54687 0,0.6836 -0.80078,0.6836 -0.19531,0 -1.44531,-0.0586 -1.23047,-0.0586 -2.67578,-0.0586 -1.19141,0 -2.5586,0.0391 -1.34765,0.0391 -1.5625,0.0391 -0.99609,0 -0.99609,-0.48828 0,-0.23437 0.15625,-0.42969 0.15625,-0.23437 1.03516,-0.2539 0.89843,-0.0195 1.62109,-0.35156 0.74219,-0.35157 0.74219,-1.36719 0,-0.0391 -0.0781,-1.15235 -0.0781,-1.11328 -0.19531,-2.65625 -0.11719,-1.54296 -0.15625,-2.46093 l -9.12109,0 q -0.44922,0.80078 -0.97657,1.71875 -0.50781,0.91797 -0.82031,1.42578 -0.29297,0.48828 -0.60547,1.05469 -0.3125,0.5664 -0.46875,0.85937 -0.13672,0.29297 -0.29297,0.625 -0.15625,0.3125 -0.19531,0.52734 -0.0391,0.19532 -0.0391,0.39063 0,0.56641 0.33203,0.85937 0.35156,0.29297 0.74219,0.35157 0.41015,0.0586 0.74219,0.21484 0.33203,0.13672 0.37109,0.41016 0.0391,0.3125 -0.15625,0.54687 -0.19531,0.21485 -0.64453,0.21485 -0.11719,0 -0.58594,-0.0391 -0.44922,-0.0391 -1.25,-0.0586 -0.80078,-0.0195 -1.71875,-0.0195 -0.76172,0 -1.66016,0.0391 -0.89843,0.0391 -1.09375,0.0391 z m 9.04297,-10.35156 8.32032,0 -0.87891,-13.08594 -7.44141,13.08594 z"
         style="font-style:italic;font-variant:normal;font-weight:500;font-stretch:normal;font-size:40px;line-height:125%;font-family:'CMU Classical Serif';-inkscape-font-specification:'CMU Classical Serif, Medium Italic';text-align:start;writing-mode:lr-tb;text-anchor:start"
         id="path3490" />
      <path
         d="m 302.46307,520.11261 q 0,-0.44922 0.33203,-0.54688 0.35157,-0.11718 1.11329,-0.11718 l 0.3125,0 q 1.32812,0 1.83593,-0.41016 0.48828,-0.3125 0.97657,-2.36328 l 5.11718,-20.39063 q 0.15625,-0.72265 0.15625,-0.91796 0,-0.76172 -1.75781,-0.76172 l -0.33203,0 q -0.83984,0 -1.03516,-0.11719 -0.48828,-0.27344 -0.11718,-0.80078 0.15625,-0.3125 0.91796,-0.33203 l 12.12891,0 q 3.80859,0 5.42969,1.67968 1.64062,1.67969 1.64062,3.76954 0,0.76171 -0.27343,1.64062 -0.27344,0.87891 -1.03516,2.08984 -0.76172,1.19141 -2.48047,2.2461 -1.71875,1.05469 -4.19922,1.62109 2.79297,0.23438 4.25781,1.875 1.48438,1.64063 1.48438,3.63281 0,3.00782 -2.65625,5.60547 -2.65625,2.59766 -6.17188,3.08594 -0.68359,0.0781 -2.1289,0.0781 l -12.71485,0 q -0.80078,0 -0.80078,-0.56641 z m 10.03907,-13.20313 q -2.91016,11.69922 -2.91016,12.01172 0,0.3125 0.23437,0.42969 0.23438,0.0977 0.91797,0.0977 l 4.6875,0 q 2.32422,0 4.1211,-1.17188 1.75781,-1.15234 2.77343,-2.98828 1.01563,-1.85547 1.01563,-3.92578 0,-1.91406 -0.97656,-3.18359 -0.97657,-1.26954 -2.8125,-1.26954 l -7.05078,0 z m 0.23437,-0.91796 4.16016,0 q 0.15625,0 0.52734,0.0195 0.37109,0.0195 0.52734,0.0195 3.47657,0 5.58594,-2.40235 2.12891,-2.42187 2.12891,-5.11718 0,-1.52344 -0.87891,-2.71485 -0.8789,-1.1914 -2.96875,-1.1914 l -4.3164,0 q -1.32813,0 -1.66016,0.21484 -0.33203,0.21484 -0.625,1.21094 -2.40234,9.51172 -2.48047,9.96094 z"
         style="font-style:italic;font-variant:normal;font-weight:500;font-stretch:normal;font-size:40px;line-height:125%;font-family:'CMU Classical Serif';-inkscape-font-specification:'CMU Classical Serif, Medium Italic';text-align:start;writing-mode:lr-tb;text-anchor:start"
         id="path3492" />
    </g>
    <g
       style="font-style:italic;font-variant:normal;font-weight:500;font-stretch:normal;font-size:40px;line-height:100%;font-family:'CMU Serif';-inkscape-font-specification:'CMU Serif, Medium Italic';text-align:start;letter-spacing:0px;word-spacing:0px;writing-mode:lr-tb;text-anchor:start;fill:#000000;fill-opacity:1;stroke:none;stroke-width:1px;stroke-linecap:butt;stroke-linejoin:miter;stroke-opacity:1"
       id="text3485">
      <path
         d="m 295.93011,511.82778 q 0,1.59 -0.57,2.91 -0.57,1.32 -1.62,2.28 -1.05,0.96 -2.58,1.5 -1.5,0.54 -3.42,0.54 -1.92,0 -3.45,-0.54 -1.5,-0.54 -2.58,-1.56 -1.05,-1.02 -1.62,-2.43 -0.54,-1.44 -0.54,-3.24 l 0,-13.17 1.14,0 0,13.02 q 0,1.68 0.51,2.94 0.54,1.23 1.47,2.07 0.96,0.84 2.25,1.26 1.29,0.39 2.82,0.39 1.53,0 2.82,-0.39 1.29,-0.42 2.22,-1.26 0.96,-0.84 1.47,-2.07 0.54,-1.26 0.54,-2.94 l 0,-13.02 1.14,0 0,13.71 z"
         style="font-style:normal;font-variant:normal;font-weight:500;font-stretch:normal;font-size:30px;line-height:100%;font-family:'CMU Serif';-inkscape-font-specification:'CMU Serif, Medium';text-align:start;writing-mode:lr-tb;text-anchor:start"
         id="path3495" />
    </g>
  </g>
</svg>
