<?xml version="1.0" encoding="UTF-8" standalone="no"?>
<!-- Created with Inkscape (http://www.inkscape.org/) -->

<svg
   xmlns:dc="http://purl.org/dc/elements/1.1/"
   xmlns:cc="http://creativecommons.org/ns#"
   xmlns:rdf="http://www.w3.org/1999/02/22-rdf-syntax-ns#"
   xmlns:svg="http://www.w3.org/2000/svg"
   xmlns="http://www.w3.org/2000/svg"
   xmlns:sodipodi="http://sodipodi.sourceforge.net/DTD/sodipodi-0.dtd"
   xmlns:inkscape="http://www.inkscape.org/namespaces/inkscape"
   width="603.32343"
   height="474.4017"
   id="svg3189"
   version="1.1"
   inkscape:version="0.91 r13725"
   sodipodi:docname="basis intersection balls.svg"
   inkscape:export-filename="C:\Users\shapie2\Documents\blog\more on topological spaces\basis intersection balls.png"
   inkscape:export-xdpi="90"
   inkscape:export-ydpi="90">
  <defs
     id="defs3191">
    <marker
       inkscape:stockid="Arrow1Lstart"
       orient="auto"
       refY="0"
       refX="0"
       id="Arrow1Lstart"
       style="overflow:visible">
      <path
         id="path5857"
         d="M 0,0 5,-5 -12.5,0 5,5 0,0 Z"
         style="fill-rule:evenodd;stroke:#000000;stroke-width:1pt"
         transform="matrix(0.8,0,0,0.8,10,0)"
         inkscape:connector-curvature="0" />
    </marker>
    <marker
       inkscape:stockid="Arrow1Lend"
       orient="auto"
       refY="0"
       refX="0"
       id="Arrow1Lend"
       style="overflow:visible">
      <path
         id="path5860"
         d="M 0,0 5,-5 -12.5,0 5,5 0,0 Z"
         style="fill-rule:evenodd;stroke:#000000;stroke-width:1pt"
         transform="matrix(-0.8,0,0,-0.8,-10,0)"
         inkscape:connector-curvature="0" />
    </marker>
    <marker
       inkscape:stockid="Arrow1Lend"
       orient="auto"
       refY="0"
       refX="0"
       id="marker3146"
       style="overflow:visible">
      <path
         id="path3148"
         d="M 0,0 5,-5 -12.5,0 5,5 0,0 Z"
         style="fill-rule:evenodd;stroke:#000000;stroke-width:1pt"
         transform="matrix(-0.8,0,0,-0.8,-10,0)"
         inkscape:connector-curvature="0" />
    </marker>
    <marker
       inkscape:stockid="Arrow1Lend"
       orient="auto"
       refY="0"
       refX="0"
       id="marker3150"
       style="overflow:visible">
      <path
         id="path3152"
         d="M 0,0 5,-5 -12.5,0 5,5 0,0 Z"
         style="fill-rule:evenodd;stroke:#000000;stroke-width:1pt"
         transform="matrix(-0.8,0,0,-0.8,-10,0)"
         inkscape:connector-curvature="0" />
    </marker>
    <marker
       inkscape:stockid="Arrow1Lstart"
       orient="auto"
       refY="0"
       refX="0"
       id="marker3154"
       style="overflow:visible">
      <path
         id="path3156"
         d="M 0,0 5,-5 -12.5,0 5,5 0,0 Z"
         style="fill-rule:evenodd;stroke:#000000;stroke-width:1pt"
         transform="matrix(0.8,0,0,0.8,10,0)"
         inkscape:connector-curvature="0" />
    </marker>
    <marker
       inkscape:stockid="Arrow1Lend"
       orient="auto"
       refY="0"
       refX="0"
       id="marker3158"
       style="overflow:visible">
      <path
         id="path3160"
         d="M 0,0 5,-5 -12.5,0 5,5 0,0 Z"
         style="fill-rule:evenodd;stroke:#000000;stroke-width:1pt"
         transform="matrix(-0.8,0,0,-0.8,-10,0)"
         inkscape:connector-curvature="0" />
    </marker>
  </defs>
  <sodipodi:namedview
     id="base"
     pagecolor="#ffffff"
     bordercolor="#666666"
     borderopacity="1.0"
     inkscape:pageopacity="0.0"
     inkscape:pageshadow="2"
     inkscape:zoom="1"
     inkscape:cx="271.11719"
     inkscape:cy="248.03346"
     inkscape:document-units="px"
     inkscape:current-layer="layer1"
     showgrid="false"
     inkscape:window-width="1440"
     inkscape:window-height="851"
     inkscape:window-x="0"
     inkscape:window-y="1"
     inkscape:window-maximized="1"
     fit-margin-top="5"
     fit-margin-left="5"
     fit-margin-bottom="5"
     fit-margin-right="5" />
  <metadata
     id="metadata3194">
    <rdf:RDF>
      <cc:Work
         rdf:about="">
        <dc:format>image/svg+xml</dc:format>
        <dc:type
           rdf:resource="http://purl.org/dc/dcmitype/StillImage" />
        <dc:title />
      </cc:Work>
    </rdf:RDF>
  </metadata>
  <g
     inkscape:label="Layer 1"
     inkscape:groupmode="layer"
     id="layer1"
     transform="translate(-69.637036,-454.31205)">
    <path
       transform="matrix(1.1815147,0,0,1.1815147,129.0949,-31.41289)"
       style="fill:#f2f2f2;stroke:#000000;stroke-width:1.26955676;stroke-miterlimit:4;stroke-dasharray:7.61734069, 7.61734069;stroke-dashoffset:0;stroke-opacity:1"
       d="M 455.44553,573.64929 A 151.98019,151.98019 0 0 1 303.46533,725.62949 151.98019,151.98019 0 0 1 151.48514,573.64929 151.98019,151.98019 0 0 1 303.46533,421.6691 151.98019,151.98019 0 0 1 455.44553,573.64929 Z"
       id="path5837" />
    <g
       style="font-style:normal;font-variant:normal;font-weight:normal;font-stretch:normal;font-size:25px;line-height:125%;font-family:STIXGeneral;-inkscape-font-specification:'STIXGeneral, Normal';text-align:start;letter-spacing:0px;word-spacing:0px;writing-mode:lr-tb;text-anchor:start;fill:#000000;fill-opacity:1;stroke:none"
       id="text5841">
      <path
         d="m 508.71447,650.63986 -0.675,0.725 c -0.75,0.825 -1.075,1.025 -1.3,1.025 -0.2,0 -0.35,-0.15 -0.35,-0.325 0,-0.5 1.05,-4.8 2.225,-9.075 0.075,-0.25 0.1,-0.3 0.15,-0.525 l -0.175,-0.075 -1.525,0.175 -0.075,0.075 -0.275,1.2 c -0.2,-0.925 -0.925,-1.45 -2,-1.45 -3.325,0 -7.15,4.525 -7.15,8.4 0,1.9 1.1,2.9 2.5,2.9 1.75,0 3.2,-1.1 5.075,-3.925 -0.525,2.05 -0.575,2.25 -0.575,2.875 0,0.725 0.3,1.025 1,1.025 1,0 1.6,-0.475 3.475,-2.75 l -0.325,-0.275 z m -2.45,-6.25 c 0,1.775 -0.75,3.925 -1.925,5.625 -0.75,1.075 -1.925,2.45 -3.175,2.45 -0.9,0 -1.5,-0.475 -1.5,-1.85 0,-1.575 0.875,-3.8 1.925,-5.375 1.05,-1.525 2.15,-2.3 3.275,-2.3 0.875,0 1.4,0.575 1.4,1.45 z"
         style="font-style:italic"
         id="path4227" />
    </g>
    <path
       transform="translate(366.85157,309.84158)"
       style="fill:#000000;stroke:#000000;stroke-width:1.5;stroke-miterlimit:4;stroke-dasharray:none;stroke-dashoffset:0;stroke-opacity:1"
       d="m 127.72278,336.5206 a 6.9306931,6.9306931 0 0 1 -6.9307,6.93069 6.9306931,6.9306931 0 0 1 -6.93069,-6.93069 6.9306931,6.9306931 0 0 1 6.93069,-6.93069 6.9306931,6.9306931 0 0 1 6.9307,6.93069 z"
       id="path5839-1" />
    <g
       style="font-style:normal;font-variant:normal;font-weight:normal;font-stretch:normal;font-size:25px;line-height:125%;font-family:STIXGeneral;-inkscape-font-specification:'STIXGeneral, Normal';text-align:start;letter-spacing:0px;word-spacing:0px;writing-mode:lr-tb;text-anchor:start;fill:#000000;fill-opacity:1;stroke:none"
       id="text6964-3">
      <path
         d="m 78.087036,460.06205 0,0.4 c 1.575,0.125 1.925,0.3 1.925,1.025 0,0.375 -0.1,0.975 -0.275,1.6 l -3.025,10.9 c -0.425,1.55 -0.7,1.8 -2.075,2 l 0,0.4 6.8,0 c 4.05,0 6.875,-1.65 6.875,-5 0,-1.775 -1,-3.1 -3.15,-3.75 l 0,-0.025 c 1.075,-0.225 2,-0.45 2.775,-0.975 0.9,-0.6 1.6,-1.475 1.6,-2.825 0,-2.475 -1.725,-3.75 -5.2,-3.75 l -6.25,0 z m 2.95,7.25 1.575,-5.6 c 0.25,-0.9 0.5,-0.9 1.475,-0.9 2.025,0 2.925,0.85 2.925,2.7 0,2.475 -1.75,3.8 -5.025,3.8 l -0.95,0 z m -0.25,0.8 c 1.575,0 2.65,0.125 3.15,0.3 0.95,0.325 1.675,1.425 1.675,2.975 0,2.775 -1.95,4.25 -4.825,4.25 -1.05,0 -1.675,-0.35 -1.675,-1.05 0,-0.325 0.375,-1.6 0.875,-3.5 l 0.8,-2.975 z"
         style="font-style:italic;font-variant:normal;font-weight:normal;font-stretch:normal;font-family:STIXGeneral;-inkscape-font-specification:'STIXGeneral Italic'"
         id="path4231" />
      <path
         d="m 97.720239,480.41205 c -3.5,-2.925 -4.25,-5.75 -4.25,-10.4 0,-4.825 0.775,-7.15 4.25,-10.125 l -0.225,-0.4 c -4,2.375 -6.175,5.975 -6.175,10.6 0,4.25 2.15,8.475 6.1,10.725 l 0.3,-0.4 z"
         style=""
         id="path4233" />
      <path
         d="m 102.54485,469.13705 2.1,-7.65 0.525,-2.05 -0.125,-0.125 c -1.25,0.225 -2.15,0.375 -3.825,0.575 l 0,0.425 c 1.475,0.05 1.6,0.075 1.6,0.625 0,0.225 -0.075,0.575 -0.225,1.175 l -3.550001,13.075 0,0.15 c 0,0.75 1.825001,1.325 3.250001,1.325 3.875,0 8,-4.35 8,-8.3 0,-1.925 -1.225,-3 -2.9,-3 -1.75,0 -3.125,0.95 -4.825,3.775 l -0.025,0 z m 5.625,-0.4 c 0,1.85 -1.25,4.325 -2.75,5.875 -0.925,0.95 -2,1.475 -3.075,1.475 -0.775,0 -1.15,-0.275 -1.15,-0.85 0,-1.5 0.7,-3.925 1.8,-5.775 1.075,-1.825 2.225,-2.875 3.425,-2.875 1.1,0 1.75,0.625 1.75,2.15 z"
         style="font-style:italic;font-variant:normal;font-weight:normal;font-stretch:normal;font-family:STIXGeneral;-inkscape-font-specification:'STIXGeneral Italic'"
         id="path4235" />
      <path
         d="m 113.04485,479.91205 c 1.725,-0.825 2.8,-2.4 2.8,-3.9 0,-1.3 -0.875,-2.175 -2,-2.175 -0.9,0 -1.5,0.575 -1.5,1.425 0,0.85 0.525,1.275 1.45,1.275 0.275,0 0.525,-0.1 0.725,-0.1 0.2,0 0.35,0.15 0.35,0.325 0,0.825 -0.7,1.75 -2.075,2.675 l 0.25,0.475 z"
         style=""
         id="path4237" />
      <path
         d="m 127.86985,470.81205 1.375,-5.4 -0.075,-0.05 -3.875,0.675 0,0.425 c 0.375,-0.05 0.575,-0.075 0.775,-0.075 0.5,0 0.95,0.125 0.95,0.65 0,0.525 -0.05,0.75 -0.4,2.05 l -2.025,7.3 1.9,0 c 1.25,-4.2 1.7,-5.2 2.775,-7.05 0.9,-1.525 1.6,-2.35 2.05,-2.35 0.175,0 0.25,0.1 0.4,0.35 0.225,0.375 0.425,0.65 0.875,0.65 0.75,0 1.175,-0.6 1.175,-1.35 0,-0.75 -0.475,-1.275 -1.175,-1.275 -0.575,0 -1.325,0.45 -1.975,1.125 -1.025,1.075 -1.875,2.4 -2.35,3.45 l -0.4,0.875 z"
         style="font-style:italic"
         id="path4239" />
      <path
         d="m 135.6729,470.3208 -0.0813,-0.0325 c -0.6825,0.24375 -1.105,0.34125 -1.86875,0.56875 l -0.4875,0.14625 0,0.27625 c 0.0813,-0.0162 0.1625,-0.0325 0.27625,-0.0325 0.66625,0 0.79625,0.13 0.79625,0.9425 l 0,8.2875 c 0,0.5525 1.365,1.0725 2.68125,1.0725 2.145,0 3.8025,-1.6575 3.8025,-4.0625 0,-2.015 -1.18625,-3.575 -2.925,-3.575 -0.99125,0 -1.8525,0.53625 -2.19375,1.365 l 0,-4.95625 z m 0,5.89875 c 0,-0.6825 0.7475,-1.28375 1.60875,-1.28375 0.585,0 1.105,0.27625 1.44625,0.76375 0.40625,0.56875 0.63375,1.51125 0.63375,2.48625 0,0.9425 -0.21125,1.6575 -0.60125,2.145 -0.3575,0.455 -0.8775,0.69875 -1.51125,0.69875 -0.845,0 -1.57625,-0.325 -1.57625,-0.845 l 0,-3.965 z"
         style="font-size:64.99999762%;baseline-shift:sub"
         id="path4241" />
      <path
         d="m 142.03665,459.88705 c 3.625,2.85 4.25,5.725 4.25,10.4 0,4.85 -0.7,7.2 -4.25,10.125 l 0.225,0.4 c 3.975,-2.425 6.175,-5.975 6.175,-10.6 0,-4.25 -2.275,-8.425 -6.1,-10.725 l -0.3,0.4 z"
         style=""
         id="path4243" />
    </g>
    <path
       transform="matrix(1.1815147,0,0,1.1815147,-54.54875,42.587111)"
       style="fill:#f2f2f2;stroke:#000000;stroke-width:1.26955676;stroke-miterlimit:4;stroke-dasharray:7.61734069, 7.61734069;stroke-dashoffset:0;stroke-opacity:1"
       d="M 455.44553,573.64929 A 151.98019,151.98019 0 0 1 303.46533,725.62949 151.98019,151.98019 0 0 1 151.48514,573.64929 151.98019,151.98019 0 0 1 303.46533,421.6691 151.98019,151.98019 0 0 1 455.44553,573.64929 Z"
       id="path5837-1" />
    <path
       inkscape:connector-curvature="0"
       style="fill:#f2f2f2;stroke:#000000;stroke-width:1.5;stroke-miterlimit:4;stroke-dasharray:9, 9;stroke-dashoffset:0;stroke-opacity:1"
       d="m 341.25796,542.96079 c -20.02527,28.96749 -31.78125,64.11944 -31.78125,102 0,86.89702 61.75308,159.35752 143.75,175.96875 20.02527,-28.96749 31.75,-64.08819 31.75,-101.96875 0,-86.89619 -61.723,-159.38787 -143.71875,-176 z"
       id="path5837-4" />
    <path
       transform="matrix(0.5026682,0,0,0.5026682,194.95763,336.50692)"
       style="fill:#b3b3b3;fill-opacity:0.58823529;stroke:#000000;stroke-width:2.98407578;stroke-miterlimit:4;stroke-dasharray:11.93630311, 11.93630311;stroke-dashoffset:0;stroke-opacity:1"
       d="M 455.44553,573.64929 A 151.98019,151.98019 0 0 1 303.46533,725.62949 151.98019,151.98019 0 0 1 151.48514,573.64929 151.98019,151.98019 0 0 1 303.46533,421.6691 151.98019,151.98019 0 0 1 455.44553,573.64929 Z"
       id="path5837-1-8-2" />
    <path
       transform="translate(183.20792,383.84158)"
       style="fill:#000000;stroke:#000000;stroke-width:1.5;stroke-miterlimit:4;stroke-dasharray:none;stroke-dashoffset:0;stroke-opacity:1"
       d="m 127.72278,336.5206 a 6.9306931,6.9306931 0 0 1 -6.9307,6.93069 6.9306931,6.9306931 0 0 1 -6.93069,-6.93069 6.9306931,6.9306931 0 0 1 6.93069,-6.93069 6.9306931,6.9306931 0 0 1 6.9307,6.93069 z"
       id="path5839-1-0" />
    <g
       style="font-style:normal;font-variant:normal;font-weight:normal;font-stretch:normal;font-size:25px;line-height:125%;font-family:STIXGeneral;-inkscape-font-specification:'STIXGeneral, Normal';text-align:start;letter-spacing:0px;word-spacing:0px;writing-mode:lr-tb;text-anchor:start;fill:#000000;fill-opacity:1;stroke:none"
       id="text5841-9">
      <path
         d="m 283.45226,721.3017 2.1,-7.65 0.525,-2.05 -0.125,-0.125 c -1.25,0.225 -2.15,0.375 -3.825,0.575 l 0,0.425 c 1.475,0.05 1.6,0.075 1.6,0.625 0,0.225 -0.075,0.575 -0.225,1.175 l -3.55,13.075 0,0.15 c 0,0.75 1.825,1.325 3.25,1.325 3.875,0 8,-4.35 8,-8.3 0,-1.925 -1.225,-3 -2.9,-3 -1.75,0 -3.125,0.95 -4.825,3.775 l -0.025,0 z m 5.625,-0.4 c 0,1.85 -1.25,4.325 -2.75,5.875 -0.925,0.95 -2,1.475 -3.075,1.475 -0.775,0 -1.15,-0.275 -1.15,-0.85 0,-1.5 0.7,-3.925 1.8,-5.775 1.075,-1.825 2.225,-2.875 3.425,-2.875 1.1,0 1.75,0.625 1.75,2.15 z"
         style="font-style:italic"
         id="path4249" />
    </g>
    <path
       transform="matrix(0.24123999,0,0,0.24123999,274.29203,486.47503)"
       style="fill:#b3b3b3;fill-opacity:0.58823529;stroke:#000000;stroke-width:6.21787453;stroke-miterlimit:4;stroke-dasharray:24.8714983, 24.8714983;stroke-dashoffset:0;stroke-opacity:1"
       d="M 455.44553,573.64929 A 151.98019,151.98019 0 0 1 303.46533,725.62949 151.98019,151.98019 0 0 1 151.48514,573.64929 151.98019,151.98019 0 0 1 303.46533,421.6691 151.98019,151.98019 0 0 1 455.44553,573.64929 Z"
       id="path5837-1-8" />
    <path
       transform="translate(226.70792,288.34158)"
       style="fill:#000000;stroke:#000000;stroke-width:1.5;stroke-miterlimit:4;stroke-dasharray:none;stroke-dashoffset:0;stroke-opacity:1"
       d="m 127.72278,336.5206 a 6.9306931,6.9306931 0 0 1 -6.9307,6.93069 6.9306931,6.9306931 0 0 1 -6.93069,-6.93069 6.9306931,6.9306931 0 0 1 6.93069,-6.93069 6.9306931,6.9306931 0 0 1 6.9307,6.93069 z"
       id="path5839-1-8" />
    <g
       style="font-style:normal;font-variant:normal;font-weight:normal;font-stretch:normal;font-size:25px;line-height:125%;font-family:STIXGeneral;-inkscape-font-specification:'STIXGeneral, Normal';text-align:start;letter-spacing:0px;word-spacing:0px;writing-mode:lr-tb;text-anchor:start;fill:#000000;fill-opacity:1;stroke:none"
       id="text5841-4">
      <path
         d="m 362.45226,623.6767 c -0.35,-1.7 -0.65,-2.15 -1.275,-2.15 -0.575,0 -1.4,0.175 -2.925,0.725 l -0.275,0.1 0.075,0.4 0.45,-0.125 c 0.475,-0.125 0.775,-0.175 0.975,-0.175 0.625,0 0.8,0.2 1.15,1.7 l 0.7,3.1 -2.05,2.9 c -0.525,0.75 -1,1.225 -1.275,1.225 -0.15,0 -0.4,-0.075 -0.65,-0.225 -0.325,-0.175 -0.575,-0.275 -0.8,-0.275 -0.5,0 -0.85,0.4 -0.85,0.9 0,0.65 0.475,1.05 1.25,1.05 0.775,0 1.275,-0.225 2.375,-1.7 l 2.2,-2.975 0.725,2.975 c 0.3,1.25 0.675,1.7 1.475,1.7 0.95,0 1.6,-0.6 3.05,-2.85 l -0.375,-0.225 c -0.2,0.25 -0.3,0.4 -0.525,0.7 -0.575,0.75 -0.85,1 -1.175,1 -0.35,0 -0.575,-0.325 -0.75,-1.025 l -0.8,-3.35 c -0.15,-0.6 -0.2,-0.95 -0.2,-1.125 1.1,-1.925 2,-3.025 2.45,-3.025 0.6,0 0.825,0.425 1.3,0.425 0.5,0 0.85,-0.375 0.85,-0.9 0,-0.55 -0.425,-0.925 -1.025,-0.925 -1.1,0 -2.025,0.9 -3.775,3.575 l -0.3,-1.425 z"
         style="font-style:italic"
         id="path4254" />
    </g>
    <path
       style="fill:none;stroke:#000000;stroke-width:1px;stroke-linecap:butt;stroke-linejoin:miter;stroke-opacity:1"
       d="m 139,488.36218 57,84"
       id="path4938"
       inkscape:connector-curvature="0" />
    <g
       style="font-style:normal;font-variant:normal;font-weight:normal;font-stretch:normal;font-size:25px;line-height:125%;font-family:STIXGeneral;-inkscape-font-specification:'STIXGeneral, Normal';text-align:start;letter-spacing:0px;word-spacing:0px;writing-mode:lr-tb;text-anchor:start;fill:#000000;fill-opacity:1;stroke:none"
       id="text6964-3-5">
      <path
         d="m 586.21277,881.38875 0,0.4 c 1.575,0.125 1.925,0.3 1.925,1.025 0,0.375 -0.1,0.975 -0.275,1.6 l -3.025,10.9 c -0.425,1.55 -0.7,1.8 -2.075,2 l 0,0.4 6.8,0 c 4.05,0 6.875,-1.65 6.875,-5 0,-1.775 -1,-3.1 -3.15,-3.75 l 0,-0.025 c 1.075,-0.225 2,-0.45 2.775,-0.975 0.9,-0.6 1.6,-1.475 1.6,-2.825 0,-2.475 -1.725,-3.75 -5.2,-3.75 l -6.25,0 z m 2.95,7.25 1.575,-5.6 c 0.25,-0.9 0.5,-0.9 1.475,-0.9 2.025,0 2.925,0.85 2.925,2.7 0,2.475 -1.75,3.8 -5.025,3.8 l -0.95,0 z m -0.25,0.8 c 1.575,0 2.65,0.125 3.15,0.3 0.95,0.325 1.675,1.425 1.675,2.975 0,2.775 -1.95,4.25 -4.825,4.25 -1.05,0 -1.675,-0.35 -1.675,-1.05 0,-0.325 0.375,-1.6 0.875,-3.5 l 0.8,-2.975 z"
         style="font-style:italic"
         id="path4257" />
      <path
         d="m 605.84597,901.73875 c -3.5,-2.925 -4.25,-5.75 -4.25,-10.4 0,-4.825 0.775,-7.15 4.25,-10.125 l -0.225,-0.4 c -4,2.375 -6.175,5.975 -6.175,10.6 0,4.25 2.15,8.475 6.1,10.725 l 0.3,-0.4 z"
         style=""
         id="path4259" />
      <path
         d="m 618.17058,894.93875 -0.675,0.725 c -0.75,0.825 -1.075,1.025 -1.3,1.025 -0.2,0 -0.35,-0.15 -0.35,-0.325 0,-0.5 1.05,-4.8 2.225,-9.075 0.075,-0.25 0.1,-0.3 0.15,-0.525 l -0.175,-0.075 -1.525,0.175 -0.075,0.075 -0.275,1.2 c -0.2,-0.925 -0.925,-1.45 -2,-1.45 -3.325,0 -7.15,4.525 -7.15,8.4 0,1.9 1.1,2.9 2.5,2.9 1.75,0 3.2,-1.1 5.075,-3.925 -0.525,2.05 -0.575,2.25 -0.575,2.875 0,0.725 0.3,1.025 1,1.025 1,0 1.6,-0.475 3.475,-2.75 l -0.325,-0.275 z m -2.45,-6.25 c 0,1.775 -0.75,3.925 -1.925,5.625 -0.75,1.075 -1.925,2.45 -3.175,2.45 -0.9,0 -1.5,-0.475 -1.5,-1.85 0,-1.575 0.875,-3.8 1.925,-5.375 1.05,-1.525 2.15,-2.3 3.275,-2.3 0.875,0 1.4,0.575 1.4,1.45 z"
         style="font-style:italic"
         id="path4261" />
      <path
         d="m 621.21941,901.23875 c 1.725,-0.825 2.8,-2.4 2.8,-3.9 0,-1.3 -0.875,-2.175 -2,-2.175 -0.9,0 -1.5,0.575 -1.5,1.425 0,0.85 0.525,1.275 1.45,1.275 0.275,0 0.525,-0.1 0.725,-0.1 0.2,0 0.35,0.15 0.35,0.325 0,0.825 -0.7,1.75 -2.075,2.675 l 0.25,0.475 z"
         style=""
         id="path4263" />
      <path
         d="m 636.04441,892.13875 1.375,-5.4 -0.075,-0.05 -3.875,0.675 0,0.425 c 0.375,-0.05 0.575,-0.075 0.775,-0.075 0.5,0 0.95,0.125 0.95,0.65 0,0.525 -0.05,0.75 -0.4,2.05 l -2.025,7.3 1.9,0 c 1.25,-4.2 1.7,-5.2 2.775,-7.05 0.9,-1.525 1.6,-2.35 2.05,-2.35 0.175,0 0.25,0.1 0.4,0.35 0.225,0.375 0.425,0.65 0.875,0.65 0.75,0 1.175,-0.6 1.175,-1.35 0,-0.75 -0.475,-1.275 -1.175,-1.275 -0.575,0 -1.325,0.45 -1.975,1.125 -1.025,1.075 -1.875,2.4 -2.35,3.45 l -0.4,0.875 z"
         style="font-style:italic"
         id="path4265" />
      <path
         d="m 648.54371,901.64125 c -0.27625,0.2275 -0.43875,0.30875 -0.69875,0.30875 -0.2925,0 -0.50375,-0.325 -0.50375,-1.0725 l 0,-3.10375 c 0,-0.99125 -0.065,-1.3325 -0.455,-1.80375 -0.39,-0.47125 -1.0075,-0.73125 -1.9175,-0.73125 -0.73125,0 -1.41375,0.195 -1.86875,0.4875 -0.56875,0.3575 -0.82875,0.8775 -0.82875,1.3 0,0.43875 0.3575,0.7475 0.69875,0.7475 0.4225,0 0.7475,-0.3575 0.7475,-0.66625 0,-0.34125 -0.0975,-0.39 -0.0975,-0.6825 0,-0.43875 0.4875,-0.79625 1.1375,-0.79625 0.73125,0 1.2675,0.455 1.2675,1.4625 l 0,0.8775 c -1.83625,0.6825 -2.4375,0.99125 -2.925,1.31625 -0.63375,0.4225 -1.1375,1.05625 -1.1375,1.90125 0,1.0725 0.69875,1.69 1.70625,1.69 0.69875,0 1.495,-0.21125 2.35625,-1.18625 l 0.0163,0 c 0.0813,0.86125 0.43875,1.18625 1.04,1.18625 0.5525,0 0.975,-0.1625 1.4625,-0.78 l 0,-0.455 z M 646.02496,900.65 c 0,0.47125 -0.0975,0.69875 -0.56875,1.02375 -0.27625,0.17875 -0.6175,0.26 -0.9425,0.26 -0.63375,0 -1.12125,-0.39 -1.12125,-1.25125 0,-0.50375 0.1625,-0.89375 0.5525,-1.25125 0.40625,-0.37375 1.0725,-0.715 2.08,-1.0725 l 0,2.29125 z"
         style="font-size:64.99999762%;baseline-shift:sub"
         id="path4267" />
      <path
         d="m 649.32253,881.21375 c 3.625,2.85 4.25,5.725 4.25,10.4 0,4.85 -0.7,7.2 -4.25,10.125 l 0.225,0.4 c 3.975,-2.425 6.175,-5.975 6.175,-10.6 0,-4.25 -2.275,-8.425 -6.1,-10.725 l -0.3,0.4 z"
         style=""
         id="path4269" />
    </g>
    <path
       style="fill:none;stroke:#000000;stroke-width:1;stroke-linecap:butt;stroke-linejoin:miter;stroke-miterlimit:4;stroke-dasharray:none;stroke-opacity:1"
       d="M 614.94522,873.3074 572.05478,807.41696"
       id="path5350"
       inkscape:connector-curvature="0" />
    <g
       style="font-style:normal;font-variant:normal;font-weight:normal;font-stretch:normal;font-size:25px;line-height:125%;font-family:STIXGeneral;-inkscape-font-specification:'STIXGeneral, Normal';text-align:start;letter-spacing:0px;word-spacing:0px;writing-mode:lr-tb;text-anchor:start;fill:#000000;fill-opacity:1;stroke:none"
       id="text6964-3-1">
      <path
         d="m 243.21277,466.38875 0,0.4 c 1.575,0.125 1.925,0.3 1.925,1.025 0,0.375 -0.1,0.975 -0.275,1.6 l -3.025,10.9 c -0.425,1.55 -0.7,1.8 -2.075,2 l 0,0.4 6.8,0 c 4.05,0 6.875,-1.65 6.875,-5 0,-1.775 -1,-3.1 -3.15,-3.75 l 0,-0.025 c 1.075,-0.225 2,-0.45 2.775,-0.975 0.9,-0.6 1.6,-1.475 1.6,-2.825 0,-2.475 -1.725,-3.75 -5.2,-3.75 l -6.25,0 z m 2.95,7.25 1.575,-5.6 c 0.25,-0.9 0.5,-0.9 1.475,-0.9 2.025,0 2.925,0.85 2.925,2.7 0,2.475 -1.75,3.8 -5.025,3.8 l -0.95,0 z m -0.25,0.8 c 1.575,0 2.65,0.125 3.15,0.3 0.95,0.325 1.675,1.425 1.675,2.975 0,2.775 -1.95,4.25 -4.825,4.25 -1.05,0 -1.675,-0.35 -1.675,-1.05 0,-0.325 0.375,-1.6 0.875,-3.5 l 0.8,-2.975 z"
         style="font-style:italic"
         id="path4272" />
      <path
         d="m 262.84597,486.73875 c -3.5,-2.925 -4.25,-5.75 -4.25,-10.4 0,-4.825 0.775,-7.15 4.25,-10.125 l -0.225,-0.4 c -4,2.375 -6.175,5.975 -6.175,10.6 0,4.25 2.15,8.475 6.1,10.725 l 0.3,-0.4 z"
         style=""
         id="path4274" />
      <path
         d="m 269.67058,473.83875 c -0.35,-1.7 -0.65,-2.15 -1.275,-2.15 -0.575,0 -1.4,0.175 -2.925,0.725 l -0.275,0.1 0.075,0.4 0.45,-0.125 c 0.475,-0.125 0.775,-0.175 0.975,-0.175 0.625,0 0.8,0.2 1.15,1.7 l 0.7,3.1 -2.05,2.9 c -0.525,0.75 -1,1.225 -1.275,1.225 -0.15,0 -0.4,-0.075 -0.65,-0.225 -0.325,-0.175 -0.575,-0.275 -0.8,-0.275 -0.5,0 -0.85,0.4 -0.85,0.9 0,0.65 0.475,1.05 1.25,1.05 0.775,0 1.275,-0.225 2.375,-1.7 l 2.2,-2.975 0.725,2.975 c 0.3,1.25 0.675,1.7 1.475,1.7 0.95,0 1.6,-0.6 3.05,-2.85 l -0.375,-0.225 c -0.2,0.25 -0.3,0.4 -0.525,0.7 -0.575,0.75 -0.85,1 -1.175,1 -0.35,0 -0.575,-0.325 -0.75,-1.025 l -0.8,-3.35 c -0.15,-0.6 -0.2,-0.95 -0.2,-1.125 1.1,-1.925 2,-3.025 2.45,-3.025 0.6,0 0.825,0.425 1.3,0.425 0.5,0 0.85,-0.375 0.85,-0.9 0,-0.55 -0.425,-0.925 -1.025,-0.925 -1.1,0 -2.025,0.9 -3.775,3.575 l -0.3,-1.425 z"
         style="font-style:italic"
         id="path4276" />
      <path
         d="m 276.75457,486.23875 c 1.725,-0.825 2.8,-2.4 2.8,-3.9 0,-1.3 -0.875,-2.175 -2,-2.175 -0.9,0 -1.5,0.575 -1.5,1.425 0,0.85 0.525,1.275 1.45,1.275 0.275,0 0.525,-0.1 0.725,-0.1 0.2,0 0.35,0.15 0.35,0.325 0,0.825 -0.7,1.75 -2.075,2.675 l 0.25,0.475 z"
         style=""
         id="path4278" />
      <path
         d="m 291.57957,477.13875 1.375,-5.4 -0.075,-0.05 -3.875,0.675 0,0.425 c 0.375,-0.05 0.575,-0.075 0.775,-0.075 0.5,0 0.95,0.125 0.95,0.65 0,0.525 -0.05,0.75 -0.4,2.05 l -2.025,7.3 1.9,0 c 1.25,-4.2 1.7,-5.2 2.775,-7.05 0.9,-1.525 1.6,-2.35 2.05,-2.35 0.175,0 0.25,0.1 0.4,0.35 0.225,0.375 0.425,0.65 0.875,0.65 0.75,0 1.175,-0.6 1.175,-1.35 0,-0.75 -0.475,-1.275 -1.175,-1.275 -0.575,0 -1.325,0.45 -1.975,1.125 -1.025,1.075 -1.875,2.4 -2.35,3.45 l -0.4,0.875 z"
         style="font-style:italic"
         id="path4280" />
      <path
         d="m 304.59886,485.4875 -0.2275,-0.0975 c -0.53625,0.91 -0.8775,1.08875 -1.56,1.08875 l -3.8025,0 2.68125,-2.86 c 1.44625,-1.5275 2.08,-2.74625 2.08,-4.03 0,-1.60875 -1.17,-2.86 -3.00625,-2.86 -1.99875,0 -3.03875,1.3325 -3.38,3.23375 l 0.34125,0.0813 c 0.65,-1.5925 1.21875,-2.1125 2.38875,-2.1125 1.38125,0 2.25875,0.8125 2.25875,2.29125 0,1.38125 -0.585,2.61625 -2.1125,4.225 l -2.8925,3.07125 0,0.195 6.35375,0 0.8775,-2.22625 z"
         style="font-size:64.99999762%;baseline-shift:sub"
         id="path4282" />
      <path
         d="m 305.74636,466.21375 c 3.625,2.85 4.25,5.725 4.25,10.4 0,4.85 -0.7,7.2 -4.25,10.125 l 0.225,0.4 c 3.975,-2.425 6.175,-5.975 6.175,-10.6 0,-4.25 -2.275,-8.425 -6.1,-10.725 l -0.3,0.4 z"
         style=""
         id="path4284" />
    </g>
    <path
       style="fill:none;stroke:#000000;stroke-width:1;stroke-linecap:butt;stroke-linejoin:miter;stroke-miterlimit:4;stroke-dasharray:none;stroke-opacity:1"
       d="m 286.27382,488.63601 21.61313,67.45234"
       id="path5572"
       inkscape:connector-curvature="0" />
    <g
       style="font-style:normal;font-variant:normal;font-weight:normal;font-stretch:normal;font-size:25px;line-height:125%;font-family:STIXGeneral;-inkscape-font-specification:'STIXGeneral, Normal';text-align:start;letter-spacing:0px;word-spacing:0px;writing-mode:lr-tb;text-anchor:start;fill:#000000;fill-opacity:1;stroke:none"
       id="text6964-3-1-7">
      <path
         d="m 426.34561,902.38875 0,0.4 c 1.575,0.125 1.925,0.3 1.925,1.025 0,0.375 -0.1,0.975 -0.275,1.6 l -3.025,10.9 c -0.425,1.55 -0.7,1.8 -2.075,2 l 0,0.4 6.8,0 c 4.05,0 6.875,-1.65 6.875,-5 0,-1.775 -1,-3.1 -3.15,-3.75 l 0,-0.025 c 1.075,-0.225 2,-0.45 2.775,-0.975 0.9,-0.6 1.6,-1.475 1.6,-2.825 0,-2.475 -1.725,-3.75 -5.2,-3.75 l -6.25,0 z m 2.95,7.25 1.575,-5.6 c 0.25,-0.9 0.5,-0.9 1.475,-0.9 2.025,0 2.925,0.85 2.925,2.7 0,2.475 -1.75,3.8 -5.025,3.8 l -0.95,0 z m -0.25,0.8 c 1.575,0 2.65,0.125 3.15,0.3 0.95,0.325 1.675,1.425 1.675,2.975 0,2.775 -1.95,4.25 -4.825,4.25 -1.05,0 -1.675,-0.35 -1.675,-1.05 0,-0.325 0.375,-1.6 0.875,-3.5 l 0.8,-2.975 z"
         style="font-style:italic"
         id="path4287" />
      <path
         d="m 445.97881,922.73875 c -3.5,-2.925 -4.25,-5.75 -4.25,-10.4 0,-4.825 0.775,-7.15 4.25,-10.125 l -0.225,-0.4 c -4,2.375 -6.175,5.975 -6.175,10.6 0,4.25 2.15,8.475 6.1,10.725 l 0.3,-0.4 z"
         style=""
         id="path4289" />
      <path
         d="m 452.80342,909.83875 c -0.35,-1.7 -0.65,-2.15 -1.275,-2.15 -0.575,0 -1.4,0.175 -2.925,0.725 l -0.275,0.1 0.075,0.4 0.45,-0.125 c 0.475,-0.125 0.775,-0.175 0.975,-0.175 0.625,0 0.8,0.2 1.15,1.7 l 0.7,3.1 -2.05,2.9 c -0.525,0.75 -1,1.225 -1.275,1.225 -0.15,0 -0.4,-0.075 -0.65,-0.225 -0.325,-0.175 -0.575,-0.275 -0.8,-0.275 -0.5,0 -0.85,0.4 -0.85,0.9 0,0.65 0.475,1.05 1.25,1.05 0.775,0 1.275,-0.225 2.375,-1.7 l 2.2,-2.975 0.725,2.975 c 0.3,1.25 0.675,1.7 1.475,1.7 0.95,0 1.6,-0.6 3.05,-2.85 l -0.375,-0.225 c -0.2,0.25 -0.3,0.4 -0.525,0.7 -0.575,0.75 -0.85,1 -1.175,1 -0.35,0 -0.575,-0.325 -0.75,-1.025 l -0.8,-3.35 c -0.15,-0.6 -0.2,-0.95 -0.2,-1.125 1.1,-1.925 2,-3.025 2.45,-3.025 0.6,0 0.825,0.425 1.3,0.425 0.5,0 0.85,-0.375 0.85,-0.9 0,-0.55 -0.425,-0.925 -1.025,-0.925 -1.1,0 -2.025,0.9 -3.775,3.575 l -0.3,-1.425 z"
         style="font-style:italic"
         id="path4291" />
      <path
         d="m 459.88741,922.23875 c 1.725,-0.825 2.8,-2.4 2.8,-3.9 0,-1.3 -0.875,-2.175 -2,-2.175 -0.9,0 -1.5,0.575 -1.5,1.425 0,0.85 0.525,1.275 1.45,1.275 0.275,0 0.525,-0.1 0.725,-0.1 0.2,0 0.35,0.15 0.35,0.325 0,0.825 -0.7,1.75 -2.075,2.675 l 0.25,0.475 z"
         style=""
         id="path4293" />
      <path
         d="m 474.71241,913.13875 1.375,-5.4 -0.075,-0.05 -3.875,0.675 0,0.425 c 0.375,-0.05 0.575,-0.075 0.775,-0.075 0.5,0 0.95,0.125 0.95,0.65 0,0.525 -0.05,0.75 -0.4,2.05 l -2.025,7.3 1.9,0 c 1.25,-4.2 1.7,-5.2 2.775,-7.05 0.9,-1.525 1.6,-2.35 2.05,-2.35 0.175,0 0.25,0.1 0.4,0.35 0.225,0.375 0.425,0.65 0.875,0.65 0.75,0 1.175,-0.6 1.175,-1.35 0,-0.75 -0.475,-1.275 -1.175,-1.275 -0.575,0 -1.325,0.45 -1.975,1.125 -1.025,1.075 -1.875,2.4 -2.35,3.45 l -0.4,0.875 z"
         style="font-style:italic"
         id="path4295" />
      <path
         d="m 486.43171,923.71375 0,-0.24375 c -1.21875,0 -1.54375,-0.2925 -1.54375,-0.99125 l 0,-9.70125 -0.14625,-0.0488 -2.90875,1.47875 0,0.2275 0.43875,-0.1625 c 0.2925,-0.11375 0.56875,-0.195 0.73125,-0.195 0.34125,0 0.4875,0.24375 0.4875,0.79625 l 0,7.29625 c 0,0.89375 -0.34125,1.235 -1.54375,1.3 l 0,0.24375 4.485,0 z"
         style="font-size:64.99999762%;baseline-shift:sub"
         id="path4297" />
      <path
         d="m 488.87921,902.21375 c 3.625,2.85 4.25,5.725 4.25,10.4 0,4.85 -0.7,7.2 -4.25,10.125 l 0.225,0.4 c 3.975,-2.425 6.175,-5.975 6.175,-10.6 0,-4.25 -2.275,-8.425 -6.1,-10.725 l -0.3,0.4 z"
         style=""
         id="path4299" />
    </g>
    <path
       style="fill:none;stroke:#000000;stroke-width:1px;stroke-linecap:butt;stroke-linejoin:miter;stroke-opacity:1"
       d="m 463,893.36218 -104,-231"
       id="path5790"
       inkscape:connector-curvature="0"
       sodipodi:nodetypes="cc" />
    <g
       style="font-style:normal;font-weight:normal;font-size:25px;line-height:125%;font-family:sans-serif;letter-spacing:0px;word-spacing:0px;fill:#000000;fill-opacity:1;stroke:none;stroke-width:1px;stroke-linecap:butt;stroke-linejoin:miter;stroke-opacity:1"
       id="text4215" />
  </g>
</svg>
