<?xml version="1.0" encoding="UTF-8" standalone="no"?>
<!-- Created with Inkscape (http://www.inkscape.org/) -->

<svg
   xmlns:dc="http://purl.org/dc/elements/1.1/"
   xmlns:cc="http://creativecommons.org/ns#"
   xmlns:rdf="http://www.w3.org/1999/02/22-rdf-syntax-ns#"
   xmlns:svg="http://www.w3.org/2000/svg"
   xmlns="http://www.w3.org/2000/svg"
   xmlns:sodipodi="http://sodipodi.sourceforge.net/DTD/sodipodi-0.dtd"
   xmlns:inkscape="http://www.inkscape.org/namespaces/inkscape"
   width="395.79736"
   height="338.33719"
   id="svg2"
   version="1.1"
   inkscape:version="0.91 r13725"
   sodipodi:docname="circle_open_sets.svg">
  <defs
     id="defs4" />
  <sodipodi:namedview
     id="base"
     pagecolor="#ffffff"
     bordercolor="#666666"
     borderopacity="1.0"
     inkscape:pageopacity="0.0"
     inkscape:pageshadow="2"
     inkscape:zoom="1.2280256"
     inkscape:cx="149.47395"
     inkscape:cy="197.45188"
     inkscape:document-units="px"
     inkscape:current-layer="layer1"
     showgrid="false"
     fit-margin-top="5"
     fit-margin-left="5"
     fit-margin-bottom="5"
     fit-margin-right="5"
     inkscape:window-width="1440"
     inkscape:window-height="851"
     inkscape:window-x="0"
     inkscape:window-y="1"
     inkscape:window-maximized="1" />
  <metadata
     id="metadata7">
    <rdf:RDF>
      <cc:Work
         rdf:about="">
        <dc:format>image/svg+xml</dc:format>
        <dc:type
           rdf:resource="http://purl.org/dc/dcmitype/StillImage" />
        <dc:title></dc:title>
      </cc:Work>
    </rdf:RDF>
  </metadata>
  <g
     inkscape:label="Layer 1"
     inkscape:groupmode="layer"
     id="layer1"
     transform="translate(-98.479563,-310.78627)">
    <path
       inkscape:connector-curvature="0"
       style="color:#000000;display:inline;overflow:visible;visibility:visible;fill:#f2f2f2;fill-opacity:1;fill-rule:nonzero;stroke:#000000;stroke-width:0.2;stroke-linecap:round;stroke-linejoin:round;stroke-miterlimit:4;stroke-dasharray:4.80000007, 4.80000007;stroke-dashoffset:0;stroke-opacity:1;marker:none;enable-background:accumulate"
       d="m 262.99385,461.66191 c -23.58821,-40.85598 -75.83819,-54.83344 -116.69417,-31.24523 -40.85598,23.58821 -54.849068,75.81112 -31.26086,116.6671 14.52913,25.16519 39.93588,40.13458 66.85043,42.41335 0.64504,8.55175 3.15701,17.09309 7.73186,25.01696 16.2924,28.21926 52.37623,37.8879 80.59549,21.5955 28.21927,-16.2924 37.8879,-52.37624 21.5955,-80.5955 -5.55561,-9.6226 -13.40588,-17.08764 -22.46752,-22.1024 8.2414,-22.85145 6.74631,-49.06504 -6.35073,-71.74978 z"
       id="path3755-48" />
    <path
       transform="matrix(0.5,0.8660254,-0.8660254,0.5,0,0)"
       style="color:#000000;display:inline;overflow:visible;visibility:visible;fill:#f2f2f2;fill-opacity:1;fill-rule:nonzero;stroke:#000000;stroke-width:0.2;stroke-linecap:round;stroke-linejoin:round;stroke-miterlimit:4;stroke-dasharray:4.80000007, 4.80000007;stroke-dashoffset:0;stroke-opacity:1;marker:none;enable-background:accumulate"
       d="m 691.40161,-131.59747 a 59,59 0 0 1 -59,58.999997 59,59 0 0 1 -59,-58.999997 59,59 0 0 1 59,-59 59,59 0 0 1 59,59 z"
       id="path3755" />
    <path
       inkscape:connector-curvature="0"
       style="color:#000000;display:inline;overflow:visible;visibility:visible;fill:none;stroke:#000000;stroke-width:0.2;stroke-linecap:round;stroke-linejoin:round;stroke-miterlimit:4;stroke-dasharray:none;stroke-dashoffset:0;stroke-opacity:1;marker:none;enable-background:accumulate"
       d="m 189.3926,419.00035 c 10.51196,-22.41868 27.75045,-41.95878 50.81989,-55.27793 59.99959,-34.64078 136.72078,-14.0834 171.36156,45.91619 2.71355,4.7 5.08839,9.50261 7.13209,14.37956"
       id="path5739" />
    <path
       inkscape:connector-curvature="0"
       style="color:#000000;display:inline;overflow:visible;visibility:visible;fill:none;stroke:#000000;stroke-width:1;stroke-linecap:round;stroke-linejoin:round;stroke-miterlimit:4;stroke-dasharray:6, 6;stroke-dashoffset:0;stroke-opacity:1;marker:none;enable-background:accumulate"
       d="M 298.28884,597.73709 C 256.6312,596.15373 216.67935,573.85253 194.29631,535.08397 172.97468,498.15382 172.56478,454.88872 189.3926,419.00035"
       id="path5737" />
    <path
       inkscape:connector-curvature="0"
       style="color:#000000;display:inline;overflow:visible;visibility:visible;fill:none;stroke:#000000;stroke-width:0.2;stroke-linecap:round;stroke-linejoin:round;stroke-miterlimit:4;stroke-dasharray:none;stroke-dashoffset:0;stroke-opacity:1;marker:none;enable-background:accumulate"
       d="m 410.23738,537.38924 c -10.58631,17.50386 -25.61207,32.66006 -44.57952,43.61093 l 0,0 c -21.23104,12.25774 -44.55581,17.60401 -67.36902,16.73692"
       id="path4450" />
    <path
       inkscape:connector-curvature="0"
       style="color:#000000;display:inline;overflow:visible;visibility:visible;fill:none;stroke:#000000;stroke-width:1;stroke-linecap:round;stroke-linejoin:round;stroke-miterlimit:4;stroke-dasharray:6, 6;stroke-dashoffset:0;stroke-opacity:1;marker:none;enable-background:accumulate"
       d="m 418.70614,424.01817 c 15.79835,37.7 11.80928,79.84246 -8.46876,113.37107"
       id="path2985" />
    <g
       style="font-style:normal;font-weight:normal;font-size:25px;line-height:125%;font-family:sans-serif;letter-spacing:0px;word-spacing:0px;fill:#000000;fill-opacity:1;stroke:none;stroke-width:1px;stroke-linecap:butt;stroke-linejoin:miter;stroke-opacity:1"
       id="text3345">
      <path
         d="m 307.08559,320.09627 -0.575,0 c -0.35,0.525 -0.575,0.65 -1.125,0.65 -0.325,0 -0.625,-0.075 -1.15,-0.275 -0.525,-0.225 -1.35,-0.35 -2.125,-0.35 -2.4,0 -4.45,1.475 -4.45,4.1 0,1.35 0.375,2.15 1.875,3.75 0.325,0.325 0.625,0.675 0.975,1.05 l 0.975,1.05 c 1.15,1.25 1.5,2 1.5,3.075 0,1.9 -1.35,3.2 -3.275,3.2 -2.1,0 -3.6,-1.725 -3.6,-4.175 0,-0.175 0,-0.35 0.05,-0.575 l -0.5,-0.05 -0.85,5.6 0.45,0 c 0.175,-0.575 0.575,-0.8 1.075,-0.8 0.275,0 0.5,0.05 1.175,0.3 1.15,0.4 1.825,0.575 2.6,0.575 2.875,0 5.05,-2.025 5.05,-4.875 0,-1.625 -0.55,-2.7 -2.825,-5 -2.275,-2.275 -2.475,-2.675 -2.475,-3.9 0,-1.575 1.075,-2.5 2.8,-2.5 2.425,0 2.975,1.525 2.975,4.075 l 0.45,0.075 1,-5 z"
         style="font-style:italic"
         id="path3361" />
      <path
         d="m 313.28809,326.77127 0,-0.24375 c -1.21875,0 -1.54375,-0.2925 -1.54375,-0.99125 l 0,-9.70125 -0.14625,-0.0487 -2.90875,1.47875 0,0.2275 0.43875,-0.1625 c 0.2925,-0.11375 0.56875,-0.195 0.73125,-0.195 0.34125,0 0.4875,0.24375 0.4875,0.79625 l 0,7.29625 c 0,0.89375 -0.34125,1.235 -1.54375,1.3 l 0,0.24375 4.485,0 z"
         style="font-size:64.99999762%;baseline-shift:super"
         id="path3363" />
    </g>
  </g>
</svg>
