<?xml version="1.0" encoding="UTF-8" standalone="no"?>
<!-- Created with Inkscape (http://www.inkscape.org/) -->

<svg
   xmlns:dc="http://purl.org/dc/elements/1.1/"
   xmlns:cc="http://creativecommons.org/ns#"
   xmlns:rdf="http://www.w3.org/1999/02/22-rdf-syntax-ns#"
   xmlns:svg="http://www.w3.org/2000/svg"
   xmlns="http://www.w3.org/2000/svg"
   xmlns:sodipodi="http://sodipodi.sourceforge.net/DTD/sodipodi-0.dtd"
   xmlns:inkscape="http://www.inkscape.org/namespaces/inkscape"
   width="1167.929"
   height="170.90625"
   id="svg6614"
   version="1.1"
   inkscape:version="0.48.4 r9939"
   sodipodi:docname="cylinder_to_torus.svg">
  <defs
     id="defs6616">
    <marker
       inkscape:stockid="Arrow1Lend"
       orient="auto"
       refY="0"
       refX="0"
       id="Arrow1Lend"
       style="overflow:visible">
      <path
         id="path3837"
         d="M 0,0 5,-5 -12.5,0 5,5 0,0 z"
         style="fill-rule:evenodd;stroke:#000000;stroke-width:1pt"
         transform="matrix(-0.8,0,0,-0.8,-10,0)"
         inkscape:connector-curvature="0" />
    </marker>
    <marker
       inkscape:stockid="Arrow1Lend"
       orient="auto"
       refY="0"
       refX="0"
       id="Arrow1Lend-1"
       style="overflow:visible">
      <path
         inkscape:connector-curvature="0"
         id="path3837-2"
         d="M 0,0 5,-5 -12.5,0 5,5 0,0 z"
         style="fill-rule:evenodd;stroke:#000000;stroke-width:1pt"
         transform="matrix(-0.8,0,0,-0.8,-10,0)" />
    </marker>
    <marker
       inkscape:stockid="Arrow1Lend"
       orient="auto"
       refY="0"
       refX="0"
       id="Arrow1Lend-8"
       style="overflow:visible">
      <path
         inkscape:connector-curvature="0"
         id="path3837-24"
         d="M 0,0 5,-5 -12.5,0 5,5 0,0 z"
         style="fill-rule:evenodd;stroke:#000000;stroke-width:1pt"
         transform="matrix(-0.8,0,0,-0.8,-10,0)" />
    </marker>
    <marker
       inkscape:stockid="Arrow1Lend"
       orient="auto"
       refY="0"
       refX="0"
       id="Arrow1Lend-7"
       style="overflow:visible">
      <path
         id="path3837-8"
         d="M 0,0 5,-5 -12.5,0 5,5 0,0 z"
         style="fill-rule:evenodd;stroke:#000000;stroke-width:1pt"
         transform="matrix(-0.8,0,0,-0.8,-10,0)"
         inkscape:connector-curvature="0" />
    </marker>
    <marker
       inkscape:stockid="Arrow1Lend"
       orient="auto"
       refY="0"
       refX="0"
       id="Arrow1Lend-78"
       style="overflow:visible">
      <path
         id="path3837-0"
         d="M 0,0 5,-5 -12.5,0 5,5 0,0 z"
         style="fill-rule:evenodd;stroke:#000000;stroke-width:1pt"
         transform="matrix(-0.8,0,0,-0.8,-10,0)"
         inkscape:connector-curvature="0" />
    </marker>
  </defs>
  <sodipodi:namedview
     id="base"
     pagecolor="#ffffff"
     bordercolor="#666666"
     borderopacity="1.0"
     inkscape:pageopacity="0.0"
     inkscape:pageshadow="2"
     inkscape:zoom="0.98994949"
     inkscape:cx="511.27174"
     inkscape:cy="155.30896"
     inkscape:document-units="px"
     inkscape:current-layer="layer1"
     showgrid="false"
     inkscape:window-width="1600"
     inkscape:window-height="851"
     inkscape:window-x="-8"
     inkscape:window-y="-8"
     inkscape:window-maximized="1"
     fit-margin-top="5"
     fit-margin-left="5"
     fit-margin-bottom="5"
     fit-margin-right="5" />
  <metadata
     id="metadata6619">
    <rdf:RDF>
      <cc:Work
         rdf:about="">
        <dc:format>image/svg+xml</dc:format>
        <dc:type
           rdf:resource="http://purl.org/dc/dcmitype/StillImage" />
        <dc:title></dc:title>
      </cc:Work>
    </rdf:RDF>
  </metadata>
  <g
     inkscape:label="Layer 1"
     inkscape:groupmode="layer"
     id="layer1"
     transform="translate(317.50948,-396.28508)">
    <g
       id="g3096">
      <path
         style="font-size:medium;font-style:normal;font-variant:normal;font-weight:normal;font-stretch:normal;text-indent:0;text-align:start;text-decoration:none;line-height:normal;letter-spacing:normal;word-spacing:normal;text-transform:none;direction:ltr;block-progression:tb;writing-mode:lr-tb;text-anchor:start;baseline-shift:baseline;color:#000000;fill:#000000;fill-opacity:1;stroke:none;stroke-width:1px;marker:none;visibility:visible;display:inline;overflow:visible;enable-background:accumulate;font-family:Sans;-inkscape-font-specification:Sans"
         d="m -197.53125,482.59375 0,1 58.59375,0 0,-1 -58.59375,0 z"
         id="path8019-1"
         inkscape:connector-curvature="0" />
      <path
         inkscape:connector-curvature="0"
         style="fill-rule:evenodd;stroke:#000000;stroke-width:0.8pt"
         d="m -148.93162,483.1064 -4,4 14,-4 -14,-4 4,4 z"
         id="path3100" />
    </g>
    <path
       style="color:#000000;fill:#f2f2f2;fill-opacity:1;fill-rule:nonzero;stroke:#000000;stroke-width:1.5;stroke-linecap:round;stroke-linejoin:round;stroke-miterlimit:4;stroke-opacity:1;stroke-dasharray:none;stroke-dashoffset:0;marker:none;visibility:visible;display:inline;overflow:visible;enable-background:accumulate"
       d="m 678.32577,402.03508 c -91.86519,0 -166.34375,35.70001 -166.34375,79.71875 0,44.01874 74.47856,79.6875 166.34375,79.6875 91.86518,0 166.34375,-35.66876 166.34375,-79.6875 0,-44.01874 -74.47857,-79.71875 -166.34375,-79.71875 z m -3.34375,56.4375 c 1.11293,-0.0167 2.2168,0 3.34375,0 36.06227,0 65.3125,8.63801 65.3125,19.3125 0,10.67449 -29.25023,19.34375 -65.3125,19.34375 -36.06228,0 -65.28125,-8.66926 -65.28125,-19.34375 0,-10.34091 27.43678,-18.79484 61.9375,-19.3125 z"
       id="path3972-4"
       inkscape:connector-curvature="0" />
    <g
       id="g8641"
       transform="translate(3.0007216,229.26788)"
       style="stroke-width:1.5;stroke-miterlimit:4;stroke-dasharray:none">
      <path
         transform="translate(-77.741135,386.20437)"
         id="path3972-4-8"
         d="m 341.4375,-211.875 c -91.86519,0 -166.34375,35.70001 -166.34375,79.71875 0,36.289477 50.62533,66.898943 119.875,76.53125 l 0,-66.90625 c -11.62782,-3.49394 -18.8125,-8.30396 -18.8125,-13.59375 0,-10.34091 27.43678,-18.79484 61.9375,-19.3125 1.11293,-0.0167 2.2168,0 3.34375,0 36.06228,0 65.3125,8.63801 65.3125,19.3125 0,5.29355 -7.19356,10.09918 -18.84375,13.59375 l 0,0.625 c -0.27593,-0.0461 -0.56433,-0.0696 -0.84375,-0.0625 -6.55821,0.16553 -11.49243,15.17187 -11.03125,33.5 0.44178,17.557118 5.67002,31.790195 11.875,32.8125 l 0,0.03125 c 0.0426,-0.0059 0.0824,-0.0253 0.125,-0.03125 0.23401,0.03222 0.45103,0.06847 0.6875,0.0625 0.59234,-0.01495 1.18681,-0.157864 1.75,-0.40625 0.0214,-0.0094 0.0412,-0.02149 0.0625,-0.03125 67.89266,-10.03516 117.25,-40.298241 117.25,-76.125 0,-44.01874 -74.47856,-79.71875 -166.34375,-79.71875 z"
         style="color:#000000;fill:#f2f2f2;fill-opacity:1;fill-rule:nonzero;stroke:#000000;stroke-width:1.5;stroke-linecap:round;stroke-linejoin:round;stroke-miterlimit:4;stroke-opacity:1;stroke-dasharray:none;stroke-dashoffset:0;marker:none;visibility:visible;display:inline;overflow:visible;enable-background:accumulate"
         inkscape:connector-curvature="0" />
      <path
         transform="matrix(-0.0136635,0.5430163,-0.54676005,-0.01380032,441.03139,94.388872)"
         style="color:#000000;fill:#cccccc;fill-opacity:1;fill-rule:nonzero;stroke:#000000;stroke-width:2.75200081;stroke-linecap:butt;stroke-linejoin:round;stroke-dashoffset:0;stroke-opacity:1;marker:none;visibility:visible;display:inline;overflow:visible;enable-background:accumulate"
         d="m 444.46713,398.28842 c 0,11.99468 -27.36177,21.71828 -61.11422,21.71828 -33.75246,0 -61.11423,-9.7236 -61.11423,-21.71828 0,-11.99467 27.36177,-21.71828 61.11423,-21.71828 33.75245,0 61.11422,9.72361 61.11422,21.71828 z"
         id="path7851-3" />
    </g>
    <g
       id="g8731"
       transform="translate(-15.714286,-8.67295)">
      <path
         id="path7851-2"
         d="m -201.27409,455.41764 c 0,-0.15627 -0.13234,-0.28861 -0.2886,-0.28861 l -81.08034,0 c -0.15627,0 -0.27057,0.13234 -0.27057,0.28861 l 0,0.0541 c -0.19574,-0.0253 -0.37923,-0.0541 -0.57721,-0.0541 -6.92476,0 -12.55438,15.6709 -12.55438,34.99352 0,19.32261 5.62962,34.99351 12.55438,34.99351 0.19798,0 0.38147,-0.0288 0.57721,-0.0541 l 0,0.0541 c 0,0.15627 0.1143,0.28861 0.27057,0.28861 l 81.08034,0 c 0.15626,0 0.2886,-0.13234 0.2886,-0.28861 l 0,-69.98703 z"
         style="color:#000000;fill:#f2f2f2;fill-opacity:0.94901961;fill-rule:nonzero;stroke:#000000;stroke-width:1.5;stroke-linecap:butt;stroke-linejoin:round;stroke-miterlimit:4;stroke-opacity:1;stroke-dasharray:none;stroke-dashoffset:0;marker:none;visibility:visible;display:inline;overflow:visible;enable-background:accumulate"
         inkscape:connector-curvature="0" />
      <path
         transform="matrix(0,0.57248023,-0.57731938,0,28.65444,270.95036)"
         style="color:#000000;fill:#cccccc;fill-opacity:1;fill-rule:nonzero;stroke:#000000;stroke-width:2.6091733;stroke-linecap:butt;stroke-linejoin:round;stroke-miterlimit:4;stroke-dashoffset:0;stroke-opacity:1;marker:none;visibility:visible;display:inline;overflow:visible;enable-background:accumulate"
         d="m 444.46713,398.28842 c 0,11.99468 -27.36177,21.71828 -61.11422,21.71828 -33.75246,0 -61.11423,-9.7236 -61.11423,-21.71828 0,-11.99467 27.36177,-21.71828 61.11423,-21.71828 33.75245,0 61.11422,9.72361 61.11422,21.71828 z"
         id="path7851" />
    </g>
    <path
       style="color:#000000;fill:#f2f2f2;fill-opacity:1;fill-rule:nonzero;stroke:#000000;stroke-width:1.5;stroke-linecap:round;stroke-linejoin:round;stroke-miterlimit:4;stroke-opacity:1;stroke-dasharray:none;stroke-dashoffset:0;marker:none;visibility:visible;display:inline;overflow:visible;enable-background:accumulate"
       d="m 263.4375,49.40625 c -21.2457,0 -41.53917,1.955714 -60.21875,5.4375 -0.75513,-0.108267 -1.54844,0.193209 -2.15625,0.375 -0.42477,0.08244 -0.85823,0.165942 -1.28125,0.25 l 0,0.53125 C 194.87169,59.706125 191.1628,71.768288 191,86.125 c -0.19683,17.35786 4.85696,31.4942 11.28125,31.5625 20.27883,-8.00046 39.64262,-11.46248 57.8125,-11.84375 1.11293,-0.0167 2.2168,0 3.34375,0 26.05417,0 48.55056,4.50394 59.03125,11.03125 l 5.09375,0 0,-61.3125 c -19.7343,-3.95542 -41.39794,-6.15625 -64.125,-6.15625 z"
       transform="translate(-317.50948,396.28508)"
       id="path3972-4-82"
       inkscape:connector-curvature="0"
       sodipodi:nodetypes="sccccsccscccs" />
    <g
       id="g3090">
      <path
         style="font-size:medium;font-style:normal;font-variant:normal;font-weight:normal;font-stretch:normal;text-indent:0;text-align:start;text-decoration:none;line-height:normal;letter-spacing:normal;word-spacing:normal;text-transform:none;direction:ltr;block-progression:tb;writing-mode:lr-tb;text-anchor:start;baseline-shift:baseline;color:#000000;fill:#000000;fill-opacity:1;stroke:none;stroke-width:1px;marker:none;visibility:visible;display:inline;overflow:visible;enable-background:accumulate;font-family:Sans;-inkscape-font-specification:Sans"
         d="m 31.53125,482.59375 0,1 58.59375,0 0,-1 -58.59375,0 z"
         id="path8019-1-2"
         inkscape:connector-curvature="0" />
      <path
         inkscape:connector-curvature="0"
         style="fill-rule:evenodd;stroke:#000000;stroke-width:0.8pt"
         d="m 80.124719,483.1064 -4,4 14,-4 -14,-4 4,4 z"
         id="path3094" />
    </g>
    <g
       id="g3084">
      <path
         style="font-size:medium;font-style:normal;font-variant:normal;font-weight:normal;font-stretch:normal;text-indent:0;text-align:start;text-decoration:none;line-height:normal;letter-spacing:normal;word-spacing:normal;text-transform:none;direction:ltr;block-progression:tb;writing-mode:lr-tb;text-anchor:start;baseline-shift:baseline;color:#000000;fill:#000000;fill-opacity:1;stroke:none;stroke-width:1px;marker:none;visibility:visible;display:inline;overflow:visible;enable-background:accumulate;font-family:Sans;-inkscape-font-specification:Sans"
         d="m 442.96875,482.59375 0,1 58.59375,0 0,-1 -58.59375,0 z"
         id="path8019-1-2-2"
         inkscape:connector-curvature="0" />
      <path
         inkscape:connector-curvature="0"
         style="fill-rule:evenodd;stroke:#000000;stroke-width:0.8pt"
         d="m 491.55329,483.1064 -4,4 14,-4 -14,-4 4,4 z"
         id="path3088" />
    </g>
    <path
       transform="matrix(0.00583168,0.51426953,0.53559483,-0.00569454,-206.78701,287.96494)"
       style="color:#000000;fill:#cccccc;fill-opacity:1;fill-rule:nonzero;stroke:#000000;stroke-width:2.6091733;stroke-linecap:butt;stroke-linejoin:round;stroke-miterlimit:4;stroke-dashoffset:0;stroke-opacity:1;marker:none;visibility:visible;display:inline;overflow:visible;enable-background:accumulate"
       d="m 444.46713,398.28842 c 0,11.99468 -27.36177,21.71828 -61.11422,21.71828 -33.75246,0 -61.11423,-9.7236 -61.11423,-21.71828 0,-11.99467 27.36177,-21.71828 61.11423,-21.71828 33.75245,0 61.11422,9.72361 61.11422,21.71828 z"
       id="path7851-27-1" />
  </g>
</svg>
