<?xml version="1.0" encoding="UTF-8" standalone="no"?>
<!-- Created with Inkscape (http://www.inkscape.org/) -->

<svg
   xmlns:dc="http://purl.org/dc/elements/1.1/"
   xmlns:cc="http://creativecommons.org/ns#"
   xmlns:rdf="http://www.w3.org/1999/02/22-rdf-syntax-ns#"
   xmlns:svg="http://www.w3.org/2000/svg"
   xmlns="http://www.w3.org/2000/svg"
   xmlns:sodipodi="http://sodipodi.sourceforge.net/DTD/sodipodi-0.dtd"
   xmlns:inkscape="http://www.inkscape.org/namespaces/inkscape"
   width="116.75452mm"
   height="87.696617mm"
   viewBox="0 0 413.69713 310.73605"
   id="svg6384"
   version="1.1"
   inkscape:version="0.91 r13725"
   sodipodi:docname="dominoes_falling.svg">
  <defs
     id="defs6386" />
  <sodipodi:namedview
     id="base"
     pagecolor="#ffffff"
     bordercolor="#666666"
     borderopacity="1.0"
     inkscape:pageopacity="0.0"
     inkscape:pageshadow="2"
     inkscape:zoom="1.4000714"
     inkscape:cx="270.40561"
     inkscape:cy="131.57872"
     inkscape:document-units="px"
     inkscape:current-layer="layer1"
     showgrid="false"
     fit-margin-top="5"
     fit-margin-right="5"
     fit-margin-left="5"
     fit-margin-bottom="5"
     inkscape:window-width="1440"
     inkscape:window-height="851"
     inkscape:window-x="0"
     inkscape:window-y="1"
     inkscape:window-maximized="1" />
  <metadata
     id="metadata6389">
    <rdf:RDF>
      <cc:Work
         rdf:about="">
        <dc:format>image/svg+xml</dc:format>
        <dc:type
           rdf:resource="http://purl.org/dc/dcmitype/StillImage" />
        <dc:title></dc:title>
      </cc:Work>
    </rdf:RDF>
  </metadata>
  <g
     inkscape:label="Layer 1"
     inkscape:groupmode="layer"
     id="layer1"
     transform="translate(-18.66004,-233.61902)">
    <g
       id="g8148"
       transform="translate(1.1061853,0)">
      <path
         style="fill:#000000;fill-opacity:1;stroke:none;stroke-width:0.78500003;stroke-linecap:round;stroke-linejoin:miter;stroke-miterlimit:4;stroke-dasharray:0.785, 3.14;stroke-dashoffset:0;stroke-opacity:1"
         d="m 331.07941,251.33556 11.21491,0 0,59.21491 -11.21491,0 z"
         id="rect6943" />
      <path
         style="fill:#000000;fill-opacity:1;stroke:none;stroke-width:0.78500003;stroke-linecap:round;stroke-linejoin:miter;stroke-miterlimit:4;stroke-dasharray:0.785, 3.14;stroke-dashoffset:0;stroke-opacity:1"
         d="m 297.36731,251.33556 11.21491,0 0,59.21491 -11.21491,0 z"
         id="rect6945" />
      <path
         style="fill:#000000;fill-opacity:1;stroke:none;stroke-width:0.78500003;stroke-linecap:round;stroke-linejoin:miter;stroke-miterlimit:4;stroke-dasharray:0.785, 3.14;stroke-dashoffset:0;stroke-opacity:1"
         d="m 263.65518,251.33556 11.21492,0 0,59.21491 -11.21492,0 z"
         id="rect6947" />
      <path
         style="fill:#000000;fill-opacity:1;stroke:none;stroke-width:0.78500003;stroke-linecap:round;stroke-linejoin:miter;stroke-miterlimit:4;stroke-dasharray:0.785, 3.14;stroke-dashoffset:0;stroke-opacity:1"
         d="m 229.94305,251.33556 11.21492,0 0,59.21491 -11.21492,0 z"
         id="rect6949" />
      <path
         style="fill:#000000;fill-opacity:1;stroke:none;stroke-width:0.78500003;stroke-linecap:round;stroke-linejoin:miter;stroke-miterlimit:4;stroke-dasharray:0.785, 3.14;stroke-dashoffset:0;stroke-opacity:1"
         d="m 196.23093,251.33556 11.21491,0 0,59.21491 -11.21491,0 z"
         id="rect6951" />
      <path
         style="fill:#000000;fill-opacity:1;stroke:none;stroke-width:0.78500003;stroke-linecap:round;stroke-linejoin:miter;stroke-miterlimit:4;stroke-dasharray:0.785, 3.14;stroke-dashoffset:0;stroke-opacity:1"
         d="m 162.51883,251.33556 11.21491,0 0,59.21491 -11.21491,0 z"
         id="rect6953" />
      <path
         style="fill:#000000;fill-opacity:1;stroke:none;stroke-width:0.78500003;stroke-linecap:round;stroke-linejoin:miter;stroke-miterlimit:4;stroke-dasharray:0.785, 3.14;stroke-dashoffset:0;stroke-opacity:1"
         d="m 128.8067,251.33556 11.21492,0 0,59.21491 -11.21492,0 z"
         id="rect6955" />
      <path
         transform="matrix(0.89458105,0.44690575,-0.44690579,0.89458103,0,0)"
         style="fill:#000000;fill-opacity:1;stroke:none;stroke-width:0.78500003;stroke-linecap:round;stroke-linejoin:miter;stroke-miterlimit:4;stroke-dasharray:0.785, 3.14;stroke-dashoffset:0;stroke-opacity:1"
         d="m 218.88905,173.18524 11.21492,0 0,59.21491 -11.21492,0 z"
         id="rect6957" />
      <path
         style="fill:#000000;fill-opacity:1;stroke:none;stroke-width:0.78500003;stroke-linecap:round;stroke-linejoin:miter;stroke-miterlimit:4;stroke-dasharray:0.785, 3.14;stroke-dashoffset:0;stroke-opacity:1"
         d="m 364.79153,251.33556 11.21492,0 0,59.21491 -11.21492,0 z"
         id="rect6959" />
      <path
         inkscape:connector-curvature="0"
         d="m 392.341,280.96542 c 0,-1.2 -1.04,-2.28 -2.2,-2.28 -1.24,0 -2.24,1 -2.24,2.24 0,1.24 0.96,2.2 2.2,2.2 1.2,0 2.24,-1 2.24,-2.16 z"
         id="path7802"
         style="font-style:normal;font-variant:normal;font-weight:normal;font-stretch:normal;font-size:medium;line-height:125%;font-family:STIXGeneral;-inkscape-font-specification:STIXGeneral;letter-spacing:0px;word-spacing:0px;fill:#000000;fill-opacity:1;stroke:none;stroke-width:1px;stroke-linecap:butt;stroke-linejoin:miter;stroke-opacity:1" />
      <path
         inkscape:connector-curvature="0"
         d="m 402.341,280.96542 c 0,-1.2 -1.04,-2.28 -2.2,-2.28 -1.24,0 -2.24,1 -2.24,2.24 0,1.24 0.96,2.2 2.2,2.2 1.2,0 2.24,-1 2.24,-2.16 z"
         id="path7804"
         style="font-style:normal;font-variant:normal;font-weight:normal;font-stretch:normal;font-size:medium;line-height:125%;font-family:STIXGeneral;-inkscape-font-specification:STIXGeneral;letter-spacing:0px;word-spacing:0px;fill:#000000;fill-opacity:1;stroke:none;stroke-width:1px;stroke-linecap:butt;stroke-linejoin:miter;stroke-opacity:1" />
      <path
         inkscape:connector-curvature="0"
         d="m 412.341,280.96542 c 0,-1.2 -1.04,-2.28 -2.2,-2.28 -1.24,0 -2.24,1 -2.24,2.24 0,1.24 0.96,2.2 2.2,2.2 1.2,0 2.24,-1 2.24,-2.16 z"
         id="path7806"
         style="font-style:normal;font-variant:normal;font-weight:normal;font-stretch:normal;font-size:medium;line-height:125%;font-family:STIXGeneral;-inkscape-font-specification:STIXGeneral;letter-spacing:0px;word-spacing:0px;fill:#000000;fill-opacity:1;stroke:none;stroke-width:1px;stroke-linecap:butt;stroke-linejoin:miter;stroke-opacity:1" />
    </g>
    <g
       transform="matrix(0,-1,1,0,-44.040363,816.40769)"
       id="g7938"
       style="font-style:normal;font-variant:normal;font-weight:normal;font-stretch:normal;font-size:40px;line-height:125%;font-family:STIXGeneral;-inkscape-font-specification:STIXGeneral;letter-spacing:0px;word-spacing:0px;fill:#000000;fill-opacity:1;stroke:none;stroke-width:1px;stroke-linecap:butt;stroke-linejoin:miter;stroke-opacity:1">
      <path
         id="path7940"
         d="m 394.10868,280.96542 c 0,-1.2 -1.04,-2.28 -2.2,-2.28 -1.24,0 -2.24,1 -2.24,2.24 0,1.24 0.96,2.2 2.2,2.2 1.2,0 2.24,-1 2.24,-2.16 z"
         inkscape:connector-curvature="0" />
      <path
         id="path7942"
         d="m 404.10868,280.96542 c 0,-1.2 -1.04,-2.28 -2.2,-2.28 -1.24,0 -2.24,1 -2.24,2.24 0,1.24 0.96,2.2 2.2,2.2 1.2,0 2.24,-1 2.24,-2.16 z"
         inkscape:connector-curvature="0" />
      <path
         id="path7944"
         d="m 414.10868,280.96542 c 0,-1.2 -1.04,-2.28 -2.2,-2.28 -1.24,0 -2.24,1 -2.24,2.24 0,1.24 0.96,2.2 2.2,2.2 1.2,0 2.24,-1 2.24,-2.16 z"
         inkscape:connector-curvature="0" />
    </g>
    <g
       style="font-style:normal;font-variant:normal;font-weight:normal;font-stretch:normal;font-size:40px;line-height:125%;font-family:STIXGeneral;-inkscape-font-specification:STIXGeneral;letter-spacing:0px;word-spacing:0px;fill:#000000;fill-opacity:1;stroke:none;stroke-width:1px;stroke-linecap:butt;stroke-linejoin:miter;stroke-opacity:1"
       id="g7946"
       transform="matrix(0,-0.99999973,0.9999999,0,-44.040353,916.30711)">
      <path
         inkscape:connector-curvature="0"
         d="m 394.10868,280.96542 c 0,-1.2 -1.04,-2.28 -2.2,-2.28 -1.24,0 -2.24,1 -2.24,2.24 0,1.24 0.96,2.2 2.2,2.2 1.2,0 2.24,-1 2.24,-2.16 z"
         id="path7948" />
      <path
         inkscape:connector-curvature="0"
         d="m 404.10868,280.96542 c 0,-1.2 -1.04,-2.28 -2.2,-2.28 -1.24,0 -2.24,1 -2.24,2.24 0,1.24 0.96,2.2 2.2,2.2 1.2,0 2.24,-1 2.24,-2.16 z"
         id="path7950" />
      <path
         inkscape:connector-curvature="0"
         d="m 414.10868,280.96542 c 0,-1.2 -1.04,-2.28 -2.2,-2.28 -1.24,0 -2.24,1 -2.24,2.24 0,1.24 0.96,2.2 2.2,2.2 1.2,0 2.24,-1 2.24,-2.16 z"
         id="path7952" />
    </g>
    <g
       id="g8133"
       transform="translate(1.2429038,0)">
      <path
         style="fill:#000000;fill-opacity:1;stroke:none;stroke-width:0.78500003;stroke-linecap:round;stroke-linejoin:miter;stroke-miterlimit:4;stroke-dasharray:0.785, 3.14;stroke-dashoffset:0;stroke-opacity:1"
         d="m 331.07941,328.28506 11.21491,0 0,59.21492 -11.21491,0 z"
         id="rect7868" />
      <path
         style="fill:#000000;fill-opacity:1;stroke:none;stroke-width:0.78500003;stroke-linecap:round;stroke-linejoin:miter;stroke-miterlimit:4;stroke-dasharray:0.785, 3.14;stroke-dashoffset:0;stroke-opacity:1"
         d="m 297.36731,328.28506 11.21491,0 0,59.21492 -11.21491,0 z"
         id="rect7870" />
      <path
         style="fill:#000000;fill-opacity:1;stroke:none;stroke-width:0.78500003;stroke-linecap:round;stroke-linejoin:miter;stroke-miterlimit:4;stroke-dasharray:0.785, 3.14;stroke-dashoffset:0;stroke-opacity:1"
         d="m 263.65518,328.28506 11.21492,0 0,59.21492 -11.21492,0 z"
         id="rect7872" />
      <path
         style="fill:#000000;fill-opacity:1;stroke:none;stroke-width:0.78500003;stroke-linecap:round;stroke-linejoin:miter;stroke-miterlimit:4;stroke-dasharray:0.785, 3.14;stroke-dashoffset:0;stroke-opacity:1"
         d="m 229.94305,328.28506 11.21492,0 0,59.21492 -11.21492,0 z"
         id="rect7874" />
      <path
         style="fill:#000000;fill-opacity:1;stroke:none;stroke-width:0.78500003;stroke-linecap:round;stroke-linejoin:miter;stroke-miterlimit:4;stroke-dasharray:0.785, 3.14;stroke-dashoffset:0;stroke-opacity:1"
         d="m 196.23093,328.28506 11.21491,0 0,59.21492 -11.21491,0 z"
         id="rect7876" />
      <path
         style="fill:#000000;fill-opacity:1;stroke:none;stroke-width:0.78500003;stroke-linecap:round;stroke-linejoin:miter;stroke-miterlimit:4;stroke-dasharray:0.785, 3.14;stroke-dashoffset:0;stroke-opacity:1"
         d="m 162.51883,328.28506 11.21491,0 0,59.21492 -11.21491,0 z"
         id="rect7878" />
      <path
         transform="matrix(0.58772463,0.80906104,-0.80906107,0.58772458,0,0)"
         style="fill:#000000;fill-opacity:1;stroke:none;stroke-width:0.78500003;stroke-linecap:round;stroke-linejoin:miter;stroke-miterlimit:4;stroke-dasharray:0.785, 3.14;stroke-dashoffset:0;stroke-opacity:1"
         d="m 355.62973,94.212593 11.21492,0 0,59.214917 -11.21492,0 z"
         id="rect7882" />
      <path
         style="fill:#000000;fill-opacity:1;stroke:none;stroke-width:0.78500003;stroke-linecap:round;stroke-linejoin:miter;stroke-miterlimit:4;stroke-dasharray:0.785, 3.14;stroke-dashoffset:0;stroke-opacity:1"
         d="m 364.79153,328.28506 11.21492,0 0,59.21492 -11.21492,0 z"
         id="rect7884" />
      <g
         transform="translate(-1.7676769,76.949498)"
         style="font-style:normal;font-variant:normal;font-weight:normal;font-stretch:normal;font-size:40px;line-height:125%;font-family:STIXGeneral;-inkscape-font-specification:STIXGeneral;letter-spacing:0px;word-spacing:0px;fill:#000000;fill-opacity:1;stroke:none;stroke-width:1px;stroke-linecap:butt;stroke-linejoin:miter;stroke-opacity:1"
         id="g7886">
        <path
           d="m 394.10868,280.96542 c 0,-1.2 -1.04,-2.28 -2.2,-2.28 -1.24,0 -2.24,1 -2.24,2.24 0,1.24 0.96,2.2 2.2,2.2 1.2,0 2.24,-1 2.24,-2.16 z"
           id="path7888"
           inkscape:connector-curvature="0" />
        <path
           d="m 404.10868,280.96542 c 0,-1.2 -1.04,-2.28 -2.2,-2.28 -1.24,0 -2.24,1 -2.24,2.24 0,1.24 0.96,2.2 2.2,2.2 1.2,0 2.24,-1 2.24,-2.16 z"
           id="path7890"
           inkscape:connector-curvature="0" />
        <path
           d="m 414.10868,280.96542 c 0,-1.2 -1.04,-2.28 -2.2,-2.28 -1.24,0 -2.24,1 -2.24,2.24 0,1.24 0.96,2.2 2.2,2.2 1.2,0 2.24,-1 2.24,-2.16 z"
           id="path7892"
           inkscape:connector-curvature="0" />
      </g>
      <path
         transform="matrix(0.89458105,0.44690575,-0.44690579,0.89458103,0,0)"
         style="fill:#000000;fill-opacity:1;stroke:none;stroke-width:0.78500003;stroke-linecap:round;stroke-linejoin:miter;stroke-miterlimit:4;stroke-dasharray:0.785, 3.14;stroke-dashoffset:0;stroke-opacity:1"
         d="m 283.10638,227.09305 11.21492,0 0,59.21491 -11.21492,0 z"
         id="rect8062" />
    </g>
    <g
       id="g8162"
       transform="translate(2.299649,0)">
      <path
         style="fill:#000000;fill-opacity:1;stroke:none;stroke-width:0.78500003;stroke-linecap:round;stroke-linejoin:miter;stroke-miterlimit:4;stroke-dasharray:0.785, 3.14;stroke-dashoffset:0;stroke-opacity:1"
         d="m 363.93713,427.79352 11.21492,0 0,59.2149 -11.21492,0 z"
         id="rect8075" />
      <path
         transform="matrix(0.89458109,0.44690567,-0.44690586,0.89458099,0,0)"
         style="fill:#000000;fill-opacity:1;stroke:none;stroke-width:0.78500003;stroke-linecap:round;stroke-linejoin:miter;stroke-miterlimit:4;stroke-dasharray:0.785, 3.14;stroke-dashoffset:0;stroke-opacity:1"
         d="m 507.76254,226.09656 11.21492,0 0,59.21489 -11.21492,0 z"
         id="rect8079" />
      <g
         id="g8120">
        <g
           style="font-style:normal;font-variant:normal;font-weight:normal;font-stretch:normal;font-size:40px;line-height:125%;font-family:STIXGeneral;-inkscape-font-specification:STIXGeneral;letter-spacing:0px;word-spacing:0px;fill:#000000;fill-opacity:1;stroke:none;stroke-width:1px;stroke-linecap:butt;stroke-linejoin:miter;stroke-opacity:1"
           id="g7916"
           transform="translate(-1.7676668,176.99862)">
          <path
             inkscape:connector-curvature="0"
             d="m 394.10868,280.96542 c 0,-1.2 -1.04,-2.28 -2.2,-2.28 -1.24,0 -2.24,1 -2.24,2.24 0,1.24 0.96,2.2 2.2,2.2 1.2,0 2.24,-1 2.24,-2.16 z"
             id="path7918" />
          <path
             inkscape:connector-curvature="0"
             d="m 404.10868,280.96542 c 0,-1.2 -1.04,-2.28 -2.2,-2.28 -1.24,0 -2.24,1 -2.24,2.24 0,1.24 0.96,2.2 2.2,2.2 1.2,0 2.24,-1 2.24,-2.16 z"
             id="path7920" />
          <path
             inkscape:connector-curvature="0"
             d="m 414.10868,280.96542 c 0,-1.2 -1.04,-2.28 -2.2,-2.28 -1.24,0 -2.24,1 -2.24,2.24 0,1.24 0.96,2.2 2.2,2.2 1.2,0 2.24,-1 2.24,-2.16 z"
             id="path7922" />
        </g>
        <path
           transform="matrix(0.58772474,0.80906096,-0.80906116,0.58772446,0,0)"
           style="fill:#000000;fill-opacity:1;stroke:none;stroke-width:0.78500003;stroke-linecap:round;stroke-linejoin:miter;stroke-miterlimit:4;stroke-dasharray:0.785, 3.14;stroke-dashoffset:0;stroke-opacity:1"
           d="m 554.41223,-10.339096 11.21491,0 0,59.214905 -11.21491,0 z"
           id="rect8077" />
        <path
           transform="matrix(0.58772481,0.80906091,-0.80906121,0.58772439,0,0)"
           style="fill:#000000;fill-opacity:1;stroke:none;stroke-width:0.78500003;stroke-linecap:round;stroke-linejoin:miter;stroke-miterlimit:4;stroke-dasharray:0.785, 3.14;stroke-dashoffset:0;stroke-opacity:1"
           d="m 535.59192,15.568843 11.21491,0 0,59.214901 -11.21491,0 z"
           id="rect8108" />
        <path
           transform="matrix(0.58772481,0.80906091,-0.80906121,0.58772439,0,0)"
           style="fill:#000000;fill-opacity:1;stroke:none;stroke-width:0.78500003;stroke-linecap:round;stroke-linejoin:miter;stroke-miterlimit:4;stroke-dasharray:0.785, 3.14;stroke-dashoffset:0;stroke-opacity:1"
           d="m 516.77185,41.476723 11.21491,0 0,59.214897 -11.21491,0 z"
           id="rect8110" />
        <path
           transform="matrix(0.58772481,0.80906091,-0.80906121,0.58772439,0,0)"
           style="fill:#000000;fill-opacity:1;stroke:none;stroke-width:0.78500003;stroke-linecap:round;stroke-linejoin:miter;stroke-miterlimit:4;stroke-dasharray:0.785, 3.14;stroke-dashoffset:0;stroke-opacity:1"
           d="m 497.95178,67.384659 11.21491,0 0,59.214901 -11.21491,0 z"
           id="rect8112" />
        <path
           transform="matrix(0.58772481,0.80906091,-0.80906121,0.58772439,0,0)"
           style="fill:#000000;fill-opacity:1;stroke:none;stroke-width:0.78500003;stroke-linecap:round;stroke-linejoin:miter;stroke-miterlimit:4;stroke-dasharray:0.785, 3.14;stroke-dashoffset:0;stroke-opacity:1"
           d="m 479.13153,93.292542 11.21491,0 0,59.214898 -11.21491,0 z"
           id="rect8114" />
        <path
           transform="matrix(0.58772481,0.80906091,-0.80906121,0.58772439,0,0)"
           style="fill:#000000;fill-opacity:1;stroke:none;stroke-width:0.78500003;stroke-linecap:round;stroke-linejoin:miter;stroke-miterlimit:4;stroke-dasharray:0.785, 3.14;stroke-dashoffset:0;stroke-opacity:1"
           d="m 441.49115,145.10823 11.21491,0 0,59.2149 -11.21491,0 z"
           id="rect8116" />
        <path
           transform="matrix(0.58772481,0.80906091,-0.80906121,0.58772439,0,0)"
           style="fill:#000000;fill-opacity:1;stroke:none;stroke-width:0.78500003;stroke-linecap:round;stroke-linejoin:miter;stroke-miterlimit:4;stroke-dasharray:0.785, 3.14;stroke-dashoffset:0;stroke-opacity:1"
           d="m 460.3114,119.20045 11.21491,0 0,59.2149 -11.21491,0 z"
           id="rect8118" />
      </g>
    </g>
    <g
       style="font-style:normal;font-weight:normal;font-size:40px;line-height:125%;font-family:sans-serif;letter-spacing:0px;word-spacing:0px;fill:#000000;fill-opacity:1;stroke:none;stroke-width:1px;stroke-linecap:butt;stroke-linejoin:miter;stroke-opacity:1"
       id="text8182">
      <path
         d="m 48.651576,270.59804 -0.575,0 c -0.35,0.525 -0.575,0.65 -1.125,0.65 -0.325,0 -0.625,-0.075 -1.15,-0.275 -0.525,-0.225 -1.35,-0.35 -2.125,-0.35 -2.4,0 -4.45,1.475 -4.45,4.1 0,1.35 0.375,2.15 1.875,3.75 0.325,0.325 0.625,0.675 0.975,1.05 l 0.975,1.05 c 1.15,1.25 1.5,2 1.5,3.075 0,1.9 -1.35,3.2 -3.275,3.2 -2.1,0 -3.6,-1.725 -3.6,-4.175 0,-0.175 0,-0.35 0.05,-0.575 l -0.5,-0.05 -0.85,5.6 0.45,0 c 0.175,-0.575 0.575,-0.8 1.075,-0.8 0.275,0 0.5,0.05 1.175,0.3 1.15,0.4 1.825,0.575 2.6,0.575 2.875,0 5.05,-2.025 5.05,-4.875 0,-1.625 -0.55,-2.7 -2.825,-5 -2.275,-2.275 -2.475,-2.675 -2.475,-3.9 0,-1.575 1.075,-2.5 2.8,-2.5 2.425,0 2.975,1.525 2.975,4.075 l 0.45,0.075 1,-5 z"
         style="font-style:italic;font-variant:normal;font-weight:normal;font-stretch:normal;font-size:25px;font-family:STIXGeneral;-inkscape-font-specification:'STIXGeneral Italic'"
         id="path8247" />
      <path
         d="m 56.051576,291.29804 c -3.5,-2.925 -4.25,-5.75 -4.25,-10.4 0,-4.825 0.775,-7.15 4.25,-10.125 l -0.225,-0.4 c -4,2.375 -6.175,5.975 -6.175,10.6 0,4.25 2.15,8.475 6.1,10.725 l 0.3,-0.4 z"
         style="font-style:normal;font-variant:normal;font-weight:normal;font-stretch:normal;font-size:25px;font-family:STIXGeneral;-inkscape-font-specification:STIXGeneral"
         id="path8249" />
      <path
         d="m 66.651186,287.27304 0,-0.375 c -1.875,0 -2.375,-0.45 -2.375,-1.525 l 0,-14.925 -0.225,-0.075 -4.475,2.275 0,0.35 0.675,-0.25 c 0.45,-0.175 0.875,-0.3 1.125,-0.3 0.525,0 0.75,0.375 0.75,1.225 l 0,11.225 c 0,1.375 -0.525,1.9 -2.375,2 l 0,0.375 6.9,0 z"
         style="font-style:normal;font-variant:normal;font-weight:normal;font-stretch:normal;font-size:25px;font-family:STIXGeneral;-inkscape-font-specification:STIXGeneral"
         id="path8251" />
      <path
         d="m 70.026186,270.77304 c 3.625,2.85 4.25,5.725 4.25,10.4 0,4.85 -0.7,7.2 -4.25,10.125 l 0.225,0.4 c 3.975,-2.425 6.175,-5.975 6.175,-10.6 0,-4.25 -2.275,-8.425 -6.1,-10.725 l -0.3,0.4 z"
         style="font-style:normal;font-variant:normal;font-weight:normal;font-stretch:normal;font-size:25px;font-family:STIXGeneral;-inkscape-font-specification:STIXGeneral"
         id="path8253" />
    </g>
    <g
       style="font-style:normal;font-weight:normal;font-size:40px;line-height:125%;font-family:sans-serif;letter-spacing:0px;word-spacing:0px;fill:#000000;fill-opacity:1;stroke:none;stroke-width:1px;stroke-linecap:butt;stroke-linejoin:miter;stroke-opacity:1"
       id="text8188">
      <path
         d="m 48.651576,347.53481 -0.575,0 c -0.35,0.525 -0.575,0.65 -1.125,0.65 -0.325,0 -0.625,-0.075 -1.15,-0.275 -0.525,-0.225 -1.35,-0.35 -2.125,-0.35 -2.4,0 -4.45,1.475 -4.45,4.1 0,1.35 0.375,2.15 1.875,3.75 0.325,0.325 0.625,0.675 0.975,1.05 l 0.975,1.05 c 1.15,1.25 1.5,2 1.5,3.075 0,1.9 -1.35,3.2 -3.275,3.2 -2.1,0 -3.6,-1.725 -3.6,-4.175 0,-0.175 0,-0.35 0.05,-0.575 l -0.5,-0.05 -0.85,5.6 0.45,0 c 0.175,-0.575 0.575,-0.8 1.075,-0.8 0.275,0 0.5,0.05 1.175,0.3 1.15,0.4 1.825,0.575 2.6,0.575 2.875,0 5.05,-2.025 5.05,-4.875 0,-1.625 -0.55,-2.7 -2.825,-5 -2.275,-2.275 -2.475,-2.675 -2.475,-3.9 0,-1.575 1.075,-2.5 2.8,-2.5 2.425,0 2.975,1.525 2.975,4.075 l 0.45,0.075 1,-5 z"
         style="font-style:italic;font-variant:normal;font-weight:normal;font-stretch:normal;font-size:25px;font-family:STIXGeneral;-inkscape-font-specification:'STIXGeneral Italic'"
         id="path8256" />
      <path
         d="m 56.051576,368.23481 c -3.5,-2.925 -4.25,-5.75 -4.25,-10.4 0,-4.825 0.775,-7.15 4.25,-10.125 l -0.225,-0.4 c -4,2.375 -6.175,5.975 -6.175,10.6 0,4.25 2.15,8.475 6.1,10.725 l 0.3,-0.4 z"
         style="font-style:normal;font-variant:normal;font-weight:normal;font-stretch:normal;font-size:25px;font-family:STIXGeneral;-inkscape-font-specification:STIXGeneral"
         id="path8258" />
      <path
         d="m 68.651186,360.78481 -0.35,-0.15 c -0.825,1.4 -1.35,1.675 -2.4,1.675 l -5.85,0 4.125,-4.4 c 2.225,-2.35 3.2,-4.225 3.2,-6.2 0,-2.475 -1.8,-4.4 -4.625,-4.4 -3.075,0 -4.675,2.05 -5.2,4.975 l 0.525,0.125 c 1,-2.45 1.875,-3.25 3.675,-3.25 2.125,0 3.475,1.25 3.475,3.525 0,2.125 -0.9,4.025 -3.25,6.5 l -4.45,4.725 0,0.3 9.775,0 1.35,-3.425 z"
         style="font-style:normal;font-variant:normal;font-weight:normal;font-stretch:normal;font-size:25px;font-family:STIXGeneral;-inkscape-font-specification:STIXGeneral"
         id="path8260" />
      <path
         d="m 70.026186,347.70981 c 3.625,2.85 4.25,5.725 4.25,10.4 0,4.85 -0.7,7.2 -4.25,10.125 l 0.225,0.4 c 3.975,-2.425 6.175,-5.975 6.175,-10.6 0,-4.25 -2.275,-8.425 -6.1,-10.725 l -0.3,0.4 z"
         style="font-style:normal;font-variant:normal;font-weight:normal;font-stretch:normal;font-size:25px;font-family:STIXGeneral;-inkscape-font-specification:STIXGeneral"
         id="path8262" />
    </g>
    <g
       style="font-style:normal;font-weight:normal;font-size:40px;line-height:125%;font-family:sans-serif;letter-spacing:0px;word-spacing:0px;fill:#000000;fill-opacity:1;stroke:none;stroke-width:1px;stroke-linecap:butt;stroke-linejoin:miter;stroke-opacity:1"
       id="text8194">
      <path
         d="m 48.651576,447.04335 -0.575,0 c -0.35,0.525 -0.575,0.65 -1.125,0.65 -0.325,0 -0.625,-0.075 -1.15,-0.275 -0.525,-0.225 -1.35,-0.35 -2.125,-0.35 -2.4,0 -4.45,1.475 -4.45,4.1 0,1.35 0.375,2.15 1.875,3.75 0.325,0.325 0.625,0.675 0.975,1.05 l 0.975,1.05 c 1.15,1.25 1.5,2 1.5,3.075 0,1.9 -1.35,3.2 -3.275,3.2 -2.1,0 -3.6,-1.725 -3.6,-4.175 0,-0.175 0,-0.35 0.05,-0.575 l -0.5,-0.05 -0.85,5.6 0.45,0 c 0.175,-0.575 0.575,-0.8 1.075,-0.8 0.275,0 0.5,0.05 1.175,0.3 1.15,0.4 1.825,0.575 2.6,0.575 2.875,0 5.05,-2.025 5.05,-4.875 0,-1.625 -0.55,-2.7 -2.825,-5 -2.275,-2.275 -2.475,-2.675 -2.475,-3.9 0,-1.575 1.075,-2.5 2.8,-2.5 2.425,0 2.975,1.525 2.975,4.075 l 0.45,0.075 1,-5 z"
         style="font-style:italic;font-variant:normal;font-weight:normal;font-stretch:normal;font-size:25px;font-family:STIXGeneral;-inkscape-font-specification:'STIXGeneral Italic'"
         id="path8265" />
      <path
         d="m 56.051576,467.74335 c -3.5,-2.925 -4.25,-5.75 -4.25,-10.4 0,-4.825 0.775,-7.15 4.25,-10.125 l -0.225,-0.4 c -4,2.375 -6.175,5.975 -6.175,10.6 0,4.25 2.15,8.475 6.1,10.725 l 0.3,-0.4 z"
         style="font-style:normal;font-variant:normal;font-weight:normal;font-stretch:normal;font-size:25px;font-family:STIXGeneral;-inkscape-font-specification:STIXGeneral"
         id="path8267" />
      <path
         d="m 67.926186,459.84335 c 0,-2 -0.8,-3.35 -3.875,-5.4 2.475,-1.325 3.35,-2.175 3.35,-4.05 0,-1.95 -1.725,-3.575 -4.2,-3.575 -2.775,0 -4.85,1.5 -4.85,3.9 0,1.625 0.525,2.575 3.1,4.7 -2.675,1.875 -3.25,2.85 -3.25,4.575 0,2.35 1.975,4.075 4.8,4.075 3,0 4.925,-1.65 4.925,-4.225 z m -2.25,-9.45 c 0,1.55 -0.65,2.6 -2.35,3.6 -2.2,-1.3 -3.125,-2.45 -3.125,-4 0,-1.55 1.075,-2.475 2.75,-2.475 1.7,0 2.725,1.15 2.725,2.875 z m -2.1,6.525 c 1.7,1.15 2.45,2.15 2.45,3.7 0,1.625 -1.125,2.75 -2.75,2.75 -1.9,0 -3.175,-1.3 -3.175,-3.6 0,-1.625 0.525,-2.65 2,-3.85 l 1.475,1 z"
         style="font-style:normal;font-variant:normal;font-weight:normal;font-stretch:normal;font-size:25px;font-family:STIXGeneral;-inkscape-font-specification:STIXGeneral"
         id="path8269" />
      <path
         d="m 70.026186,447.21835 c 3.625,2.85 4.25,5.725 4.25,10.4 0,4.85 -0.7,7.2 -4.25,10.125 l 0.225,0.4 c 3.975,-2.425 6.175,-5.975 6.175,-10.6 0,-4.25 -2.275,-8.425 -6.1,-10.725 l -0.3,0.4 z"
         style="font-style:normal;font-variant:normal;font-weight:normal;font-stretch:normal;font-size:25px;font-family:STIXGeneral;-inkscape-font-specification:STIXGeneral"
         id="path8271" />
    </g>
  </g>
</svg>
