<?xml version="1.0" encoding="UTF-8" standalone="no"?>
<!-- Created with Inkscape (http://www.inkscape.org/) -->

<svg
   xmlns:dc="http://purl.org/dc/elements/1.1/"
   xmlns:cc="http://creativecommons.org/ns#"
   xmlns:rdf="http://www.w3.org/1999/02/22-rdf-syntax-ns#"
   xmlns:svg="http://www.w3.org/2000/svg"
   xmlns="http://www.w3.org/2000/svg"
   xmlns:sodipodi="http://sodipodi.sourceforge.net/DTD/sodipodi-0.dtd"
   xmlns:inkscape="http://www.inkscape.org/namespaces/inkscape"
   width="242.9639"
   height="211.75266"
   id="svg2"
   version="1.1"
   inkscape:version="0.91 r13725"
   sodipodi:docname="equilateral triangle.svg">
  <defs
     id="defs4" />
  <sodipodi:namedview
     id="base"
     pagecolor="#ffffff"
     bordercolor="#666666"
     borderopacity="1.0"
     inkscape:pageopacity="0.0"
     inkscape:pageshadow="2"
     inkscape:zoom="1"
     inkscape:cx="2.1248314"
     inkscape:cy="162.71001"
     inkscape:document-units="px"
     inkscape:current-layer="layer1"
     showgrid="false"
     inkscape:window-width="1440"
     inkscape:window-height="851"
     inkscape:window-x="0"
     inkscape:window-y="1"
     inkscape:window-maximized="1"
     fit-margin-top="5"
     fit-margin-left="5"
     fit-margin-bottom="5"
     fit-margin-right="5" />
  <metadata
     id="metadata7">
    <rdf:RDF>
      <cc:Work
         rdf:about="">
        <dc:format>image/svg+xml</dc:format>
        <dc:type
           rdf:resource="http://purl.org/dc/dcmitype/StillImage" />
        <dc:title></dc:title>
      </cc:Work>
    </rdf:RDF>
  </metadata>
  <g
     inkscape:label="Layer 1"
     inkscape:groupmode="layer"
     id="layer1"
     transform="translate(-70.875169,-101.20015)">
    <path
       transform="matrix(1.545854,0,0,1.545854,-10.812265,-114.07935)"
       style="fill:none;stroke:#000000;stroke-width:1.29378319;stroke-miterlimit:4;stroke-dasharray:none;stroke-opacity:1"
       inkscape:transform-center-y="-33.125422"
       d="m 205.65932,272.36218 -74.23075,0 -74.230746,0 37.115374,-64.28572 37.115372,-64.28571 37.11538,64.28571 z"
       id="path2985" />
    <g
       style="font-style:normal;font-variant:normal;font-weight:normal;font-stretch:normal;font-size:25px;line-height:125%;font-family:STIXGeneral;-inkscape-font-specification:'STIXGeneral, Normal';text-align:start;letter-spacing:0px;word-spacing:0px;writing-mode:lr-tb;text-anchor:start;fill:#000000;fill-opacity:1;stroke:none"
       id="text3755">
      <path
         d="m 195.89462,150.36218 0,-0.375 c -1.875,0 -2.375,-0.45 -2.375,-1.525 l 0,-14.925 -0.225,-0.075 -4.475,2.275 0,0.35 0.675,-0.25 c 0.45,-0.175 0.875,-0.3 1.125,-0.3 0.525,0 0.75,0.375 0.75,1.225 l 0,11.225 c 0,1.375 -0.525,1.9 -2.375,2 l 0,0.375 6.9,0 z"
         style=""
         id="path4142" />
    </g>
    <g
       style="font-style:normal;font-variant:normal;font-weight:normal;font-stretch:normal;font-size:25px;line-height:125%;font-family:STIXGeneral;-inkscape-font-specification:'STIXGeneral, Normal';text-align:start;letter-spacing:0px;word-spacing:0px;writing-mode:lr-tb;text-anchor:start;fill:#000000;fill-opacity:1;stroke:none"
       id="text3755-1">
      <path
         d="m 284.22109,294.48717 -0.35,-0.15 c -0.825,1.4 -1.35,1.675 -2.4,1.675 l -5.85,0 4.125,-4.4 c 2.225,-2.35 3.2,-4.225 3.2,-6.2 0,-2.475 -1.8,-4.4 -4.625,-4.4 -3.075,0 -4.675,2.05 -5.2,4.975 l 0.525,0.125 c 1,-2.45 1.875,-3.25 3.675,-3.25 2.125,0 3.475,1.25 3.475,3.525 0,2.125 -0.9,4.025 -3.25,6.5 l -4.45,4.725 0,0.3 9.775,0 1.35,-3.425 z"
         style=""
         id="path4145" />
    </g>
    <g
       style="font-style:normal;font-variant:normal;font-weight:normal;font-stretch:normal;font-size:25px;line-height:125%;font-family:STIXGeneral;-inkscape-font-specification:'STIXGeneral, Normal';text-align:start;letter-spacing:0px;word-spacing:0px;writing-mode:lr-tb;text-anchor:start;fill:#000000;fill-opacity:1;stroke:none"
       id="text3755-4">
      <path
         d="m 100.89609,284.98718 c 1.025,-1.85 2.175,-2.65 3.725,-2.65 1.65,0 2.7,0.85 2.7,2.55 0,1.525 -0.8,2.65 -2.025,3.35 -0.5,0.3 -1.15,0.575 -2.1,0.9 l 0,0.35 c 1.425,0 2,0.075 2.55,0.25 1.725,0.5 2.6,1.725 2.6,3.625 0,2.125 -1.4,3.825 -3.25,3.825 -0.7,0 -1.225,-0.125 -2.15,-0.775 -0.7,-0.5 -1.1,-0.65 -1.525,-0.65 -0.575,0 -1.025,0.375 -1.025,0.9 0,0.9 0.975,1.425 2.8,1.425 2.225,0 4.6,-0.725 5.8,-2.325 0.725,-0.95 1.15,-2.175 1.15,-3.5 0,-1.3 -0.4,-2.45 -1.1,-3.225 -0.525,-0.55 -0.975,-0.85 -2.075,-1.325 1.675,-1 2.325,-2.25 2.325,-3.45 0,-2.05 -1.575,-3.425 -3.9,-3.425 -2.6,0 -4.175,1.675 -4.9,4.05 l 0.4,0.1 z"
         style=""
         id="path4148" />
    </g>
  </g>
</svg>
