<?xml version="1.0" encoding="UTF-8" standalone="no"?>
<!-- Created with Inkscape (http://www.inkscape.org/) -->

<svg
   xmlns:dc="http://purl.org/dc/elements/1.1/"
   xmlns:cc="http://creativecommons.org/ns#"
   xmlns:rdf="http://www.w3.org/1999/02/22-rdf-syntax-ns#"
   xmlns:svg="http://www.w3.org/2000/svg"
   xmlns="http://www.w3.org/2000/svg"
   xmlns:sodipodi="http://sodipodi.sourceforge.net/DTD/sodipodi-0.dtd"
   xmlns:inkscape="http://www.inkscape.org/namespaces/inkscape"
   width="494.46371"
   height="211.75266"
   id="svg2"
   version="1.1"
   inkscape:version="0.91 r13725"
   sodipodi:docname="f_1.svg"
   inkscape:export-filename="C:\Users\shapie2\Documents\blog\groups and their basic properties\r_2.png"
   inkscape:export-xdpi="90"
   inkscape:export-ydpi="90">
  <defs
     id="defs4">
    <marker
       inkscape:stockid="Arrow2Lend"
       orient="auto"
       refY="0"
       refX="0"
       id="Arrow2Lend"
       style="overflow:visible">
      <path
         id="path4105"
         style="fill-rule:evenodd;stroke-width:0.625;stroke-linejoin:round"
         d="M 8.7185878,4.0337352 -2.2072895,0.01601326 8.7185884,-4.0017078 c -1.7454984,2.3720609 -1.7354408,5.6174519 -6e-7,8.035443 z"
         transform="matrix(-1.1,0,0,-1.1,-1.1,0)"
         inkscape:connector-curvature="0" />
    </marker>
    <marker
       inkscape:stockid="Arrow1Mend"
       orient="auto"
       refY="0"
       refX="0"
       id="Arrow1Mend"
       style="overflow:visible">
      <path
         id="path4093"
         d="M 0,0 5,-5 -12.5,0 5,5 0,0 Z"
         style="fill-rule:evenodd;stroke:#000000;stroke-width:1pt"
         transform="matrix(-0.4,0,0,-0.4,-4,0)"
         inkscape:connector-curvature="0" />
    </marker>
    <marker
       inkscape:stockid="Arrow1Lend"
       orient="auto"
       refY="0"
       refX="0"
       id="Arrow1Lend"
       style="overflow:visible">
      <path
         id="path4087"
         d="M 0,0 5,-5 -12.5,0 5,5 0,0 Z"
         style="fill-rule:evenodd;stroke:#000000;stroke-width:1pt"
         transform="matrix(-0.8,0,0,-0.8,-10,0)"
         inkscape:connector-curvature="0" />
    </marker>
  </defs>
  <sodipodi:namedview
     id="base"
     pagecolor="#ffffff"
     bordercolor="#666666"
     borderopacity="1.0"
     inkscape:pageopacity="0.0"
     inkscape:pageshadow="2"
     inkscape:zoom="1"
     inkscape:cx="75.124831"
     inkscape:cy="24.569783"
     inkscape:document-units="px"
     inkscape:current-layer="layer1"
     showgrid="false"
     inkscape:window-width="1440"
     inkscape:window-height="851"
     inkscape:window-x="0"
     inkscape:window-y="1"
     inkscape:window-maximized="1"
     fit-margin-top="5"
     fit-margin-left="5"
     fit-margin-bottom="5"
     fit-margin-right="5" />
  <metadata
     id="metadata7">
    <rdf:RDF>
      <cc:Work
         rdf:about="">
        <dc:format>image/svg+xml</dc:format>
        <dc:type
           rdf:resource="http://purl.org/dc/dcmitype/StillImage" />
        <dc:title></dc:title>
      </cc:Work>
    </rdf:RDF>
  </metadata>
  <g
     inkscape:label="Layer 1"
     inkscape:groupmode="layer"
     id="layer1"
     transform="translate(2.1248306,-84.985856)">
    <path
       transform="matrix(1.545854,0,0,1.545854,-83.812265,-130.29365)"
       style="fill:none;stroke:#000000;stroke-width:1.29378319;stroke-miterlimit:4;stroke-dasharray:none;stroke-opacity:1;marker-end:"
       inkscape:transform-center-y="-33.125422"
       d="m 205.65932,272.36218 -74.23075,0 -74.230746,0 37.115374,-64.28572 37.115372,-64.28571 37.11538,64.28571 z"
       id="path2985"
       inkscape:connector-curvature="0" />
    <g
       style="font-style:normal;font-variant:normal;font-weight:normal;font-stretch:normal;font-size:25px;line-height:125%;font-family:STIXGeneral;-inkscape-font-specification:'STIXGeneral, Normal';text-align:start;letter-spacing:0px;word-spacing:0px;writing-mode:lr-tb;text-anchor:start;fill:#000000;fill-opacity:1;stroke:none"
       id="text3755">
      <path
         d="m 122.89462,134.14789 0,-0.375 c -1.875,0 -2.375,-0.45 -2.375,-1.525 l 0,-14.925 -0.225,-0.075 -4.475,2.275 0,0.35 0.675,-0.25 c 0.45,-0.175 0.875,-0.3 1.125,-0.3 0.525,0 0.75,0.375 0.75,1.225 l 0,11.225 c 0,1.375 -0.525,1.9 -2.375,2 l 0,0.375 6.9,0 z"
         id="path4192"
         inkscape:connector-curvature="0" />
    </g>
    <g
       style="font-style:normal;font-variant:normal;font-weight:normal;font-stretch:normal;font-size:25px;line-height:125%;font-family:STIXGeneral;-inkscape-font-specification:'STIXGeneral, Normal';text-align:start;letter-spacing:0px;word-spacing:0px;writing-mode:lr-tb;text-anchor:start;fill:#000000;fill-opacity:1;stroke:none"
       id="text3755-1">
      <path
         d="m 211.22109,278.09789 -0.35,-0.15 c -0.825,1.4 -1.35,1.675 -2.4,1.675 l -5.85,0 4.125,-4.4 c 2.225,-2.35 3.2,-4.225 3.2,-6.2 0,-2.475 -1.8,-4.4 -4.625,-4.4 -3.075,0 -4.675,2.05 -5.2,4.975 l 0.525,0.125 c 1,-2.45 1.875,-3.25 3.675,-3.25 2.125,0 3.475,1.25 3.475,3.525 0,2.125 -0.9,4.025 -3.25,6.5 l -4.45,4.725 0,0.3 9.775,0 1.35,-3.425 z"
         id="path4195"
         inkscape:connector-curvature="0" />
    </g>
    <g
       style="font-style:normal;font-variant:normal;font-weight:normal;font-stretch:normal;font-size:25px;line-height:125%;font-family:STIXGeneral;-inkscape-font-specification:'STIXGeneral, Normal';text-align:start;letter-spacing:0px;word-spacing:0px;writing-mode:lr-tb;text-anchor:start;fill:#000000;fill-opacity:1;stroke:none"
       id="text3755-4">
      <path
         d="m 27.896094,268.77289 c 1.025,-1.85 2.175,-2.65 3.725,-2.65 1.65,0 2.7,0.85 2.7,2.55 0,1.525 -0.8,2.65 -2.025,3.35 -0.5,0.3 -1.15,0.575 -2.1,0.9 l 0,0.35 c 1.425,0 2,0.075 2.55,0.25 1.725,0.5 2.6,1.725 2.6,3.625 0,2.125 -1.4,3.825 -3.25,3.825 -0.7,0 -1.225,-0.125 -2.15,-0.775 -0.7,-0.5 -1.1,-0.65 -1.525,-0.65 -0.575,0 -1.025,0.375 -1.025,0.9 0,0.9 0.975,1.425 2.8,1.425 2.225,0 4.6,-0.725 5.8,-2.325 0.725,-0.95 1.15,-2.175 1.15,-3.5 0,-1.3 -0.4,-2.45 -1.1,-3.225 -0.525,-0.55 -0.975,-0.85 -2.075,-1.325 1.675,-1 2.325,-2.25 2.325,-3.45 0,-2.05 -1.575,-3.425 -3.9,-3.425 -2.6,0 -4.175,1.675 -4.9,4.05 l 0.4,0.1 z"
         id="path4198"
         inkscape:connector-curvature="0" />
    </g>
    <path
       transform="matrix(1.545854,0,0,1.545854,167.68756,-130.29365)"
       style="fill:none;stroke:#000000;stroke-width:1.29378319;stroke-miterlimit:4;stroke-dasharray:none;stroke-opacity:1;marker-end:"
       inkscape:transform-center-y="-33.125422"
       d="m 205.65932,272.36218 -74.23075,0 -74.230746,0 37.115374,-64.28572 37.115372,-64.28571 37.11538,64.28571 z"
       id="path2985-8"
       inkscape:connector-curvature="0" />
    <g
       style="font-style:normal;font-variant:normal;font-weight:normal;font-stretch:normal;font-size:25px;line-height:125%;font-family:STIXGeneral;-inkscape-font-specification:'STIXGeneral, Normal';text-align:start;letter-spacing:0px;word-spacing:0px;writing-mode:lr-tb;text-anchor:start;fill:#000000;fill-opacity:1;stroke:none"
       id="text3755-2">
      <path
         d="m 374.39443,134.14789 0,-0.375 c -1.875,0 -2.375,-0.45 -2.375,-1.525 l 0,-14.925 -0.225,-0.075 -4.475,2.275 0,0.35 0.675,-0.25 c 0.45,-0.175 0.875,-0.3 1.125,-0.3 0.525,0 0.75,0.375 0.75,1.225 l 0,11.225 c 0,1.375 -0.525,1.9 -2.375,2 l 0,0.375 6.9,0 z"
         id="path4202"
         inkscape:connector-curvature="0" />
    </g>
    <g
       style="font-style:normal;font-variant:normal;font-weight:normal;font-stretch:normal;font-size:25px;line-height:125%;font-family:STIXGeneral;-inkscape-font-specification:'STIXGeneral, Normal';text-align:start;letter-spacing:0px;word-spacing:0px;writing-mode:lr-tb;text-anchor:start;fill:#000000;fill-opacity:1;stroke:none"
       id="text3755-1-5">
      <path
         d="m 289.72091,278.09789 -0.35,-0.15 c -0.825,1.4 -1.35,1.675 -2.4,1.675 l -5.85,0 4.125,-4.4 c 2.225,-2.35 3.2,-4.225 3.2,-6.2 0,-2.475 -1.8,-4.4 -4.625,-4.4 -3.075,0 -4.675,2.05 -5.2,4.975 l 0.525,0.125 c 1,-2.45 1.875,-3.25 3.675,-3.25 2.125,0 3.475,1.25 3.475,3.525 0,2.125 -0.9,4.025 -3.25,6.5 l -4.45,4.725 0,0.3 9.775,0 1.35,-3.425 z"
         id="path4205"
         inkscape:connector-curvature="0" />
    </g>
    <g
       style="font-style:normal;font-variant:normal;font-weight:normal;font-stretch:normal;font-size:25px;line-height:125%;font-family:STIXGeneral;-inkscape-font-specification:'STIXGeneral, Normal';text-align:start;letter-spacing:0px;word-spacing:0px;writing-mode:lr-tb;text-anchor:start;fill:#000000;fill-opacity:1;stroke:none"
       id="text3755-4-1">
      <path
         d="m 455.39591,268.77289 c 1.025,-1.85 2.175,-2.65 3.725,-2.65 1.65,0 2.7,0.85 2.7,2.55 0,1.525 -0.8,2.65 -2.025,3.35 -0.5,0.3 -1.15,0.575 -2.1,0.9 l 0,0.35 c 1.425,0 2,0.075 2.55,0.25 1.725,0.5 2.6,1.725 2.6,3.625 0,2.125 -1.4,3.825 -3.25,3.825 -0.7,0 -1.225,-0.125 -2.15,-0.775 -0.7,-0.5 -1.1,-0.65 -1.525,-0.65 -0.575,0 -1.025,0.375 -1.025,0.9 0,0.9 0.975,1.425 2.8,1.425 2.225,0 4.6,-0.725 5.8,-2.325 0.725,-0.95 1.15,-2.175 1.15,-3.5 0,-1.3 -0.4,-2.45 -1.1,-3.225 -0.525,-0.55 -0.975,-0.85 -2.075,-1.325 1.675,-1 2.325,-2.25 2.325,-3.45 0,-2.05 -1.575,-3.425 -3.9,-3.425 -2.6,0 -4.175,1.675 -4.9,4.05 l 0.4,0.1 z"
         id="path4208"
         inkscape:connector-curvature="0" />
    </g>
    <g
       id="g6510"
       transform="translate(102.71113,-211.587)">
      <path
         inkscape:connector-curvature="0"
         id="path5388"
         d="m 105,402.36218 61,0"
         style="fill:none;stroke:#000000;stroke-width:10;stroke-linecap:butt;stroke-linejoin:miter;stroke-miterlimit:4;stroke-dasharray:none;stroke-opacity:1;marker-mid:none" />
      <path
         transform="matrix(1.6870567,0.95748575,-0.95748575,1.6870567,-115.78476,-707.51529)"
         style="fill:#000000;fill-opacity:1;stroke:#000000;stroke-width:0;stroke-linecap:round;stroke-linejoin:bevel;stroke-miterlimit:4;stroke-dasharray:none;stroke-dashoffset:0;stroke-opacity:1"
         inkscape:transform-center-x="-9.5009799"
         inkscape:transform-center-y="0.28280892"
         d="m 412,432.36218 -3.4641,-6 -3.4641,-6 6.9282,0 6.9282,0 -3.4641,6 z"
         id="path5087"
         inkscape:connector-curvature="0" />
      <path
         transform="matrix(-1.6870567,0.95748575,0.95748575,1.6870567,400.57656,-707.51529)"
         style="fill:#000000;fill-opacity:1;stroke:#000000;stroke-width:0;stroke-linecap:round;stroke-linejoin:bevel;stroke-miterlimit:4;stroke-dasharray:none;stroke-dashoffset:0;stroke-opacity:1"
         inkscape:transform-center-x="9.5009799"
         inkscape:transform-center-y="0.28280892"
         d="m 412,432.36218 -3.4641,-6 -3.4641,-6 6.9282,0 6.9282,0 -3.4641,6 z"
         id="path5087-5"
         inkscape:connector-curvature="0" />
    </g>
    <g
       style="font-style:normal;font-variant:normal;font-weight:normal;font-stretch:normal;font-size:25px;line-height:125%;font-family:STIXGeneral;-inkscape-font-specification:'STIXGeneral, Normal';text-align:start;letter-spacing:0px;word-spacing:0px;writing-mode:lr-tb;text-anchor:start;fill:#000000;fill-opacity:1;stroke:none"
       id="text6515">
      <path
         d="m 241.30149,161.66218 -0.175,0.8 2.275,0 -2.2,10.5 c -0.575,2.7 -1.375,4.05 -2.425,4.05 -0.3,0 -0.5,-0.175 -0.5,-0.4 0,-0.275 0.225,-0.4 0.225,-0.725 0,-0.525 -0.375,-0.925 -0.95,-0.925 -0.525,0 -0.95,0.475 -0.95,1.05 0,0.875 0.85,1.525 1.975,1.525 2.275,0 3.95,-2.45 5,-7.075 l 1.8,-8 2.7,0 0.15,-0.8 -2.675,0 c 0.725,-3.95 1.65,-5.7 3.05,-5.7 0.35,0 0.55,0.125 0.55,0.325 0,0.225 -0.25,0.35 -0.25,0.775 0,0.6 0.475,0.975 0.925,0.975 0.575,0 1.05,-0.525 1.05,-1.075 0,-0.9 -0.925,-1.55 -2.15,-1.55 -1.525,0 -2.55,0.85 -3.3,1.925 -0.825,1.175 -1.25,2.55 -1.8,4.325 l -2.325,0 z"
         style="font-style:italic"
         id="path4213"
         inkscape:connector-curvature="0" />
      <path
         d="m 253.61258,177.36218 0,-0.24375 c -1.21875,0 -1.54375,-0.2925 -1.54375,-0.99125 l 0,-9.70125 -0.14625,-0.0487 -2.90875,1.47875 0,0.2275 0.43875,-0.1625 c 0.2925,-0.11375 0.56875,-0.195 0.73125,-0.195 0.34125,0 0.4875,0.24375 0.4875,0.79625 l 0,7.29625 c 0,0.89375 -0.34125,1.235 -1.54375,1.3 l 0,0.24375 4.485,0 z"
         style="font-size:64.99999762%;baseline-shift:sub"
         id="path4215"
         inkscape:connector-curvature="0" />
    </g>
  </g>
</svg>
