<?xml version="1.0" encoding="UTF-8" standalone="no"?>
<!-- Created with Inkscape (http://www.inkscape.org/) -->

<svg
   xmlns:osb="http://www.openswatchbook.org/uri/2009/osb"
   xmlns:dc="http://purl.org/dc/elements/1.1/"
   xmlns:cc="http://creativecommons.org/ns#"
   xmlns:rdf="http://www.w3.org/1999/02/22-rdf-syntax-ns#"
   xmlns:svg="http://www.w3.org/2000/svg"
   xmlns="http://www.w3.org/2000/svg"
   xmlns:sodipodi="http://sodipodi.sourceforge.net/DTD/sodipodi-0.dtd"
   xmlns:inkscape="http://www.inkscape.org/namespaces/inkscape"
   width="575.41144"
   height="402.2774"
   id="svg2"
   version="1.1"
   inkscape:version="0.91 r13725"
   inkscape:export-filename="C:\Users\shapie2\Google Drive\blog\Limit points and other nonsense\limit_point_example.png"
   inkscape:export-xdpi="90"
   inkscape:export-ydpi="90"
   sodipodi:docname="limit_point_example.svg">
  <sodipodi:namedview
     id="base"
     pagecolor="#ffffff"
     bordercolor="#666666"
     borderopacity="1.0"
     inkscape:pageopacity="0.0"
     inkscape:pageshadow="2"
     inkscape:zoom="1.0818734"
     inkscape:cx="355.26749"
     inkscape:cy="199.28911"
     inkscape:document-units="px"
     inkscape:current-layer="layer1"
     showgrid="false"
     inkscape:window-width="1440"
     inkscape:window-height="851"
     inkscape:window-x="0"
     inkscape:window-y="1"
     inkscape:window-maximized="1"
     fit-margin-top="5"
     fit-margin-left="5"
     fit-margin-right="5"
     fit-margin-bottom="5" />
  <defs
     id="defs4">
    <marker
       inkscape:stockid="Arrow1Lend"
       orient="auto"
       refY="0"
       refX="0"
       id="Arrow1Lend"
       style="overflow:visible">
      <path
         id="path5860"
         d="M 0,0 5,-5 -12.5,0 5,5 0,0 Z"
         style="fill-rule:evenodd;stroke:#000000;stroke-width:1pt"
         transform="matrix(-0.8,0,0,-0.8,-10,0)"
         inkscape:connector-curvature="0" />
    </marker>
    <marker
       inkscape:stockid="Arrow1Lstart"
       orient="auto"
       refY="0"
       refX="0"
       id="Arrow1Lstart"
       style="overflow:visible">
      <path
         id="path5857"
         d="M 0,0 5,-5 -12.5,0 5,5 0,0 Z"
         style="fill-rule:evenodd;stroke:#000000;stroke-width:1pt"
         transform="matrix(0.8,0,0,0.8,10,0)"
         inkscape:connector-curvature="0" />
    </marker>
    <marker
       inkscape:stockid="Arrow1Mstart"
       orient="auto"
       refY="0"
       refX="0"
       id="Arrow1Mstart"
       style="overflow:visible">
      <path
         id="path5863"
         d="M 0,0 5,-5 -12.5,0 5,5 0,0 Z"
         style="fill-rule:evenodd;stroke:#000000;stroke-width:1pt"
         transform="matrix(0.4,0,0,0.4,4,0)"
         inkscape:connector-curvature="0" />
    </marker>
    <inkscape:perspective
       id="perspective3842"
       inkscape:persp3d-origin="372.04724 : 350.78739 : 1"
       inkscape:vp_z="744.09448 : 526.18109 : 1"
       inkscape:vp_y="0 : 1000 : 0"
       inkscape:vp_x="0 : 526.18109 : 1"
       sodipodi:type="inkscape:persp3d" />
    <linearGradient
       osb:paint="solid"
       id="linearGradient3767">
      <stop
         id="stop3769"
         offset="0"
         style="stop-color:#000000;stop-opacity:1;" />
    </linearGradient>
    <clipPath
       id="clipPath">
      <path
         transform="translate(188.11881,50.49505)"
         d="m 135.64357,430.58002 c 4.41814,7.29737 -7.65695,9.55583 -12.12871,7.34324 -12.11818,-5.99598 -10.14383,-22.92012 -2.55777,-31.60066 13.56967,-15.52745 37.96718,-11.74119 51.07261,2.22769 19.23274,20.49991 13.44048,53.23811 -7.01317,70.54456 -27.2615,23.06678 -68.591073,15.18649 -90.016507,-11.79863 C 48.038302,433.3382 58.042704,383.31244 91.584125,357.80776 132.20728,326.91818 190.98312,339.06511 220.54454,379.17733 255.38164,426.44819 241.08163,494.00559 194.3895,527.60969 140.48158,566.40695 64.122588,549.94733 26.485186,496.66919 -16.280822,436.13117 2.3427647,350.95705 62.211161,309.29292 129.37445,262.55207 223.37332,283.34263 269.05937,349.80437 c 50.72018,73.78512 27.76046,176.61579 -45.29691,226.32016"
         sodipodi:t0="0"
         sodipodi:argument="-17.823172"
         sodipodi:radius="170.14154"
         sodipodi:revolution="3"
         sodipodi:expansion="1"
         sodipodi:cy="430.58002"
         sodipodi:cx="135.64357"
         id="path4282"
         style="fill:none;stroke:#000000;stroke-width:1px;stroke-linecap:butt;stroke-linejoin:miter;stroke-opacity:1"
         sodipodi:type="spiral" />
    </clipPath>
    <filter
       y="-0.5"
       x="-0.5"
       width="2"
       height="2"
       id="filter"
       style="color-interpolation-filters:sRGB">
      <feGaussianBlur
         id="feGaussianBlur4292"
         stdDeviation="5.0" />
    </filter>
    <filter
       id="filter5212"
       inkscape:label="Blur content"
       inkscape:menu="Blurs"
       inkscape:menu-tooltip="Blur the contents of objects, preserving the outline"
       style="color-interpolation-filters:sRGB">
      <feColorMatrix
         id="feColorMatrix5214"
         values="1 0 0 0 0 0 1 0 0 0 0 0 1 0 0 0 0 0 1 0 "
         result="result7" />
      <feGaussianBlur
         id="feGaussianBlur5216"
         result="result6"
         stdDeviation="5" />
      <feComposite
         id="feComposite5218"
         in2="result7"
         operator="atop"
         in="result6"
         result="result91" />
      <feComposite
         id="feComposite5220"
         in2="result91"
         operator="in" />
    </filter>
    <filter
       id="filter5235"
       inkscape:label="Blur content"
       inkscape:menu="Blurs"
       inkscape:menu-tooltip="Blur the contents of objects, preserving the outline"
       style="color-interpolation-filters:sRGB">
      <feColorMatrix
         id="feColorMatrix5237"
         values="1 0 0 0 0 0 1 0 0 0 0 0 1 0 0 0 0 0 1 0 "
         result="result7" />
      <feGaussianBlur
         id="feGaussianBlur5239"
         result="result6"
         stdDeviation="5" />
      <feComposite
         id="feComposite5241"
         in2="result7"
         operator="atop"
         in="result6"
         result="result91" />
      <feComposite
         id="feComposite5243"
         in2="result91"
         operator="in" />
    </filter>
    <filter
       id="filter5258"
       inkscape:label="Blur content"
       inkscape:menu="Blurs"
       inkscape:menu-tooltip="Blur the contents of objects, preserving the outline"
       style="color-interpolation-filters:sRGB">
      <feColorMatrix
         id="feColorMatrix5260"
         values="1 0 0 0 0 0 1 0 0 0 0 0 1 0 0 0 0 0 1 0 "
         result="result7" />
      <feGaussianBlur
         id="feGaussianBlur5262"
         result="result6"
         stdDeviation="5" />
      <feComposite
         id="feComposite5264"
         in2="result7"
         operator="atop"
         in="result6"
         result="result91" />
      <feComposite
         id="feComposite5266"
         in2="result91"
         operator="in" />
    </filter>
    <filter
       id="filter5483"
       inkscape:label="Fire"
       inkscape:menu="Protrusions"
       inkscape:menu-tooltip="Edges of object are on fire"
       y="-0.2"
       width="1.2"
       height="1.4"
       x="-0.1"
       style="color-interpolation-filters:sRGB">
      <feColorMatrix
         id="feColorMatrix5485"
         values="1 0 0 0 0 0 1 0 0 0 0 0 1 0 0 0 0 0 1 0 "
         result="fbSourceGraphic" />
      <feGaussianBlur
         id="feGaussianBlur5487"
         stdDeviation="3"
         result="result1" />
      <feOffset
         id="feOffset5489"
         dx="2"
         dy="2"
         result="result6" />
      <feComposite
         id="feComposite5491"
         in2="result1"
         operator="in"
         result="result2"
         in="result6" />
      <feColorMatrix
         id="feColorMatrix5493"
         values="110"
         result="result3"
         type="hueRotate" />
      <feBlend
         id="feBlend5495"
         in2="result3"
         mode="screen"
         in="result2"
         result="result4" />
      <feConvolveMatrix
         id="feConvolveMatrix5497"
         order="3 3"
         kernelMatrix="-2 0 2 0 4 0 2 0 2"
         divisor="2"
         bias="0"
         targetX="0"
         in="result4"
         result="result5" />
      <feComposite
         id="feComposite5499"
         in2="result5"
         operator="atop"
         in="result2"
         result="fbSourceGraphic" />
      <feColorMatrix
         result="fbSourceGraphicAlpha"
         in="fbSourceGraphic"
         values="0 0 0 -1 0 0 0 0 -1 0 0 0 0 -1 0 0 0 0 1 0"
         id="feColorMatrix5513" />
      <feMorphology
         id="feMorphology5515"
         result="result1"
         radius="2.4"
         operator="dilate"
         in="fbSourceGraphic" />
      <feTurbulence
         id="feTurbulence5517"
         baseFrequency="0.09 0.028"
         numOctaves="1" />
      <feColorMatrix
         id="feColorMatrix5519"
         result="result2"
         values="2 0 0 0 0 0 2 0 0 0 0 0 0 0 0 0 0 0 1 0" />
      <feDisplacementMap
         id="feDisplacementMap5521"
         in2="result2"
         result="result4"
         scale="10.31941"
         yChannelSelector="G"
         xChannelSelector="R"
         in="result1" />
      <feFlood
         id="feFlood5523"
         result="result3"
         flood-opacity="1"
         flood-color="rgb(255,159,54)" />
      <feMorphology
         id="feMorphology5525"
         radius="3.8"
         result="result7"
         in="result4" />
      <feGaussianBlur
         id="feGaussianBlur5527"
         result="result7"
         in="result7"
         stdDeviation="2.4" />
      <feComposite
         id="feComposite5529"
         in2="result4"
         result="result5"
         in="result3"
         operator="in" />
      <feComposite
         id="feComposite5531"
         in2="result7"
         operator="out" />
      <feOffset
         id="feOffset5533"
         result="result6"
         dy="-7"
         dx="-4.5" />
      <feGaussianBlur
         id="feGaussianBlur5535"
         result="result7"
         stdDeviation="4.8" />
      <feComposite
         id="feComposite5537"
         in2="result6"
         in="fbSourceGraphic"
         result="result8" />
      <feComposite
         id="feComposite5539"
         in2="result7" />
    </filter>
    <filter
       id="filter5629"
       inkscape:label="Snow"
       style="color-interpolation-filters:sRGB">
      <feConvolveMatrix
         id="feConvolveMatrix5631"
         order="3 3"
         kernelMatrix="1 1 1 0 0 0 -1 -1 -1"
         preserveAlpha="false"
         divisor="3" />
      <feMorphology
         id="feMorphology5633"
         operator="dilate"
         radius="1 13.9" />
      <feGaussianBlur
         id="feGaussianBlur5635"
         stdDeviation="1.6270889487870621"
         result="result0" />
      <feColorMatrix
         id="feColorMatrix5637"
         values="0 0 0 0 0 0 0 0 0 0 0 0 0 0 0 0 0 0 10 0"
         result="result1" />
      <feOffset
         id="feOffset5639"
         dx="0"
         dy="1"
         result="result5" />
      <feDiffuseLighting
         id="feDiffuseLighting5641"
         in="result0"
         diffuseConstant="2.26130652"
         surfaceScale="1"
         result="result6">
        <feDistantLight
           id="feDistantLight5643"
           azimuth="225"
           elevation="32" />
      </feDiffuseLighting>
      <feComposite
         id="feComposite5645"
         in2="result1"
         operator="in"
         result="result2" />
      <feColorMatrix
         id="feColorMatrix5647"
         values="0.4 0 0 0 0.6 0 0.4 0 0 0.6 0 0 0 0 1 0 0 0 1 0"
         result="result4" />
      <feComposite
         id="feComposite5649"
         in2="result5"
         in="result4"
         result="result7" />
      <feComposite
         id="feComposite5651"
         in2="SourceGraphic"
         result="fbSourceGraphic" />
      <feColorMatrix
         result="fbSourceGraphicAlpha"
         in="fbSourceGraphic"
         values="0 0 0 -1 0 0 0 0 -1 0 0 0 0 -1 0 0 0 0 1 0"
         id="feColorMatrix5653" />
      <feConvolveMatrix
         id="feConvolveMatrix5655"
         order="3 3"
         kernelMatrix="1 1 1 0 0 0 -1 -1 -1"
         preserveAlpha="false"
         divisor="3"
         in="fbSourceGraphic" />
      <feMorphology
         id="feMorphology5657"
         operator="dilate"
         radius="1 13.9" />
      <feGaussianBlur
         id="feGaussianBlur5659"
         stdDeviation="1.6270889487870621"
         result="result0" />
      <feColorMatrix
         id="feColorMatrix5661"
         values="0 0 0 0 0 0 0 0 0 0 0 0 0 0 0 0 0 0 10 0"
         result="result1" />
      <feOffset
         id="feOffset5663"
         dx="0"
         dy="1"
         result="result5" />
      <feDiffuseLighting
         id="feDiffuseLighting5665"
         in="result0"
         diffuseConstant="2.26130652"
         surfaceScale="1"
         result="result8">
        <feDistantLight
           id="feDistantLight5667"
           azimuth="225"
           elevation="32" />
      </feDiffuseLighting>
      <feComposite
         id="feComposite5669"
         in2="result1"
         operator="in"
         result="result2" />
      <feColorMatrix
         id="feColorMatrix5671"
         values="0.4 0 0 0 0.6 0 0.4 0 0 0.6 0 0 0 0 1 0 0 0 1 0"
         result="result4" />
      <feComposite
         id="feComposite5673"
         in2="result5"
         in="result4"
         result="result9" />
      <feComposite
         id="feComposite5675"
         in2="fbSourceGraphic"
         result="fbSourceGraphic" />
      <feColorMatrix
         result="fbSourceGraphicAlpha"
         in="fbSourceGraphic"
         values="0 0 0 -1 0 0 0 0 -1 0 0 0 0 -1 0 0 0 0 1 0"
         id="feColorMatrix5677" />
      <feConvolveMatrix
         id="feConvolveMatrix5679"
         order="3 3"
         kernelMatrix="1 1 1 0 0 0 -1 -1 -1"
         preserveAlpha="false"
         divisor="3"
         in="fbSourceGraphic" />
      <feMorphology
         id="feMorphology5681"
         operator="dilate"
         radius="1 13.9" />
      <feGaussianBlur
         id="feGaussianBlur5683"
         stdDeviation="1.6270889487870621"
         result="result0" />
      <feColorMatrix
         id="feColorMatrix5685"
         values="0 0 0 0 0 0 0 0 0 0 0 0 0 0 0 0 0 0 10 0"
         result="result1" />
      <feOffset
         id="feOffset5687"
         dx="0"
         dy="1"
         result="result5" />
      <feDiffuseLighting
         id="feDiffuseLighting5689"
         in="result0"
         diffuseConstant="2.26130652"
         surfaceScale="1"
         result="result10">
        <feDistantLight
           id="feDistantLight5691"
           azimuth="225"
           elevation="32" />
      </feDiffuseLighting>
      <feComposite
         id="feComposite5693"
         in2="result1"
         operator="in"
         result="result2" />
      <feColorMatrix
         id="feColorMatrix5695"
         values="0.4 0 0 0 0.6 0 0.4 0 0 0.6 0 0 0 0 1 0 0 0 1 0"
         result="result4" />
      <feComposite
         id="feComposite5697"
         in2="result5"
         in="result4"
         result="result11" />
      <feComposite
         id="feComposite5699"
         in2="fbSourceGraphic"
         result="fbSourceGraphic" />
      <feColorMatrix
         result="fbSourceGraphicAlpha"
         in="fbSourceGraphic"
         values="0 0 0 -1 0 0 0 0 -1 0 0 0 0 -1 0 0 0 0 1 0"
         id="feColorMatrix5701" />
      <feConvolveMatrix
         id="feConvolveMatrix5703"
         order="3 3"
         kernelMatrix="1 1 1 0 0 0 -1 -1 -1"
         preserveAlpha="false"
         divisor="3"
         in="fbSourceGraphic" />
      <feMorphology
         id="feMorphology5705"
         operator="dilate"
         radius="1 13.9" />
      <feGaussianBlur
         id="feGaussianBlur5707"
         stdDeviation="1.6270889487870621"
         result="result0" />
      <feColorMatrix
         id="feColorMatrix5709"
         values="0 0 0 0 0 0 0 0 0 0 0 0 0 0 0 0 0 0 10 0"
         result="result1" />
      <feOffset
         id="feOffset5711"
         dx="0"
         dy="1"
         result="result5" />
      <feDiffuseLighting
         id="feDiffuseLighting5713"
         in="result0"
         diffuseConstant="2.26130652"
         surfaceScale="1"
         result="result12">
        <feDistantLight
           id="feDistantLight5715"
           azimuth="225"
           elevation="32" />
      </feDiffuseLighting>
      <feComposite
         id="feComposite5717"
         in2="result1"
         operator="in"
         result="result2" />
      <feColorMatrix
         id="feColorMatrix5719"
         values="0.4 0 0 0 0.6 0 0.4 0 0 0.6 0 0 0 0 1 0 0 0 1 0"
         result="result4" />
      <feComposite
         id="feComposite5721"
         in2="result5"
         in="result4"
         result="result13" />
      <feComposite
         id="feComposite5723"
         in2="fbSourceGraphic"
         result="fbSourceGraphic" />
      <feColorMatrix
         result="fbSourceGraphicAlpha"
         in="fbSourceGraphic"
         values="0 0 0 -1 0 0 0 0 -1 0 0 0 0 -1 0 0 0 0 1 0"
         id="feColorMatrix5725" />
      <feConvolveMatrix
         id="feConvolveMatrix5727"
         order="3 3"
         kernelMatrix="1 1 1 0 0 0 -1 -1 -1"
         preserveAlpha="false"
         divisor="3"
         in="fbSourceGraphic" />
      <feMorphology
         id="feMorphology5729"
         operator="dilate"
         radius="1 13.9" />
      <feGaussianBlur
         id="feGaussianBlur5731"
         stdDeviation="1.6270889487870621"
         result="result0" />
      <feColorMatrix
         id="feColorMatrix5733"
         values="0 0 0 0 0 0 0 0 0 0 0 0 0 0 0 0 0 0 10 0"
         result="result1" />
      <feOffset
         id="feOffset5735"
         dx="0"
         dy="1"
         result="result5" />
      <feDiffuseLighting
         id="feDiffuseLighting5737"
         in="result0"
         diffuseConstant="2.26130652"
         surfaceScale="1"
         result="result14">
        <feDistantLight
           id="feDistantLight5739"
           azimuth="225"
           elevation="32" />
      </feDiffuseLighting>
      <feComposite
         id="feComposite5741"
         in2="result1"
         operator="in"
         result="result2" />
      <feColorMatrix
         id="feColorMatrix5743"
         values="0.4 0 0 0 0.6 0 0.4 0 0 0.6 0 0 0 0 1 0 0 0 1 0"
         result="result4" />
      <feComposite
         id="feComposite5745"
         in2="result5"
         in="result4"
         result="result15" />
      <feComposite
         id="feComposite5747"
         in2="fbSourceGraphic" />
    </filter>
    <marker
       inkscape:stockid="Arrow1Lstart"
       orient="auto"
       refY="0"
       refX="0"
       id="Arrow1Lstart-9"
       style="overflow:visible">
      <path
         inkscape:connector-curvature="0"
         id="path5857-4"
         d="M 0,0 5,-5 -12.5,0 5,5 0,0 Z"
         style="fill-rule:evenodd;stroke:#000000;stroke-width:1pt"
         transform="matrix(0.8,0,0,0.8,10,0)" />
    </marker>
    <marker
       inkscape:stockid="Arrow1Lend"
       orient="auto"
       refY="0"
       refX="0"
       id="Arrow1Lend-4"
       style="overflow:visible">
      <path
         inkscape:connector-curvature="0"
         id="path5860-3"
         d="M 0,0 5,-5 -12.5,0 5,5 0,0 Z"
         style="fill-rule:evenodd;stroke:#000000;stroke-width:1pt"
         transform="matrix(-0.8,0,0,-0.8,-10,0)" />
    </marker>
  </defs>
  <metadata
     id="metadata7">
    <rdf:RDF>
      <cc:Work
         rdf:about="">
        <dc:format>image/svg+xml</dc:format>
        <dc:type
           rdf:resource="http://purl.org/dc/dcmitype/StillImage" />
        <dc:title></dc:title>
      </cc:Work>
    </rdf:RDF>
  </metadata>
  <g
     id="layer1"
     inkscape:groupmode="layer"
     inkscape:label="Layer 1"
     transform="translate(-57.843813,-328.96597)">
    <path
       transform="matrix(1.1815147,0,0,1.1815147,3.3324287,-131.84854)"
       style="fill:#f2f2f2;stroke:#000000;stroke-width:1.26955676;stroke-miterlimit:4;stroke-dasharray:7.61734069, 7.61734068999999980;stroke-dashoffset:0;stroke-opacity:1;marker-end:"
       d="M 455.44553,573.64929 A 151.98019,151.98019 0 0 1 303.46533,725.62949 151.98019,151.98019 0 0 1 151.48514,573.64929 151.98019,151.98019 0 0 1 303.46533,421.6691 151.98019,151.98019 0 0 1 455.44553,573.64929 Z"
       id="path5837"
       inkscape:connector-curvature="0" />
    <g
       style="font-style:normal;font-variant:normal;font-weight:normal;font-stretch:normal;font-size:25px;line-height:125%;font-family:STIXGeneral;-inkscape-font-specification:'STIXGeneral, Normal';text-align:start;letter-spacing:0px;word-spacing:0px;writing-mode:lr-tb;text-anchor:start;fill:#000000;fill-opacity:1;stroke:none"
       id="text5841">
      <path
         d="m 379.45198,543.56403 c -0.35,-1.7 -0.65,-2.15 -1.275,-2.15 -0.575,0 -1.4,0.175 -2.925,0.725 l -0.275,0.1 0.075,0.4 0.45,-0.125 c 0.475,-0.125 0.775,-0.175 0.975,-0.175 0.625,0 0.8,0.2 1.15,1.7 l 0.7,3.1 -2.05,2.9 c -0.525,0.75 -1,1.225 -1.275,1.225 -0.15,0 -0.4,-0.075 -0.65,-0.225 -0.325,-0.175 -0.575,-0.275 -0.8,-0.275 -0.5,0 -0.85,0.4 -0.85,0.9 0,0.65 0.475,1.05 1.25,1.05 0.775,0 1.275,-0.225 2.375,-1.7 l 2.2,-2.975 0.725,2.975 c 0.3,1.25 0.675,1.7 1.475,1.7 0.95,0 1.6,-0.6 3.05,-2.85 l -0.375,-0.225 c -0.2,0.25 -0.3,0.4 -0.525,0.7 -0.575,0.75 -0.85,1 -1.175,1 -0.35,0 -0.575,-0.325 -0.75,-1.025 l -0.8,-3.35 c -0.15,-0.6 -0.2,-0.95 -0.2,-1.125 1.1,-1.925 2,-3.025 2.45,-3.025 0.6,0 0.825,0.425 1.3,0.425 0.5,0 0.85,-0.375 0.85,-0.9 0,-0.55 -0.425,-0.925 -1.025,-0.925 -1.1,0 -2.025,0.9 -3.775,3.575 l -0.3,-1.425 z"
         style="font-style:italic;font-variant:normal;font-weight:normal;font-stretch:normal;font-size:25px;line-height:125%;font-family:STIXGeneral;-inkscape-font-specification:'STIXGeneral, Normal';text-align:start;writing-mode:lr-tb;text-anchor:start"
         id="path4333"
         inkscape:connector-curvature="0" />
      <path
         d="m 406.63597,544.43903 0,-1.65 -14.725,0 0,1.65 14.725,0 z m 0,5 0,-1.65 -14.725,0 0,1.65 14.725,0 z"
         id="path4335"
         inkscape:connector-curvature="0" />
      <path
         d="m 421.74847,556.46403 c -3.5,-2.925 -4.25,-5.75 -4.25,-10.4 0,-4.825 0.775,-7.15 4.25,-10.125 l -0.225,-0.4 c -4,2.375 -6.175,5.975 -6.175,10.6 0,4.25 2.15,8.475 6.1,10.725 l 0.3,-0.4 z"
         id="path4337"
         inkscape:connector-curvature="0" />
      <path
         d="m 434.39808,544.18903 c 0,-5.125 -2.275,-8.65 -5.55,-8.65 -4.025,0 -5.75,4.075 -5.75,8.5 0,4.1 1.375,8.75 5.65,8.75 4.075,0 5.65,-4.3 5.65,-8.6 z m -2.4,0.125 c 0,4.95 -1.125,7.825 -3.25,7.825 -2.15,0 -3.25,-2.85 -3.25,-7.925 0,-5.075 1.125,-8.025 3.2,-8.025 2.2,0 3.3,2.925 3.3,8.125 z"
         id="path4339"
         inkscape:connector-curvature="0" />
      <path
         d="m 437.07308,555.96403 c 1.725,-0.825 2.8,-2.4 2.8,-3.9 0,-1.3 -0.875,-2.175 -2,-2.175 -0.9,0 -1.5,0.575 -1.5,1.425 0,0.85 0.525,1.275 1.45,1.275 0.275,0 0.525,-0.1 0.725,-0.1 0.2,0 0.35,0.15 0.35,0.325 0,0.825 -0.7,1.75 -2.075,2.675 l 0.25,0.475 z"
         id="path4341"
         inkscape:connector-curvature="0" />
      <path
         d="m 459.39808,544.18903 c 0,-5.125 -2.275,-8.65 -5.55,-8.65 -4.025,0 -5.75,4.075 -5.75,8.5 0,4.1 1.375,8.75 5.65,8.75 4.075,0 5.65,-4.3 5.65,-8.6 z m -2.4,0.125 c 0,4.95 -1.125,7.825 -3.25,7.825 -2.15,0 -3.25,-2.85 -3.25,-7.925 0,-5.075 1.125,-8.025 3.2,-8.025 2.2,0 3.3,2.925 3.3,8.125 z"
         id="path4343"
         inkscape:connector-curvature="0" />
      <path
         d="m 460.72308,535.93903 c 3.625,2.85 4.25,5.725 4.25,10.4 0,4.85 -0.7,7.2 -4.25,10.125 l 0.225,0.4 c 3.975,-2.425 6.175,-5.975 6.175,-10.6 0,-4.25 -2.275,-8.425 -6.1,-10.725 l -0.3,0.4 z"
         id="path4345"
         inkscape:connector-curvature="0" />
    </g>
    <path
       transform="translate(241.0891,209.40593)"
       style="fill:#000000;stroke:#000000;stroke-width:1.5;stroke-miterlimit:4;stroke-dasharray:none;stroke-dashoffset:0;stroke-opacity:1;marker-end:"
       d="m 127.72278,336.5206 a 6.9306931,6.9306931 0 0 1 -6.9307,6.93069 6.9306931,6.9306931 0 0 1 -6.93069,-6.93069 6.9306931,6.9306931 0 0 1 6.93069,-6.93069 6.9306931,6.9306931 0 0 1 6.9307,6.93069 z"
       id="path5839-1"
       inkscape:connector-curvature="0" />
    <path
       style="fill:none;stroke:#000000;stroke-width:1px;stroke-linecap:butt;stroke-linejoin:miter;stroke-opacity:1;marker-end:"
       d="m 135.64356,431.5701 c 3.9604,43.56436 33.66337,30.69307 70.29703,40.59406 36.63367,9.90099 38.61386,35.64356 38.61386,40.59406 0,4.95049 0,4.95049 0,4.95049"
       id="path6776"
       inkscape:connector-curvature="0" />
    <g
       style="font-style:normal;font-variant:normal;font-weight:normal;font-stretch:normal;font-size:25px;line-height:125%;font-family:STIXGeneral;-inkscape-font-specification:'STIXGeneral, Normal';text-align:start;letter-spacing:0px;word-spacing:0px;writing-mode:lr-tb;text-anchor:start;fill:#000000;fill-opacity:1;stroke:none"
       id="text6964">
      <path
         d="m 78.218813,420.67899 0,-0.4 c -1.325,-0.1 -1.6,-0.375 -1.95,-2.475 l -2.3,-13.825 -0.65,0 -7.125,12.4 c -1.875,3.25 -2.2,3.675 -3.35,3.9 l 0,0.4 4.65,0 0,-0.4 c -1.175,-0.05 -1.55,-0.35 -1.55,-0.825 0,-0.4 0.2,-1 0.55,-1.65 l 1.475,-2.775 5.5,0 0.5,3.275 c 0.025,0.225 0.05,0.45 0.05,0.65 0,0.85 -0.35,1.25 -1.925,1.325 l 0,0.4 6.125,0 z m -4.875,-6.55 -4.85,0 3.725,-6.575 1.125,6.575 z"
         style="font-style:italic;font-variant:normal;font-weight:normal;font-stretch:normal;font-size:25px;line-height:125%;font-family:STIXGeneral;-inkscape-font-specification:'STIXGeneral, Normal';text-align:start;writing-mode:lr-tb;text-anchor:start"
         id="path4349"
         inkscape:connector-curvature="0" />
      <path
         d="m 95.327016,412.67899 0,-1.65 -14.725,0 0,1.65 14.725,0 z m 0,5 0,-1.65 -14.725,0 0,1.65 14.725,0 z"
         id="path4351"
         inkscape:connector-curvature="0" />
      <path
         d="m 99.839516,404.35399 0,0.4 c 1.575004,0.125 1.925004,0.3 1.925004,1.025 0,0.375 -0.1,0.975 -0.275,1.6 l -3.025004,10.9 c -0.425,1.55 -0.7,1.8 -2.075,2 l 0,0.4 6.800004,0 c 4.05,0 6.875,-1.65 6.875,-5 0,-1.775 -1,-3.1 -3.15,-3.75 l 0,-0.025 c 1.075,-0.225 2,-0.45 2.775,-0.975 0.9,-0.6 1.6,-1.475 1.6,-2.825 0,-2.475 -1.725,-3.75 -5.2,-3.75 l -6.250004,0 z m 2.950004,7.25 1.575,-5.6 c 0.25,-0.9 0.5,-0.9 1.475,-0.9 2.025,0 2.925,0.85 2.925,2.7 0,2.475 -1.75,3.8 -5.025,3.8 l -0.95,0 z m -0.25,0.8 c 1.575,0 2.65,0.125 3.15,0.3 0.95,0.325 1.675,1.425 1.675,2.975 0,2.775 -1.95,4.25 -4.825,4.25 -1.05,0 -1.675,-0.35 -1.675,-1.05 0,-0.325 0.375,-1.6 0.875,-3.5 l 0.8,-2.975 z"
         style="font-style:italic;font-variant:normal;font-weight:normal;font-stretch:normal;font-size:25px;line-height:125%;font-family:STIXGeneral;-inkscape-font-specification:'STIXGeneral, Normal';text-align:start;writing-mode:lr-tb;text-anchor:start"
         id="path4353"
         inkscape:connector-curvature="0" />
      <path
         d="m 119.47272,424.70399 c -3.5,-2.925 -4.25,-5.75 -4.25,-10.4 0,-4.825 0.775,-7.15 4.25,-10.125 l -0.225,-0.4 c -4,2.375 -6.175,5.975 -6.175,10.6 0,4.25 2.15,8.475 6.1,10.725 l 0.3,-0.4 z"
         id="path4355"
         inkscape:connector-curvature="0" />
      <path
         d="m 126.29733,411.80399 c -0.35,-1.7 -0.65,-2.15 -1.275,-2.15 -0.575,0 -1.4,0.175 -2.925,0.725 l -0.275,0.1 0.075,0.4 0.45,-0.125 c 0.475,-0.125 0.775,-0.175 0.975,-0.175 0.625,0 0.8,0.2 1.15,1.7 l 0.7,3.1 -2.05,2.9 c -0.525,0.75 -1,1.225 -1.275,1.225 -0.15,0 -0.4,-0.075 -0.65,-0.225 -0.325,-0.175 -0.575,-0.275 -0.8,-0.275 -0.5,0 -0.85,0.4 -0.85,0.9 0,0.65 0.475,1.05 1.25,1.05 0.775,0 1.275,-0.225 2.375,-1.7 l 2.2,-2.975 0.725,2.975 c 0.3,1.25 0.675,1.7 1.475,1.7 0.95,0 1.6,-0.6 3.05,-2.85 l -0.375,-0.225 c -0.2,0.25 -0.3,0.4 -0.525,0.7 -0.575,0.75 -0.85,1 -1.175,1 -0.35,0 -0.575,-0.325 -0.75,-1.025 l -0.8,-3.35 c -0.15,-0.6 -0.2,-0.95 -0.2,-1.125 1.1,-1.925 2,-3.025 2.45,-3.025 0.6,0 0.825,0.425 1.3,0.425 0.5,0 0.85,-0.375 0.85,-0.9 0,-0.55 -0.425,-0.925 -1.025,-0.925 -1.1,0 -2.025,0.9 -3.775,3.575 l -0.3,-1.425 z"
         style="font-style:italic;font-variant:normal;font-weight:normal;font-stretch:normal;font-size:25px;line-height:125%;font-family:STIXGeneral;-inkscape-font-specification:'STIXGeneral, Normal';text-align:start;writing-mode:lr-tb;text-anchor:start"
         id="path4357"
         inkscape:connector-curvature="0" />
      <path
         d="m 133.38131,424.20399 c 1.725,-0.825 2.8,-2.4 2.8,-3.9 0,-1.3 -0.875,-2.175 -2,-2.175 -0.9,0 -1.5,0.575 -1.5,1.425 0,0.85 0.525,1.275 1.45,1.275 0.275,0 0.525,-0.1 0.725,-0.1 0.2,0 0.35,0.15 0.35,0.325 0,0.825 -0.7,1.75 -2.075,2.675 l 0.25,0.475 z"
         id="path4359"
         inkscape:connector-curvature="0" />
      <path
         d="m 148.20631,415.10399 1.375,-5.4 -0.075,-0.05 -3.875,0.675 0,0.425 c 0.375,-0.05 0.575,-0.075 0.775,-0.075 0.5,0 0.95,0.125 0.95,0.65 0,0.525 -0.05,0.75 -0.4,2.05 l -2.025,7.3 1.9,0 c 1.25,-4.2 1.7,-5.2 2.775,-7.05 0.9,-1.525 1.6,-2.35 2.05,-2.35 0.175,0 0.25,0.1 0.4,0.35 0.225,0.375 0.425,0.65 0.875,0.65 0.75,0 1.175,-0.6 1.175,-1.35 0,-0.75 -0.475,-1.275 -1.175,-1.275 -0.575,0 -1.325,0.45 -1.975,1.125 -1.025,1.075 -1.875,2.4 -2.35,3.45 l -0.4,0.875 z"
         style="font-style:italic;font-variant:normal;font-weight:normal;font-stretch:normal;font-size:25px;line-height:125%;font-family:STIXGeneral;-inkscape-font-specification:'STIXGeneral, Normal';text-align:start;writing-mode:lr-tb;text-anchor:start"
         id="path4361"
         inkscape:connector-curvature="0" />
      <path
         d="m 154.24811,404.17899 c 3.625,2.85 4.25,5.725 4.25,10.4 0,4.85 -0.7,7.2 -4.25,10.125 l 0.225,0.4 c 3.975,-2.425 6.175,-5.975 6.175,-10.6 0,-4.25 -2.275,-8.425 -6.1,-10.725 l -0.3,0.4 z"
         id="path4363"
         inkscape:connector-curvature="0" />
    </g>
    <path
       style="fill:none;stroke:#000000;stroke-width:1;stroke-linecap:butt;stroke-linejoin:miter;stroke-miterlimit:4;stroke-dasharray:none;stroke-opacity:1;marker-end:"
       d="M 359.95651,553.28808 336.0831,721.73333"
       id="path5851-9"
       inkscape:connector-curvature="0" />
    <g
       style="font-style:normal;font-variant:normal;font-weight:normal;font-stretch:normal;font-size:25px;line-height:125%;font-family:STIXGeneral;-inkscape-font-specification:'STIXGeneral, Normal';text-align:start;letter-spacing:0px;word-spacing:0px;writing-mode:lr-tb;text-anchor:start;fill:#000000;fill-opacity:1;stroke:none"
       id="text5841-4-8">
      <path
         d="m 357.10895,640.27778 1.375,-5.4 -0.075,-0.05 -3.875,0.675 0,0.425 c 0.375,-0.05 0.575,-0.075 0.775,-0.075 0.5,0 0.95,0.125 0.95,0.65 0,0.525 -0.05,0.75 -0.4,2.05 l -2.025,7.3 1.9,0 c 1.25,-4.2 1.7,-5.2 2.775,-7.05 0.9,-1.525 1.6,-2.35 2.05,-2.35 0.175,0 0.25,0.1 0.4,0.35 0.225,0.375 0.425,0.65 0.875,0.65 0.75,0 1.175,-0.6 1.175,-1.35 0,-0.75 -0.475,-1.275 -1.175,-1.275 -0.575,0 -1.325,0.45 -1.975,1.125 -1.025,1.075 -1.875,2.4 -2.35,3.45 l -0.4,0.875 z"
         style="font-style:italic;font-variant:normal;font-weight:normal;font-stretch:normal;font-size:25px;line-height:125%;font-family:STIXGeneral;-inkscape-font-specification:'STIXGeneral, Normal';text-align:start;writing-mode:lr-tb;text-anchor:start"
         id="path4366"
         inkscape:connector-curvature="0" />
      <path
         d="m 384.60075,637.85278 0,-1.65 -14.725,0 0,1.65 14.725,0 z m 0,5 0,-1.65 -14.725,0 0,1.65 14.725,0 z"
         style="font-style:normal;font-variant:normal;font-weight:normal;font-stretch:normal;font-size:25px;line-height:125%;font-family:STIXGeneral;-inkscape-font-specification:'STIXGeneral, Normal';text-align:start;writing-mode:lr-tb;text-anchor:start"
         id="path4368"
         inkscape:connector-curvature="0" />
      <path
         d="m 401.96325,645.85278 0,-0.375 c -1.875,0 -2.375,-0.45 -2.375,-1.525 l 0,-14.925 -0.225,-0.075 -4.475,2.275 0,0.35 0.675,-0.25 c 0.45,-0.175 0.875,-0.3 1.125,-0.3 0.525,0 0.75,0.375 0.75,1.225 l 0,11.225 c 0,1.375 -0.525,1.9 -2.375,2 l 0,0.375 6.9,0 z"
         style="font-style:normal;font-variant:normal;font-weight:normal;font-stretch:normal;font-size:25px;line-height:125%;font-family:STIXGeneral;-inkscape-font-specification:'STIXGeneral, Normal';text-align:start;writing-mode:lr-tb;text-anchor:start"
         id="path4370"
         inkscape:connector-curvature="0" />
    </g>
    <path
       transform="translate(241.0891,30.506074)"
       style="fill:#000000;stroke:#000000;stroke-width:1.5;stroke-miterlimit:4;stroke-dasharray:none;stroke-dashoffset:0;stroke-opacity:1;marker-end:"
       d="m 127.72278,336.5206 a 6.9306931,6.9306931 0 0 1 -6.9307,6.93069 6.9306931,6.9306931 0 0 1 -6.93069,-6.93069 6.9306931,6.9306931 0 0 1 6.93069,-6.93069 6.9306931,6.9306931 0 0 1 6.9307,6.93069 z"
       id="path5839-1-8"
       inkscape:connector-curvature="0" />
    <path
       transform="translate(420.28911,30.506071)"
       style="fill:#000000;stroke:#000000;stroke-width:1.5;stroke-miterlimit:4;stroke-dasharray:none;stroke-dashoffset:0;stroke-opacity:1;marker-end:"
       d="m 127.72278,336.5206 a 6.9306931,6.9306931 0 0 1 -6.9307,6.93069 6.9306931,6.9306931 0 0 1 -6.93069,-6.93069 6.9306931,6.9306931 0 0 1 6.93069,-6.93069 6.9306931,6.9306931 0 0 1 6.9307,6.93069 z"
       id="path5839-1-8-6"
       inkscape:connector-curvature="0" />
    <g
       style="font-style:normal;font-variant:normal;font-weight:normal;font-stretch:normal;font-size:25px;line-height:125%;font-family:STIXGeneral;-inkscape-font-specification:'STIXGeneral, Normal';text-align:start;letter-spacing:0px;word-spacing:0px;writing-mode:lr-tb;text-anchor:start;fill:#000000;fill-opacity:1;stroke:none"
       id="text5841-9">
      <path
         d="m 362.94088,346.21597 c -0.425,-2.225 -1.75,-6.375 -2.125,-6.375 l -0.1,0 c -1.35,0.2 -2.175,0.35 -2.675,0.45 -0.25,0.05 -0.525,0.1 -0.8,0.15 l 0,0.425 c 0.275,-0.075 0.5,-0.1 0.775,-0.1 1,0 1.45,0.375 1.925,1.6 0.675,1.7 2.05,7.3 2.05,8.3 0,0.275 -0.1,0.575 -0.25,0.875 -0.2,0.325 -1.325,1.8 -1.775,2.275 -0.575,0.625 -0.875,0.825 -1.2,0.825 -0.65,0 -0.65,-0.7 -1.525,-0.7 -0.55,0 -0.975,0.45 -0.975,1 0,0.65 0.525,1.075 1.275,1.075 1.425,0 4.1,-2.875 6.7,-7.175 2.075,-3.45 3.275,-6.2 3.275,-7.625 0,-0.75 -0.55,-1.375 -1.3,-1.375 -0.575,0 -1,0.375 -1,0.925 0,0.4 0.15,0.65 0.65,0.975 0.475,0.3 0.65,0.45 0.65,0.8 0,1.1 -0.925,2.9 -3.05,6.425 l -0.525,-2.75 z"
         style="font-style:italic;font-variant:normal;font-weight:normal;font-stretch:normal;font-size:25px;line-height:125%;font-family:STIXGeneral;-inkscape-font-specification:'STIXGeneral, Normal';text-align:start;writing-mode:lr-tb;text-anchor:start"
         id="path4375"
         inkscape:connector-curvature="0" />
      <path
         d="m 390.12486,342.86597 0,-1.65 -14.725,0 0,1.65 14.725,0 z m 0,5 0,-1.65 -14.725,0 0,1.65 14.725,0 z"
         id="path4377"
         inkscape:connector-curvature="0" />
      <path
         d="m 405.23736,354.89097 c -3.5,-2.925 -4.25,-5.75 -4.25,-10.4 0,-4.825 0.775,-7.15 4.25,-10.125 l -0.225,-0.4 c -4,2.375 -6.175,5.975 -6.175,10.6 0,4.25 2.15,8.475 6.1,10.725 l 0.3,-0.4 z"
         id="path4379"
         inkscape:connector-curvature="0" />
      <path
         d="m 417.88697,342.61597 c 0,-5.125 -2.275,-8.65 -5.55,-8.65 -4.025,0 -5.75,4.075 -5.75,8.5 0,4.1 1.375,8.75 5.65,8.75 4.075,0 5.65,-4.3 5.65,-8.6 z m -2.4,0.125 c 0,4.95 -1.125,7.825 -3.25,7.825 -2.15,0 -3.25,-2.85 -3.25,-7.925 0,-5.075 1.125,-8.025 3.2,-8.025 2.2,0 3.3,2.925 3.3,8.125 z"
         id="path4381"
         inkscape:connector-curvature="0" />
      <path
         d="m 420.56197,354.39097 c 1.725,-0.825 2.8,-2.4 2.8,-3.9 0,-1.3 -0.875,-2.175 -2,-2.175 -0.9,0 -1.5,0.575 -1.5,1.425 0,0.85 0.525,1.275 1.45,1.275 0.275,0 0.525,-0.1 0.725,-0.1 0.2,0 0.35,0.15 0.35,0.325 0,0.825 -0.7,1.75 -2.075,2.675 l 0.25,0.475 z"
         id="path4383"
         inkscape:connector-curvature="0" />
      <path
         d="m 440.83697,350.86597 0,-0.375 c -1.875,0 -2.375,-0.45 -2.375,-1.525 l 0,-14.925 -0.225,-0.075 -4.475,2.275 0,0.35 0.675,-0.25 c 0.45,-0.175 0.875,-0.3 1.125,-0.3 0.525,0 0.75,0.375 0.75,1.225 l 0,11.225 c 0,1.375 -0.525,1.9 -2.375,2 l 0,0.375 6.9,0 z"
         id="path4385"
         inkscape:connector-curvature="0" />
      <path
         d="m 444.21197,334.36597 c 3.625,2.85 4.25,5.725 4.25,10.4 0,4.85 -0.7,7.2 -4.25,10.125 l 0.225,0.4 c 3.975,-2.425 6.175,-5.975 6.175,-10.6 0,-4.25 -2.275,-8.425 -6.1,-10.725 l -0.3,0.4 z"
         id="path4387"
         inkscape:connector-curvature="0" />
    </g>
    <g
       style="font-style:normal;font-variant:normal;font-weight:normal;font-stretch:normal;font-size:25px;line-height:125%;font-family:STIXGeneral;-inkscape-font-specification:'STIXGeneral, Normal';text-align:start;letter-spacing:0px;word-spacing:0px;writing-mode:lr-tb;text-anchor:start;fill:#000000;fill-opacity:1;stroke:none"
       id="text5841-9-6">
      <path
         d="m 545.37634,383.13723 0,-0.275 -7.075,0 -0.8,2.9 0.4,0.1 c 0.5,-1.275 0.975,-1.5 2.275,-1.5 l 3.4,0 -7.75,9.3 0.225,0.225 c 0.4,-0.325 0.725,-0.45 1.125,-0.45 0.65,0 1.45,0.325 2.625,1.05 1.25,0.775 2.1,1.1 2.825,1.1 1.4,0 2.325,-0.9 2.325,-1.9 0,-0.55 -0.35,-0.925 -0.875,-0.925 -0.4,0 -0.8,0.425 -0.825,0.85 0,0.2 0.05,0.4 0.2,0.7 0.075,0.15 0.125,0.275 0.125,0.375 0,0.225 -0.275,0.375 -0.675,0.375 -0.625,0 -1.1,-0.3 -1.75,-1.25 -1,-1.475 -1.55,-1.75 -3,-2.075 l 7.225,-8.6 z"
         style="font-style:italic;font-variant:normal;font-weight:normal;font-stretch:normal;font-size:25px;line-height:125%;font-family:STIXGeneral;-inkscape-font-specification:'STIXGeneral, Normal';text-align:start;writing-mode:lr-tb;text-anchor:start"
         id="path4390"
         inkscape:connector-curvature="0" />
      <path
         d="m 567.76814,385.56223 0,-1.65 -14.725,0 0,1.65 14.725,0 z m 0,5 0,-1.65 -14.725,0 0,1.65 14.725,0 z"
         id="path4392"
         inkscape:connector-curvature="0" />
      <path
         d="m 582.88064,397.58723 c -3.5,-2.925 -4.25,-5.75 -4.25,-10.4 0,-4.825 0.775,-7.15 4.25,-10.125 l -0.225,-0.4 c -4,2.375 -6.175,5.975 -6.175,10.6 0,4.25 2.15,8.475 6.1,10.725 l 0.3,-0.4 z"
         id="path4394"
         inkscape:connector-curvature="0" />
      <path
         d="m 593.48025,393.56223 0,-0.375 c -1.875,0 -2.375,-0.45 -2.375,-1.525 l 0,-14.925 -0.225,-0.075 -4.475,2.275 0,0.35 0.675,-0.25 c 0.45,-0.175 0.875,-0.3 1.125,-0.3 0.525,0 0.75,0.375 0.75,1.225 l 0,11.225 c 0,1.375 -0.525,1.9 -2.375,2 l 0,0.375 6.9,0 z"
         id="path4396"
         inkscape:connector-curvature="0" />
      <path
         d="m 598.20525,397.08723 c 1.725,-0.825 2.8,-2.4 2.8,-3.9 0,-1.3 -0.875,-2.175 -2,-2.175 -0.9,0 -1.5,0.575 -1.5,1.425 0,0.85 0.525,1.275 1.45,1.275 0.275,0 0.525,-0.1 0.725,-0.1 0.2,0 0.35,0.15 0.35,0.325 0,0.825 -0.7,1.75 -2.075,2.675 l 0.25,0.475 z"
         id="path4398"
         inkscape:connector-curvature="0" />
      <path
         d="m 618.48025,393.56223 0,-0.375 c -1.875,0 -2.375,-0.45 -2.375,-1.525 l 0,-14.925 -0.225,-0.075 -4.475,2.275 0,0.35 0.675,-0.25 c 0.45,-0.175 0.875,-0.3 1.125,-0.3 0.525,0 0.75,0.375 0.75,1.225 l 0,11.225 c 0,1.375 -0.525,1.9 -2.375,2 l 0,0.375 6.9,0 z"
         id="path4400"
         inkscape:connector-curvature="0" />
      <path
         d="m 621.85525,377.06223 c 3.625,2.85 4.25,5.725 4.25,10.4 0,4.85 -0.7,7.2 -4.25,10.125 l 0.225,0.4 c 3.975,-2.425 6.175,-5.975 6.175,-10.6 0,-4.25 -2.275,-8.425 -6.1,-10.725 l -0.3,0.4 z"
         id="path4402"
         inkscape:connector-curvature="0" />
    </g>
    <g
       style="font-style:normal;font-weight:normal;font-size:25px;line-height:125%;font-family:sans-serif;letter-spacing:0px;word-spacing:0px;fill:#000000;fill-opacity:1;stroke:none;stroke-width:1px;stroke-linecap:butt;stroke-linejoin:miter;stroke-opacity:1"
       id="text4313" />
    <path
       transform="matrix(0.98728445,-0.15896355,0.15896355,0.98728445,-79.451874,45.459079)"
       style="fill:#000000;fill-opacity:1;stroke:none;stroke-width:1.5;stroke-linecap:round;stroke-linejoin:miter;stroke-miterlimit:4;stroke-dasharray:none;stroke-dashoffset:0;stroke-opacity:1;marker-end:"
       inkscape:transform-center-x="-0.39984582"
       inkscape:transform-center-y="1.3260933"
       d="m 250.96358,517.72978 -4.19443,4.05564 -4.19442,4.05564 -1.41508,-5.6603 -1.41507,-5.66029 5.6095,1.60465 z"
       id="path4325"
       inkscape:connector-curvature="0" />
    <path
       transform="matrix(0.98935555,-0.14551831,0.14551831,0.98935555,19.50852,237.69835)"
       style="fill:#000000;fill-opacity:1;stroke:none;stroke-width:1.5;stroke-linecap:round;stroke-linejoin:miter;stroke-miterlimit:4;stroke-dasharray:none;stroke-dashoffset:0;stroke-opacity:1;marker-end:"
       inkscape:transform-center-x="-0.44530548"
       inkscape:transform-center-y="1.2838491"
       d="m 250.96358,517.72978 -4.19443,4.05564 -4.19442,4.05564 -1.41508,-5.6603 -1.41507,-5.66029 5.6095,1.60465 z"
       id="path4327"
       inkscape:connector-curvature="0" />
    <path
       transform="matrix(-0.98935555,0.14551831,-0.14551831,-0.98935555,676.4465,1037.6492)"
       style="fill:#000000;fill-opacity:1;stroke:none;stroke-width:1.5;stroke-linecap:round;stroke-linejoin:miter;stroke-miterlimit:4;stroke-dasharray:none;stroke-dashoffset:0;stroke-opacity:1;marker-end:"
       inkscape:transform-center-x="0.44530357"
       inkscape:transform-center-y="-1.2838583"
       d="m 250.96358,517.72978 -4.19443,4.05564 -4.19442,4.05564 -1.41508,-5.6603 -1.41507,-5.66029 5.6095,1.60465 z"
       id="path4329"
       inkscape:connector-curvature="0" />
  </g>
</svg>
