<?xml version="1.0" encoding="UTF-8" standalone="no"?>
<!-- Created with Inkscape (http://www.inkscape.org/) -->

<svg
   xmlns:dc="http://purl.org/dc/elements/1.1/"
   xmlns:cc="http://creativecommons.org/ns#"
   xmlns:rdf="http://www.w3.org/1999/02/22-rdf-syntax-ns#"
   xmlns:svg="http://www.w3.org/2000/svg"
   xmlns="http://www.w3.org/2000/svg"
   xmlns:sodipodi="http://sodipodi.sourceforge.net/DTD/sodipodi-0.dtd"
   xmlns:inkscape="http://www.inkscape.org/namespaces/inkscape"
   width="102.6244mm"
   height="94.886551mm"
   viewBox="0 0 363.62978 336.21219"
   id="svg2"
   version="1.1"
   inkscape:version="0.91 r13725"
   sodipodi:docname="sum_of_odds.svg">
  <sodipodi:namedview
     id="base"
     pagecolor="#ffffff"
     bordercolor="#666666"
     borderopacity="1.0"
     inkscape:pageopacity="0.0"
     inkscape:pageshadow="2"
     inkscape:zoom="1.979899"
     inkscape:cx="146.16207"
     inkscape:cy="174.64378"
     inkscape:document-units="px"
     inkscape:current-layer="layer1"
     showgrid="false"
     inkscape:window-width="1440"
     inkscape:window-height="851"
     inkscape:window-x="0"
     inkscape:window-y="0"
     inkscape:window-maximized="0"
     fit-margin-top="5"
     fit-margin-left="5"
     fit-margin-right="5"
     fit-margin-bottom="5" />
  <defs
     id="defs4" />
  <metadata
     id="metadata7">
    <rdf:RDF>
      <cc:Work
         rdf:about="">
        <dc:format>image/svg+xml</dc:format>
        <dc:type
           rdf:resource="http://purl.org/dc/dcmitype/StillImage" />
        <dc:title />
      </cc:Work>
    </rdf:RDF>
  </metadata>
  <g
     inkscape:label="Layer 1"
     inkscape:groupmode="layer"
     id="layer1"
     transform="translate(7.9132495,-724.64455)">
    <g
       id="g6999">
      <path
         style="fill:#000000;fill-opacity:1;stroke:none;stroke-width:0;stroke-linecap:round;stroke-linejoin:miter;stroke-miterlimit:4;stroke-dasharray:none;stroke-dashoffset:0;stroke-opacity:1"
         d="m 38,742.36108 300,0 0,300.00002 -300,0 z"
         id="rect4233" />
      <path
         style="fill:#ffffff;fill-opacity:1;stroke:none;stroke-width:1;stroke-linecap:round;stroke-linejoin:miter;stroke-miterlimit:4;stroke-dasharray:none;stroke-dashoffset:0;stroke-opacity:1"
         d="m 38,792.36108 250,0 0,250.00002 -250,0 z"
         id="rect4263" />
      <path
         style="fill:#878787;fill-opacity:1;stroke:none;stroke-width:1;stroke-linecap:round;stroke-linejoin:miter;stroke-miterlimit:4;stroke-dasharray:none;stroke-dashoffset:0;stroke-opacity:1"
         d="m 38,842.36108 200,0 0,200.00002 -200,0 z"
         id="rect4265" />
      <path
         style="fill:#afafaf;fill-opacity:1;stroke:none;stroke-width:1;stroke-linecap:round;stroke-linejoin:miter;stroke-miterlimit:4;stroke-dasharray:none;stroke-dashoffset:0;stroke-opacity:1"
         d="m 38,892.36108 150,0 0,150.00002 -150,0 z"
         id="rect4267" />
      <path
         style="fill:#d7d7d7;fill-opacity:1;stroke:none;stroke-width:1;stroke-linecap:round;stroke-linejoin:miter;stroke-miterlimit:4;stroke-dasharray:none;stroke-dashoffset:0;stroke-opacity:1"
         d="m 38,942.36108 100,0 0,100.00002 -100,0 z"
         id="rect4269" />
      <path
         style="fill:#ffffff;fill-opacity:1;stroke:none;stroke-width:1;stroke-linecap:round;stroke-linejoin:miter;stroke-miterlimit:4;stroke-dasharray:none;stroke-dashoffset:0;stroke-opacity:1"
         d="m 38,992.36218 50,0 0,50.00002 -50,0 z"
         id="rect4271" />
    </g>
    <g
       style="font-style:normal;font-weight:normal;font-size:40px;line-height:125%;font-family:sans-serif;letter-spacing:0px;word-spacing:0px;fill:#000000;fill-opacity:1;stroke:none;stroke-width:1px;stroke-linecap:butt;stroke-linejoin:miter;stroke-opacity:1"
       id="text6785">
      <path
         d="m 66.981981,1025.2302 0,-0.375 c -1.875,0 -2.375,-0.45 -2.375,-1.525 l 0,-14.925 -0.225,-0.075 -4.475,2.275 0,0.35 0.675,-0.25 c 0.45,-0.175 0.875,-0.3 1.125,-0.3 0.525,0 0.75,0.375 0.75,1.225 l 0,11.225 c 0,1.375 -0.525,1.9 -2.375,2 l 0,0.375 6.9,0 z"
         style="font-style:normal;font-variant:normal;font-weight:normal;font-stretch:normal;font-size:25px;font-family:STIXGeneral;-inkscape-font-specification:STIXGeneral"
         id="path7033" />
    </g>
    <g
       style="font-style:normal;font-weight:normal;font-size:40px;line-height:125%;font-family:sans-serif;letter-spacing:0px;word-spacing:0px;fill:#000000;fill-opacity:1;stroke:none;stroke-width:1px;stroke-linecap:butt;stroke-linejoin:miter;stroke-opacity:1"
       id="text6789">
      <path
         d="m 108.265,962.98273 c 1.025,-1.85 2.175,-2.65 3.725,-2.65 1.65,0 2.7,0.85 2.7,2.55 0,1.525 -0.8,2.65 -2.025,3.35 -0.5,0.3 -1.15,0.575 -2.1,0.9 l 0,0.35 c 1.425,0 2,0.075 2.55,0.25 1.725,0.5 2.6,1.725 2.6,3.625 0,2.125 -1.4,3.825 -3.25,3.825 -0.7,0 -1.225,-0.125 -2.15,-0.775 -0.7,-0.5 -1.1,-0.65 -1.525,-0.65 -0.575,0 -1.025,0.375 -1.025,0.9 0,0.9 0.975,1.425 2.8,1.425 2.225,0 4.6,-0.725 5.8,-2.325 0.725,-0.95 1.15,-2.175 1.15,-3.5 0,-1.3 -0.4,-2.45 -1.1,-3.225 -0.525,-0.55 -0.975,-0.85 -2.075,-1.325 1.675,-1 2.325,-2.25 2.325,-3.45 0,-2.05 -1.575,-3.425 -3.9,-3.425 -2.6,0 -4.175,1.675 -4.9,4.05 l 0.4,0.1 z"
         style="font-style:normal;font-variant:normal;font-weight:normal;font-stretch:normal;font-size:25px;font-family:STIXGeneral;-inkscape-font-specification:STIXGeneral"
         id="path7036" />
    </g>
    <g
       style="font-style:normal;font-weight:normal;font-size:40px;line-height:125%;font-family:sans-serif;letter-spacing:0px;word-spacing:0px;fill:#000000;fill-opacity:1;stroke:none;stroke-width:1px;stroke-linecap:butt;stroke-linejoin:miter;stroke-opacity:1"
       id="text6793">
      <path
         d="m 168.08708,908.2001 -0.225,-0.175 c -0.4,0.525 -0.625,0.65 -1.2,0.65 l -5.175,0 -2.725,5.925 c 0,0 -0.025,0.075 -0.025,0.125 0,0.15 0.075,0.2 0.3,0.2 2.4,0 4.15,0.8 5.325,1.75 1.125,0.9 1.675,2.15 1.675,3.75 0,2.15 -1.625,4.225 -3.375,4.225 -0.5,0 -1.075,-0.225 -1.775,-0.8 -0.8,-0.65 -1.275,-0.775 -1.85,-0.775 -0.7,0 -1.125,0.325 -1.125,0.95 0,0.95 1.3,1.55 3.175,1.55 1.7,0 3.075,-0.375 4.25,-1.225 1.7,-1.25 2.45,-2.8 2.45,-5.2 0,-1.325 -0.225,-2.275 -0.875,-3.175 -1.425,-1.975 -2.675,-2.525 -6.25,-3.2 l 1,-2.125 4.85,0 c 0.4,0 0.6,-0.15 0.675,-0.325 l 0.9,-2.125 z"
         style="font-style:normal;font-variant:normal;font-weight:normal;font-stretch:normal;font-size:25px;font-family:STIXGeneral;-inkscape-font-specification:STIXGeneral"
         id="path7039" />
    </g>
    <g
       style="font-style:normal;font-weight:normal;font-size:40px;line-height:125%;font-family:sans-serif;letter-spacing:0px;word-spacing:0px;fill:#000000;fill-opacity:1;stroke:none;stroke-width:1px;stroke-linecap:butt;stroke-linejoin:miter;stroke-opacity:1"
       id="text6797">
      <path
         d="m 217.85955,860.56747 0,-0.4 -9.225,0 -1.5,3.675 0.45,0.225 c 1.05,-1.7 1.475,-2.05 2.925,-2.05 l 5.375,0 -4.95,14.9 1.625,0 5.3,-16.35 z"
         style="font-style:normal;font-variant:normal;font-weight:normal;font-stretch:normal;font-size:25px;font-family:STIXGeneral;-inkscape-font-specification:STIXGeneral"
         id="path7042" />
    </g>
    <g
       transform="matrix(0.70710678,-0.70710678,0.70710678,0.70710678,0,0)"
       style="font-style:normal;font-weight:normal;font-size:40px;line-height:125%;font-family:sans-serif;letter-spacing:0px;word-spacing:0px;fill:#000000;fill-opacity:1;stroke:none;stroke-width:1px;stroke-linecap:butt;stroke-linejoin:miter;stroke-opacity:1"
       id="text6801">
      <path
         d="m -399.70978,763.62578 c 0,-1.125 -0.975,-2.1375 -2.0625,-2.1375 -1.1625,0 -2.1,0.9375 -2.1,2.1 0,1.1625 0.9,2.0625 2.0625,2.0625 1.125,0 2.1,-0.9375 2.1,-2.025 z"
         style="font-style:normal;font-variant:normal;font-weight:normal;font-stretch:normal;font-size:37.5px;font-family:STIXGeneral;-inkscape-font-specification:STIXGeneral"
         id="path7045" />
      <path
         d="m -390.33478,763.62578 c 0,-1.125 -0.975,-2.1375 -2.0625,-2.1375 -1.1625,0 -2.1,0.9375 -2.1,2.1 0,1.1625 0.9,2.0625 2.0625,2.0625 1.125,0 2.1,-0.9375 2.1,-2.025 z"
         style="font-style:normal;font-variant:normal;font-weight:normal;font-stretch:normal;font-size:37.5px;font-family:STIXGeneral;-inkscape-font-specification:STIXGeneral"
         id="path7047" />
      <path
         d="m -380.95978,763.62578 c 0,-1.125 -0.975,-2.1375 -2.0625,-2.1375 -1.1625,0 -2.1,0.9375 -2.1,2.1 0,1.1625 0.9,2.0625 2.0625,2.0625 1.125,0 2.1,-0.9375 2.1,-2.025 z"
         style="font-style:normal;font-variant:normal;font-weight:normal;font-stretch:normal;font-size:37.5px;font-family:STIXGeneral;-inkscape-font-specification:STIXGeneral"
         id="path7049" />
    </g>
    <g
       style="font-style:normal;font-weight:normal;font-size:40px;line-height:125%;font-family:sans-serif;letter-spacing:0px;word-spacing:0px;fill:#000000;fill-opacity:1;stroke:none;stroke-width:1px;stroke-linecap:butt;stroke-linejoin:miter;stroke-opacity:1"
       id="text6825"
       transform="translate(0.59814585,0)">
      <path
         d="m 19.203287,1025.2302 0,-0.375 c -1.875,0 -2.375,-0.45 -2.375,-1.525 l 0,-14.925 -0.225,-0.075 -4.475,2.275 0,0.35 0.675,-0.25 c 0.45,-0.175 0.875,-0.3 1.125,-0.3 0.525,0 0.75,0.375 0.75,1.225 l 0,11.225 c 0,1.375 -0.525,1.9 -2.375,2 l 0,0.375 6.9,0 z"
         style="font-style:normal;font-variant:normal;font-weight:normal;font-stretch:normal;font-size:25px;font-family:STIXGeneral;-inkscape-font-specification:STIXGeneral"
         id="path7061"
         inkscape:connector-curvature="0" />
    </g>
    <g
       style="font-style:normal;font-weight:normal;font-size:40px;line-height:125%;font-family:sans-serif;letter-spacing:0px;word-spacing:0px;fill:#000000;fill-opacity:1;stroke:none;stroke-width:1px;stroke-linecap:butt;stroke-linejoin:miter;stroke-opacity:1"
       id="text6829"
       transform="translate(0.59814885,0)">
      <path
         d="m 21.228284,972.30773 -0.35,-0.15 c -0.825,1.4 -1.35,1.675 -2.4,1.675 l -5.85,0 4.125,-4.4 c 2.225,-2.35 3.2,-4.225 3.2,-6.2 0,-2.475 -1.8,-4.4 -4.625,-4.4 -3.075,0 -4.675,2.05 -5.2,4.975 l 0.525,0.125 c 1,-2.45 1.875,-3.25 3.675,-3.25 2.125,0 3.475,1.25 3.475,3.525 0,2.125 -0.9,4.025 -3.25,6.5 l -4.45,4.725 0,0.3 9.775,0 1.35,-3.425 z"
         style="font-style:normal;font-variant:normal;font-weight:normal;font-stretch:normal;font-size:25px;font-family:STIXGeneral;-inkscape-font-specification:STIXGeneral"
         id="path7064"
         inkscape:connector-curvature="0" />
    </g>
    <g
       style="font-style:normal;font-weight:normal;font-size:40px;line-height:125%;font-family:sans-serif;letter-spacing:0px;word-spacing:0px;fill:#000000;fill-opacity:1;stroke:none;stroke-width:1px;stroke-linecap:butt;stroke-linejoin:miter;stroke-opacity:1"
       id="text6833"
       transform="translate(0.59814785,0)">
      <path
         d="m 11.290785,912.4751 c 1.025,-1.85 2.175,-2.65 3.725,-2.65 1.65,0 2.7,0.85 2.7,2.55 0,1.525 -0.8,2.65 -2.025,3.35 -0.5,0.3 -1.15,0.575 -2.1,0.9 l 0,0.35 c 1.425,0 2,0.075 2.55,0.25 1.725,0.5 2.6,1.725 2.6,3.625 0,2.125 -1.4,3.825 -3.25,3.825 -0.7,0 -1.225,-0.125 -2.15,-0.775 -0.7,-0.5 -1.1,-0.65 -1.525,-0.65 -0.575,0 -1.025,0.375 -1.025,0.9 0,0.9 0.975,1.425 2.8,1.425 2.225,0 4.6,-0.725 5.8,-2.325 0.725,-0.95 1.15,-2.175 1.15,-3.5 0,-1.3 -0.4,-2.45 -1.1,-3.225 -0.525,-0.55 -0.975,-0.85 -2.075,-1.325 1.675,-1 2.325,-2.25 2.325,-3.45 0,-2.05 -1.575,-3.425 -3.9,-3.425 -2.6,0 -4.175,1.675 -4.9,4.05 l 0.4,0.1 z"
         style="font-style:normal;font-variant:normal;font-weight:normal;font-stretch:normal;font-size:25px;font-family:STIXGeneral;-inkscape-font-specification:STIXGeneral"
         id="path7067"
         inkscape:connector-curvature="0" />
    </g>
    <g
       style="font-style:normal;font-weight:normal;font-size:40px;line-height:125%;font-family:sans-serif;letter-spacing:0px;word-spacing:0px;fill:#000000;fill-opacity:1;stroke:none;stroke-width:1px;stroke-linecap:butt;stroke-linejoin:miter;stroke-opacity:1"
       id="text6837"
       transform="translate(0.598146,0)">
      <path
         d="m 21.428287,872.54247 0,-1.6 -2.575,0 0,-11.125 -1.1,0 -7.8500003,11.125 0,1.6 7.0000003,0 0,4.175 1.95,0 0,-4.175 2.575,0 z m -4.525,-1.6 -6,0 6,-8.575 0,8.575 z"
         style="font-style:normal;font-variant:normal;font-weight:normal;font-stretch:normal;font-size:25px;font-family:STIXGeneral;-inkscape-font-specification:STIXGeneral"
         id="path7070"
         inkscape:connector-curvature="0" />
    </g>
    <g
       transform="matrix(0,1,-1,0,0.59814685,0)"
       style="font-style:normal;font-weight:normal;font-size:40px;line-height:125%;font-family:sans-serif;letter-spacing:0px;word-spacing:0px;fill:#000000;fill-opacity:1;stroke:none;stroke-width:1px;stroke-linecap:butt;stroke-linejoin:miter;stroke-opacity:1"
       id="text6867">
      <path
         d="m 810.1116,-15.609536 c 0,-1.125 -0.975,-2.1375 -2.0625,-2.1375 -1.1625,0 -2.1,0.9375 -2.1,2.1 0,1.1625 0.9,2.0625 2.0625,2.0625 1.125,0 2.1,-0.9375 2.1,-2.025 z"
         style="font-style:normal;font-variant:normal;font-weight:normal;font-stretch:normal;font-size:37.5px;font-family:STIXGeneral;-inkscape-font-specification:STIXGeneral"
         id="path7073"
         inkscape:connector-curvature="0" />
      <path
         d="m 819.4866,-15.609536 c 0,-1.125 -0.975,-2.1375 -2.0625,-2.1375 -1.1625,0 -2.1,0.9375 -2.1,2.1 0,1.1625 0.9,2.0625 2.0625,2.0625 1.125,0 2.1,-0.9375 2.1,-2.025 z"
         style="font-style:normal;font-variant:normal;font-weight:normal;font-stretch:normal;font-size:37.5px;font-family:STIXGeneral;-inkscape-font-specification:STIXGeneral"
         id="path7075"
         inkscape:connector-curvature="0" />
      <path
         d="m 828.8616,-15.609536 c 0,-1.125 -0.975,-2.1375 -2.0625,-2.1375 -1.1625,0 -2.1,0.9375 -2.1,2.1 0,1.1625 0.9,2.0625 2.0625,2.0625 1.125,0 2.1,-0.9375 2.1,-2.025 z"
         style="font-style:normal;font-variant:normal;font-weight:normal;font-stretch:normal;font-size:37.5px;font-family:STIXGeneral;-inkscape-font-specification:STIXGeneral"
         id="path7077"
         inkscape:connector-curvature="0" />
    </g>
    <g
       id="g6930"
       inkscape:label="Grid_Polar:X5:Y5"
       transform="translate(38.117753,792.33976)"
       style="stroke:#000000;stroke-width:1;stroke-miterlimit:4;stroke-dasharray:1, 4;stroke-dashoffset:0;stroke-opacity:1">
      <g
         id="g6932"
         inkscape:label="MajorXGridlines"
         style="stroke:#000000;stroke-width:1;stroke-miterlimit:4;stroke-dasharray:1, 4;stroke-dashoffset:0;stroke-opacity:1">
        <path
           id="path6934"
           inkscape:label="MajorXDiv1"
           style="fill:none;stroke:#000000;stroke-width:1;stroke-miterlimit:4;stroke-dasharray:1, 4;stroke-dashoffset:0;stroke-opacity:1"
           d="m 50,0 0,250"
           inkscape:connector-curvature="0" />
        <path
           id="path6936"
           inkscape:label="MajorXDiv2"
           style="fill:none;stroke:#000000;stroke-width:1;stroke-miterlimit:4;stroke-dasharray:1, 4;stroke-dashoffset:0;stroke-opacity:1"
           d="m 100,0 0,250"
           inkscape:connector-curvature="0" />
        <path
           id="path6938"
           inkscape:label="MajorXDiv3"
           style="fill:none;stroke:#000000;stroke-width:1;stroke-miterlimit:4;stroke-dasharray:1, 4;stroke-dashoffset:0;stroke-opacity:1"
           d="m 150,0 0,250"
           inkscape:connector-curvature="0" />
        <path
           id="path6940"
           inkscape:label="MajorXDiv4"
           style="fill:none;stroke:#000000;stroke-width:1;stroke-miterlimit:4;stroke-dasharray:1, 4;stroke-dashoffset:0;stroke-opacity:1"
           d="m 200,0 0,250"
           inkscape:connector-curvature="0" />
      </g>
      <g
         id="g6942"
         inkscape:label="MajorYGridlines"
         style="stroke:#000000;stroke-width:1;stroke-miterlimit:4;stroke-dasharray:1, 4;stroke-dashoffset:0;stroke-opacity:1">
        <path
           id="path6944"
           inkscape:label="MajorYDiv1"
           style="fill:none;stroke:#000000;stroke-width:1;stroke-miterlimit:4;stroke-dasharray:1, 4;stroke-dashoffset:0;stroke-opacity:1"
           d="m 0,50 250,0"
           inkscape:connector-curvature="0" />
        <path
           id="path6946"
           inkscape:label="MajorYDiv2"
           style="fill:none;stroke:#000000;stroke-width:1;stroke-miterlimit:4;stroke-dasharray:1, 4;stroke-dashoffset:0;stroke-opacity:1"
           d="m 0,100 250,0"
           inkscape:connector-curvature="0" />
        <path
           id="path6948"
           inkscape:label="MajorYDiv3"
           style="fill:none;stroke:#000000;stroke-width:1;stroke-miterlimit:4;stroke-dasharray:1, 4;stroke-dashoffset:0;stroke-opacity:1"
           d="m 0,150 250,0"
           inkscape:connector-curvature="0" />
        <path
           id="path6950"
           inkscape:label="MajorYDiv4"
           style="fill:none;stroke:#000000;stroke-width:1;stroke-miterlimit:4;stroke-dasharray:1, 4;stroke-dashoffset:0;stroke-opacity:1"
           d="m 0,200 250,0"
           inkscape:connector-curvature="0" />
      </g>
      <path
         style="fill:none;stroke:#000000;stroke-width:1;stroke-miterlimit:4;stroke-dasharray:1, 4;stroke-dashoffset:0;stroke-opacity:1"
         d="m 0,0 250,0 0,250 -250,0 z"
         id="rect6952"
         inkscape:connector-curvature="0" />
    </g>
    <g
       style="font-style:normal;font-weight:normal;font-size:40px;line-height:125%;font-family:sans-serif;letter-spacing:0px;word-spacing:0px;fill:#000000;fill-opacity:1;stroke:none;stroke-width:1px;stroke-linecap:butt;stroke-linejoin:miter;stroke-opacity:1"
       id="text4214"
       transform="translate(0,-0.43243582)">
      <path
         d="m 21.663934,771.57372 c -0.175,0.225 -0.35,0.45 -0.525,0.65 -0.725,0.925 -1.175,1.325 -1.525,1.325 -0.300001,0 -0.400001,-0.225 -0.400001,-0.45 0,-0.2 0.1,-0.625 0.350001,-1.525 l 1.4,-5.075 c 0.15,-0.525 0.25,-1.05 0.25,-1.5 0,-0.9 -0.55,-1.525 -1.625,-1.525 -1.600001,0 -3.275001,1.5 -5.775001,5.5 l 1.675,-5.45 -0.1,-0.05 c -1.325,0.275 -2.025,0.375 -4.05,0.775 l 0,0.4 c 1.275,0.025 1.625,0.175 1.625,0.675 0,0.15 -0.025,0.3 -0.05,0.425 l -2.4,8.75 1.875,0 c 1.175,-3.95 1.375,-4.525 2.5,-6.2 1.575,-2.325 2.7,-3.55 3.7,-3.55 0.375,0 0.6,0.275 0.6,0.725 0,0.3 -0.15,1.2 -0.35,1.975 l -1.1,4.05 c -0.35,1.3 -0.4,1.625 -0.4,1.875 0,0.95 0.55,1.35 1.175,1.35 1.175001,0 1.800001,-0.5 3.500001,-2.825 l -0.35,-0.325 z"
         style="font-style:italic;font-variant:normal;font-weight:normal;font-stretch:normal;font-size:25.00000191px;font-family:STIXGeneral;-inkscape-font-specification:'STIXGeneral Italic'"
         id="path4231"
         inkscape:connector-curvature="0" />
    </g>
    <g
       style="font-style:normal;font-weight:normal;font-size:25px;line-height:125%;font-family:sans-serif;letter-spacing:0px;word-spacing:0px;fill:#ffffff;fill-opacity:1;stroke:none;stroke-width:1px;stroke-linecap:butt;stroke-linejoin:miter;stroke-opacity:1"
       id="text4191">
      <path
         d="m 302.43685,773.57878 -0.35,-0.15 c -0.825,1.4 -1.35,1.675 -2.4,1.675 l -5.85,0 4.125,-4.4 c 2.225,-2.35 3.2,-4.225 3.2,-6.2 0,-2.475 -1.8,-4.4 -4.625,-4.4 -3.075,0 -4.675,2.05 -5.2,4.975 l 0.525,0.125 c 1,-2.45 1.875,-3.25 3.675,-3.25 2.125,0 3.475,1.25 3.475,3.525 0,2.125 -0.9,4.025 -3.25,6.5 l -4.45,4.725 0,0.3 9.775,0 1.35,-3.425 z"
         style="font-style:normal;font-variant:normal;font-weight:normal;font-stretch:normal;font-family:STIXGeneral;-inkscape-font-specification:STIXGeneral;fill:#ffffff;fill-opacity:1"
         id="path4198" />
      <path
         d="m 314.58685,774.07878 c -0.175,0.225 -0.35,0.45 -0.525,0.65 -0.725,0.925 -1.175,1.325 -1.525,1.325 -0.3,0 -0.4,-0.225 -0.4,-0.45 0,-0.2 0.1,-0.625 0.35,-1.525 l 1.4,-5.075 c 0.15,-0.525 0.25,-1.05 0.25,-1.5 0,-0.9 -0.55,-1.525 -1.625,-1.525 -1.6,0 -3.275,1.5 -5.775,5.5 l 1.675,-5.45 -0.1,-0.05 c -1.325,0.275 -2.025,0.375 -4.05,0.775 l 0,0.4 c 1.275,0.025 1.625,0.175 1.625,0.675 0,0.15 -0.025,0.3 -0.05,0.425 l -2.4,8.75 1.875,0 c 1.175,-3.95 1.375,-4.525 2.5,-6.2 1.575,-2.325 2.7,-3.55 3.7,-3.55 0.375,0 0.6,0.275 0.6,0.725 0,0.3 -0.15,1.2 -0.35,1.975 l -1.1,4.05 c -0.35,1.3 -0.4,1.625 -0.4,1.875 0,0.95 0.55,1.35 1.175,1.35 1.175,0 1.8,-0.5 3.5,-2.825 l -0.35,-0.325 z"
         style="font-style:italic;font-variant:normal;font-weight:normal;font-stretch:normal;font-family:STIXGeneral;-inkscape-font-specification:'STIXGeneral Italic';fill:#ffffff;fill-opacity:1"
         id="path4200" />
      <path
         d="m 322.71185,772.15378 0,-1.575 -6.15,0 0,1.575 6.15,0 z"
         style="font-style:normal;font-variant:normal;font-weight:normal;font-stretch:normal;font-family:STIXGeneral;-inkscape-font-specification:STIXGeneral;fill:#ffffff;fill-opacity:1"
         id="path4202" />
      <path
         d="m 333.78646,777.00378 0,-0.375 c -1.875,0 -2.375,-0.45 -2.375,-1.525 l 0,-14.925 -0.225,-0.075 -4.475,2.275 0,0.35 0.675,-0.25 c 0.45,-0.175 0.875,-0.3 1.125,-0.3 0.525,0 0.75,0.375 0.75,1.225 l 0,11.225 c 0,1.375 -0.525,1.9 -2.375,2 l 0,0.375 6.9,0 z"
         style="font-style:normal;font-variant:normal;font-weight:normal;font-stretch:normal;font-family:STIXGeneral;-inkscape-font-specification:STIXGeneral;fill:#ffffff;fill-opacity:1"
         id="path4204" />
    </g>
  </g>
</svg>
