<?xml version="1.0" encoding="UTF-8" standalone="no"?>
<!-- Created with Inkscape (http://www.inkscape.org/) -->

<svg
   xmlns:dc="http://purl.org/dc/elements/1.1/"
   xmlns:cc="http://creativecommons.org/ns#"
   xmlns:rdf="http://www.w3.org/1999/02/22-rdf-syntax-ns#"
   xmlns:svg="http://www.w3.org/2000/svg"
   xmlns="http://www.w3.org/2000/svg"
   xmlns:sodipodi="http://sodipodi.sourceforge.net/DTD/sodipodi-0.dtd"
   xmlns:inkscape="http://www.inkscape.org/namespaces/inkscape"
   width="498.7796"
   height="337.49731"
   id="svg2"
   version="1.1"
   inkscape:version="0.91 r13725"
   sodipodi:docname="top abc.svg"
   inkscape:export-filename="C:\Users\shapie2\Documents\blog\introduction to topological spaces\top abc.png"
   inkscape:export-xdpi="90"
   inkscape:export-ydpi="90">
  <defs
     id="defs4">
    <marker
       inkscape:stockid="TriangleOutL"
       orient="auto"
       refY="0"
       refX="0"
       id="TriangleOutL"
       style="overflow:visible">
      <path
         id="path4132"
         d="m 5.77,0 -8.65,5 0,-10 8.65,5 z"
         style="fill-rule:evenodd;stroke:#000000;stroke-width:1pt"
         transform="scale(0.8,0.8)"
         inkscape:connector-curvature="0" />
    </marker>
    <marker
       inkscape:stockid="Arrow2Lend"
       orient="auto"
       refY="0"
       refX="0"
       id="Arrow2Lend"
       style="overflow:visible">
      <path
         id="path4011"
         style="fill-rule:evenodd;stroke-width:0.625;stroke-linejoin:round"
         d="M 8.7185878,4.0337352 -2.2072895,0.01601326 8.7185884,-4.0017078 c -1.7454984,2.3720609 -1.7354408,5.6174519 -6e-7,8.035443 z"
         transform="matrix(-1.1,0,0,-1.1,-1.1,0)"
         inkscape:connector-curvature="0" />
    </marker>
    <marker
       inkscape:stockid="Arrow1Lend"
       orient="auto"
       refY="0"
       refX="0"
       id="Arrow1Lend"
       style="overflow:visible">
      <path
         id="path3993"
         d="M 0,0 5,-5 -12.5,0 5,5 0,0 Z"
         style="fill-rule:evenodd;stroke:#000000;stroke-width:1pt"
         transform="matrix(-0.8,0,0,-0.8,-10,0)"
         inkscape:connector-curvature="0" />
    </marker>
  </defs>
  <sodipodi:namedview
     id="base"
     pagecolor="#ffffff"
     bordercolor="#666666"
     borderopacity="1.0"
     inkscape:pageopacity="0.0"
     inkscape:pageshadow="2"
     inkscape:zoom="1.1569609"
     inkscape:cx="292.9722"
     inkscape:cy="142.06525"
     inkscape:document-units="px"
     inkscape:current-layer="layer1"
     showgrid="false"
     inkscape:window-width="1440"
     inkscape:window-height="851"
     inkscape:window-x="0"
     inkscape:window-y="1"
     inkscape:window-maximized="1"
     fit-margin-top="5"
     fit-margin-right="5"
     fit-margin-bottom="5"
     fit-margin-left="5" />
  <metadata
     id="metadata7">
    <rdf:RDF>
      <cc:Work
         rdf:about="">
        <dc:format>image/svg+xml</dc:format>
        <dc:type
           rdf:resource="http://purl.org/dc/dcmitype/StillImage" />
        <dc:title></dc:title>
      </cc:Work>
    </rdf:RDF>
  </metadata>
  <g
     inkscape:label="Layer 1"
     inkscape:groupmode="layer"
     id="layer1"
     transform="translate(-123.32787,-356.1341)">
    <g
       style="font-style:normal;font-weight:normal;font-size:40px;line-height:125%;font-family:Sans;letter-spacing:0px;word-spacing:0px;fill:#000000;fill-opacity:1;stroke:none"
       id="text3980" />
    <path
       style="fill:none;stroke:#000000;stroke-width:0.97382593px;stroke-linecap:butt;stroke-linejoin:miter;stroke-opacity:1"
       d="m 529.5126,404.21154 c -46.56513,10.32167 -43.59288,29.08832 -34.67615,42.22498 8.91672,13.13667 1.98149,29.08832 1.98149,29.08832"
       inkscape:connector-curvature="0"
       id="path14" />
    <path
       transform="matrix(1.6827338,0,0,1.6409584,14.105336,-23.997046)"
       style="fill:#808080;stroke:#000000;stroke-width:0.87536758;stroke-miterlimit:4;stroke-dasharray:none;stroke-opacity:1"
       d="M 332.67328,340.97604 A 132.17822,45.049503 0 0 1 200.49506,386.02555 132.17822,45.049503 0 0 1 68.316833,340.97604 132.17822,45.049503 0 0 1 200.49506,295.92654 132.17822,45.049503 0 0 1 332.67328,340.97604 Z"
       id="path4728-8"
       inkscape:connector-curvature="0" />
    <path
       transform="translate(389.61879,198.01976)"
       style="fill:#000000;stroke:#000000;stroke-width:1.5;stroke-miterlimit:4;stroke-dasharray:none;stroke-opacity:1"
       d="m 120.79208,337.51071 a 5.9405942,5.9405942 0 0 1 -5.94059,5.9406 5.9405942,5.9405942 0 0 1 -5.9406,-5.9406 5.9405942,5.9405942 0 0 1 5.9406,-5.94059 5.9405942,5.9405942 0 0 1 5.94059,5.94059 z"
       id="path4616-3"
       inkscape:connector-curvature="0" />
    <path
       style="fill:#cccccc;stroke:#000000;stroke-width:1.5;stroke-miterlimit:4;stroke-dasharray:none;stroke-opacity:1"
       d="M 332.67328,340.97604 A 132.17822,45.049503 0 0 1 200.49506,386.02555 132.17822,45.049503 0 0 1 68.316833,340.97604 132.17822,45.049503 0 0 1 200.49506,295.92654 132.17822,45.049503 0 0 1 332.67328,340.97604 Z"
       id="path4728"
       inkscape:connector-curvature="0"
       transform="matrix(0.99978861,0,0,1.076125,81.230502,168.59763)" />
    <path
       transform="translate(112.36137,190.09898)"
       style="fill:#f2f2f2;stroke:#000000;stroke-width:1.5;stroke-miterlimit:4;stroke-dasharray:none;stroke-opacity:1"
       d="M 111.88119,345.43149 A 25.742575,25.742575 0 0 1 86.138611,371.17406 25.742575,25.742575 0 0 1 60.396036,345.43149 25.742575,25.742575 0 0 1 86.138611,319.68891 25.742575,25.742575 0 0 1 111.88119,345.43149 Z"
       id="path4648-2"
       inkscape:connector-curvature="0" />
    <g
       style="font-style:normal;font-variant:normal;font-weight:normal;font-stretch:normal;font-size:26.4375px;line-height:125%;font-family:'STIX Two Math';-inkscape-font-specification:'STIX Two Math, Normal';text-align:start;letter-spacing:0px;word-spacing:0px;writing-mode:lr-tb;text-anchor:start;fill:#000000;fill-opacity:1;stroke:none"
       id="text4743"
       transform="translate(2,0)">
      <path
         d="m 213.56598,540.0889 c 0.15863,1.16325 0.423,1.77131 1.58625,1.77131 1.34832,0 1.98282,-0.55518 2.85525,-1.82418 l -0.39656,-0.423 c -0.37012,0.39656 -0.74025,0.66093 -1.24256,0.66093 -0.55519,0 -0.79313,-0.2115 -0.79313,-1.29543 l 0,-6.00132 c 0,-2.7495 -1.08393,-4.07137 -3.96562,-4.07137 -2.88169,0 -4.653,1.42762 -4.653,2.90812 0,0.87244 0.58162,1.269 1.11037,1.269 0.74025,0 1.16325,-0.39656 1.16325,-1.21612 0,-1.58625 0.26438,-2.14144 1.77132,-2.14144 1.58625,0 2.37937,0.87244 2.37937,3.1725 l 0,1.16325 c -2.27362,0.71381 -6.95306,1.40119 -6.95306,4.89094 0,1.692 1.11037,2.961 3.14606,2.961 1.692,0 2.64375,-0.74025 3.88631,-1.82419 l 0.10575,0 z m -0.18506,-0.79312 c -0.89887,0.74025 -1.85062,1.16325 -2.72306,1.16325 -1.13681,0 -1.9035,-0.81957 -1.9035,-2.14144 0,-2.06213 2.22075,-2.77594 4.62656,-3.384 l 0,4.36219 z"
         id="path4190"
         inkscape:connector-curvature="0" />
    </g>
    <g
       style="font-style:normal;font-variant:normal;font-weight:normal;font-stretch:normal;font-size:26.4375px;line-height:125%;font-family:'STIX Two Math';-inkscape-font-specification:'STIX Two Math, Normal';text-align:start;letter-spacing:0px;word-spacing:0px;writing-mode:lr-tb;text-anchor:start;fill:#000000;fill-opacity:1;stroke:none"
       id="text4743-2"
       transform="translate(2,0)">
      <path
         d="m 363.31023,523.06224 -0.68738,0 -3.41043,0.92531 0,0.74025 c 0,0 0.31725,-0.0529 0.74025,-0.0529 1.00462,0 1.16325,0.2115 1.16325,1.40119 l 0,14.85788 c 0.6345,0.34368 2.16787,1.0575 4.41506,1.0575 3.67481,0 6.345,-2.48513 6.345,-7.21744 0,-3.43688 -1.79775,-5.86913 -4.41506,-5.86913 -1.77132,0 -3.14607,1.13682 -4.07138,2.24719 l -0.0793,0 0,-8.08987 z m 0,9.25312 c 0.47587,-0.6345 1.63912,-1.61269 2.98744,-1.61269 2.51156,0 3.1725,2.37938 3.1725,4.91738 0,2.93456 -0.95175,5.2875 -3.46332,5.2875 -1.40118,0 -2.19431,-0.6345 -2.69662,-1.24256 l 0,-7.34963 z"
         id="path4193"
         inkscape:connector-curvature="0" />
    </g>
    <g
       transform="scale(1.0368918,0.96442078)"
       style="font-style:normal;font-variant:normal;font-weight:normal;font-stretch:normal;font-size:26.4375px;line-height:125%;font-family:'STIX Two Math';-inkscape-font-specification:'STIX Two Math, Normal';text-align:start;letter-spacing:0px;word-spacing:0px;writing-mode:lr-tb;text-anchor:start;fill:#000000;fill-opacity:1;stroke:none"
       id="text6836">
      <path
         d="m 146.64369,701.13477 0,1.55981 c 1.18969,0.0264 2.98744,0.423 2.98744,2.3265 0,1.269 -1.0575,3.27825 -1.0575,4.99669 0,2.82881 2.51156,4.0185 5.076,4.0185 l 0,-0.79312 c -1.50694,0 -3.04031,-1.18969 -3.04031,-2.93457 0,-1.9035 0.79312,-2.72306 0.79312,-4.62656 0,-2.06212 -1.53337,-3.14606 -2.90812,-3.70125 l 0,-0.13219 c 1.29544,-0.55518 2.90812,-1.63912 2.90812,-3.70125 0,-1.9035 -0.79312,-2.72306 -0.79312,-4.62656 0,-1.74487 1.53337,-2.93456 3.04031,-2.93456 l 0,-0.79313 c -2.56444,0 -5.076,1.18969 -5.076,4.0185 0,1.71844 1.0575,3.72769 1.0575,4.99669 0,1.9035 -1.79775,2.30006 -2.98744,2.3265 z"
         id="path4196"
         inkscape:connector-curvature="0" />
      <path
         d="m 162.88086,707.47977 c 0.15863,1.16325 0.423,1.77131 1.58625,1.77131 1.34832,0 1.98282,-0.55518 2.85525,-1.82418 l -0.39656,-0.423 c -0.37012,0.39656 -0.74025,0.66093 -1.24256,0.66093 -0.55519,0 -0.79313,-0.2115 -0.79313,-1.29543 l 0,-6.00132 c 0,-2.7495 -1.08393,-4.07137 -3.96562,-4.07137 -2.88169,0 -4.653,1.42762 -4.653,2.90812 0,0.87244 0.58162,1.269 1.11037,1.269 0.74025,0 1.16325,-0.39656 1.16325,-1.21612 0,-1.58625 0.26438,-2.14144 1.77132,-2.14144 1.58625,0 2.37937,0.87244 2.37937,3.1725 l 0,1.16325 c -2.27362,0.71381 -6.95306,1.40119 -6.95306,4.89094 0,1.692 1.11037,2.961 3.14606,2.961 1.692,0 2.64375,-0.74025 3.88631,-1.82419 l 0.10575,0 z m -0.18506,-0.79312 c -0.89887,0.74025 -1.85062,1.16325 -2.72306,1.16325 -1.13681,0 -1.9035,-0.81957 -1.9035,-2.14144 0,-2.06213 2.22075,-2.77594 4.62656,-3.384 l 0,4.36219 z"
         id="path4198"
         inkscape:connector-curvature="0" />
      <path
         d="m 175.45231,701.13477 c -1.18969,-0.0264 -2.98744,-0.423 -2.98744,-2.3265 0,-1.269 1.0575,-3.27825 1.0575,-4.99669 0,-2.82881 -2.51156,-4.0185 -5.076,-4.0185 l 0,0.79313 c 1.50694,0 3.04031,1.18969 3.04031,2.93456 0,1.9035 -0.79312,2.72306 -0.79312,4.62656 0,2.06213 1.61269,3.14607 2.90812,3.70125 l 0,0.13219 c -1.37475,0.55519 -2.90812,1.63913 -2.90812,3.70125 0,1.9035 0.79312,2.72306 0.79312,4.62656 0,1.74488 -1.53337,2.93457 -3.04031,2.93457 l 0,0.79312 c 2.56444,0 5.076,-1.18969 5.076,-4.0185 0,-1.71844 -1.0575,-3.72769 -1.0575,-4.99669 0,-1.9035 1.79775,-2.30006 2.98744,-2.3265 l 0,-1.55981 z"
         id="path4200"
         inkscape:connector-curvature="0" />
    </g>
    <g
       transform="scale(1.0368918,0.96442078)"
       style="font-style:normal;font-weight:normal;font-size:30.01599121px;line-height:125%;font-family:Sans;letter-spacing:0px;word-spacing:0px;fill:#000000;fill-opacity:1;stroke:none"
       id="text6836-9">
      <path
         d="m 263.87881,385.18199 0,1.475 c 1.125,0.025 2.825,0.4 2.825,2.2 0,1.2 -1,3.1 -1,4.725 0,2.675 2.375,3.8 4.8,3.8 l 0,-0.75 c -1.425,0 -2.875,-1.125 -2.875,-2.775 0,-1.8 0.75,-2.575 0.75,-4.375 0,-1.95 -1.45,-2.975 -2.75,-3.5 l 0,-0.125 c 1.225,-0.525 2.75,-1.55 2.75,-3.5 0,-1.8 -0.75,-2.575 -0.75,-4.375 0,-1.65 1.45,-2.775 2.875,-2.775 l 0,-0.75 c -2.425,0 -4.8,1.125 -4.8,3.8 0,1.625 1,3.525 1,4.725 0,1.8 -1.7,2.175 -2.825,2.2 z"
         style="font-style:normal;font-variant:normal;font-weight:normal;font-stretch:normal;font-size:25px;font-family:'STIX Two Math';-inkscape-font-specification:'STIX Two Math'"
         id="path4203"
         inkscape:connector-curvature="0" />
      <path
         d="m 279.23311,391.18199 c 0.15,1.1 0.4,1.675 1.5,1.675 1.275,0 1.875,-0.525 2.7,-1.725 l -0.375,-0.4 c -0.35,0.375 -0.7,0.625 -1.175,0.625 -0.525,0 -0.75,-0.2 -0.75,-1.225 l 0,-5.675 c 0,-2.6 -1.025,-3.85 -3.75,-3.85 -2.725,0 -4.4,1.35 -4.4,2.75 0,0.825 0.55,1.2 1.05,1.2 0.7,0 1.1,-0.375 1.1,-1.15 0,-1.5 0.25,-2.025 1.675,-2.025 1.5,0 2.25,0.825 2.25,3 l 0,1.1 c -2.15,0.675 -6.575,1.325 -6.575,4.625 0,1.6 1.05,2.8 2.975,2.8 1.6,0 2.5,-0.7 3.675,-1.725 l 0.1,0 z m -0.175,-0.75 c -0.85,0.7 -1.75,1.1 -2.575,1.1 -1.075,0 -1.8,-0.775 -1.8,-2.025 0,-1.95 2.1,-2.625 4.375,-3.2 l 0,4.125 z"
         style="font-style:normal;font-variant:normal;font-weight:normal;font-stretch:normal;font-size:25px;font-family:'STIX Two Math';-inkscape-font-specification:'STIX Two Math'"
         id="path4205"
         inkscape:connector-curvature="0" />
      <path
         d="m 285.346,396.28199 c 1,-0.45 3.1,-1.3 3.1,-4.125 0,-1.375 -0.675,-2.2 -1.925,-2.2 -1,0 -1.55,0.675 -1.55,1.475 0,0.725 0.4,1.35 1.375,1.35 0.275,0 0.5,-0.05 0.775,-0.15 0,2.025 -1.15,2.625 -2.075,3.025 l 0.3,0.625 z"
         style="font-style:normal;font-variant:normal;font-weight:normal;font-stretch:normal;font-size:25px;font-family:'STIX Two Math';-inkscape-font-specification:'STIX Two Math'"
         id="path4207"
         inkscape:connector-curvature="0" />
      <path
         d="m 299.68038,375.08199 -0.65,0 -3.225,0.875 0,0.7 c 0,0 0.3,-0.05 0.7,-0.05 0.95,0 1.1,0.2 1.1,1.325 l 0,14.05 c 0.6,0.325 2.05,1 4.175,1 3.475,0 6,-2.35 6,-6.825 0,-3.25 -1.7,-5.55 -4.175,-5.55 -1.675,0 -2.975,1.075 -3.85,2.125 l -0.075,0 0,-7.65 z m 0,8.75 c 0.45,-0.6 1.55,-1.525 2.825,-1.525 2.375,0 3,2.25 3,4.65 0,2.775 -0.9,5 -3.275,5 -1.325,0 -2.075,-0.6 -2.55,-1.175 l 0,-6.95 z"
         style="font-style:normal;font-variant:normal;font-weight:normal;font-stretch:normal;font-size:25px;font-family:'STIX Two Math';-inkscape-font-specification:'STIX Two Math'"
         id="path4209"
         inkscape:connector-curvature="0" />
      <path
         d="m 316.31631,385.18199 c -1.125,-0.025 -2.825,-0.4 -2.825,-2.2 0,-1.2 1,-3.1 1,-4.725 0,-2.675 -2.375,-3.8 -4.8,-3.8 l 0,0.75 c 1.425,0 2.875,1.125 2.875,2.775 0,1.8 -0.75,2.575 -0.75,4.375 0,1.95 1.525,2.975 2.75,3.5 l 0,0.125 c -1.3,0.525 -2.75,1.55 -2.75,3.5 0,1.8 0.75,2.575 0.75,4.375 0,1.65 -1.45,2.775 -2.875,2.775 l 0,0.75 c 2.425,0 4.8,-1.125 4.8,-3.8 0,-1.625 -1,-3.525 -1,-4.725 0,-1.8 1.7,-2.175 2.825,-2.2 l 0,-1.475 z"
         style="font-style:normal;font-variant:normal;font-weight:normal;font-stretch:normal;font-size:25px;font-family:'STIX Two Math';-inkscape-font-specification:'STIX Two Math'"
         id="path4211"
         inkscape:connector-curvature="0" />
    </g>
    <path
       style="fill:none;stroke:#000000;stroke-width:0.98772949px;stroke-linecap:butt;stroke-linejoin:miter;stroke-opacity:1"
       d="m 175.71625,658.2178 c 23.3964,-35.32668 4.33267,-45.42001 2.5996,-64.76557 -1.73307,-19.34556 6.06574,-31.12111 6.06574,-31.12111"
       inkscape:connector-curvature="0"
       id="path34" />
    <path
       transform="translate(83.648499,198.01976)"
       style="fill:#000000;stroke:#000000;stroke-width:1.5;stroke-miterlimit:4;stroke-dasharray:none;stroke-opacity:1"
       d="m 120.79208,337.51071 a 5.9405942,5.9405942 0 0 1 -5.94059,5.9406 5.9405942,5.9405942 0 0 1 -5.9406,-5.9406 5.9405942,5.9405942 0 0 1 5.9406,-5.94059 5.9405942,5.9405942 0 0 1 5.94059,5.94059 z"
       id="path4616"
       inkscape:connector-curvature="0" />
    <path
       transform="translate(236.63364,198.01976)"
       style="fill:#000000;stroke:#000000;stroke-width:1.5;stroke-miterlimit:4;stroke-dasharray:none;stroke-opacity:1"
       d="m 120.79208,337.51071 a 5.9405942,5.9405942 0 0 1 -5.94059,5.9406 5.9405942,5.9405942 0 0 1 -5.9406,-5.9406 5.9405942,5.9405942 0 0 1 5.9406,-5.94059 5.9405942,5.9405942 0 0 1 5.94059,5.94059 z"
       id="path4616-1"
       inkscape:connector-curvature="0" />
    <g
       style="font-style:normal;font-variant:normal;font-weight:normal;font-stretch:normal;font-size:26.4375px;line-height:125%;font-family:'STIX Two Math';-inkscape-font-specification:'STIX Two Math, Normal';text-align:start;letter-spacing:0px;word-spacing:0px;writing-mode:lr-tb;text-anchor:start;fill:#000000;fill-opacity:1;stroke:none"
       id="text4743-5"
       transform="translate(2,0)">
      <path
         d="m 522.77445,537.8143 c -1.18969,1.53338 -2.08857,2.19431 -3.807,2.19431 -2.72307,0 -4.0185,-2.27362 -4.0185,-5.499 0,-3.04031 1.29543,-4.62656 3.43687,-4.62656 2.27363,0 1.40119,3.01388 3.35756,3.01388 0.74025,0 1.11038,-0.423 1.11038,-1.18969 0,-1.53338 -1.53338,-2.80238 -4.0185,-2.80238 -3.807,0 -5.97488,2.69663 -5.97488,6.84732 0,3.67481 1.98282,6.23925 5.2875,6.23925 2.82882,0 4.12425,-1.66557 5.12888,-3.807 l -0.50231,-0.37013 z"
         id="path4216"
         inkscape:connector-curvature="0" />
    </g>
    <g
       id="g4234" />
    <g
       transform="scale(1.0368918,0.96442078)"
       style="font-style:normal;font-variant:normal;font-weight:normal;font-stretch:normal;font-size:26.4375px;line-height:125%;font-family:'STIX Two Math';-inkscape-font-specification:'STIX Two Math, Normal';text-align:start;letter-spacing:0px;word-spacing:0px;writing-mode:lr-tb;text-anchor:start;fill:#000000;fill-opacity:1;stroke:none"
       id="text6836-9-5">
      <path
         d="m 515.63635,417.908 0,1.55981 c 1.18969,0.0264 2.98744,0.423 2.98744,2.3265 0,1.269 -1.0575,3.27825 -1.0575,4.99669 0,2.82881 2.51156,4.0185 5.076,4.0185 l 0,-0.79313 c -1.50694,0 -3.04031,-1.18969 -3.04031,-2.93456 0,-1.9035 0.79312,-2.72306 0.79312,-4.62656 0,-2.06213 -1.53337,-3.14607 -2.90812,-3.70125 l 0,-0.13219 c 1.29544,-0.55519 2.90812,-1.63913 2.90812,-3.70125 0,-1.9035 -0.79312,-2.72306 -0.79312,-4.62656 0,-1.74488 1.53337,-2.93457 3.04031,-2.93457 l 0,-0.79312 c -2.56444,0 -5.076,1.18969 -5.076,4.0185 0,1.71844 1.0575,3.72769 1.0575,4.99669 0,1.9035 -1.79775,2.30006 -2.98744,2.3265 z"
         id="path4219"
         inkscape:connector-curvature="0" />
      <path
         d="m 531.87352,424.253 c 0.15863,1.16325 0.423,1.77131 1.58625,1.77131 1.34832,0 1.98282,-0.55519 2.85525,-1.82419 l -0.39656,-0.423 c -0.37012,0.39656 -0.74025,0.66094 -1.24256,0.66094 -0.55519,0 -0.79313,-0.2115 -0.79313,-1.29544 l 0,-6.00131 c 0,-2.7495 -1.08393,-4.07138 -3.96562,-4.07138 -2.88169,0 -4.653,1.42763 -4.653,2.90813 0,0.87244 0.58162,1.269 1.11037,1.269 0.74025,0 1.16325,-0.39656 1.16325,-1.21613 0,-1.58625 0.26438,-2.14143 1.77132,-2.14143 1.58625,0 2.37937,0.87243 2.37937,3.1725 l 0,1.16325 c -2.27362,0.71381 -6.95306,1.40118 -6.95306,4.89093 0,1.692 1.11037,2.961 3.14606,2.961 1.692,0 2.64375,-0.74025 3.88631,-1.82418 l 0.10575,0 z m -0.18506,-0.79313 c -0.89887,0.74025 -1.85062,1.16325 -2.72306,1.16325 -1.13681,0 -1.9035,-0.81956 -1.9035,-2.14144 0,-2.06212 2.22075,-2.77593 4.62656,-3.384 l 0,4.36219 z"
         id="path4221"
         inkscape:connector-curvature="0" />
      <path
         d="m 538.33791,429.64625 c 1.0575,-0.47588 3.27825,-1.37475 3.27825,-4.36219 0,-1.45406 -0.71382,-2.3265 -2.03569,-2.3265 -1.0575,0 -1.63913,0.71381 -1.63913,1.55981 0,0.76669 0.423,1.42763 1.45407,1.42763 0.29081,0 0.52875,-0.0529 0.81956,-0.15863 0,2.14144 -1.21613,2.77594 -2.19431,3.19894 l 0.31725,0.66094 z"
         id="path4223"
         inkscape:connector-curvature="0" />
      <path
         d="m 553.49651,407.22725 -0.68738,0 -3.41044,0.92531 0,0.74025 c 0,0 0.31725,-0.0529 0.74025,-0.0529 1.00463,0 1.16325,0.2115 1.16325,1.40119 l 0,14.85788 c 0.6345,0.34368 2.16788,1.0575 4.41507,1.0575 3.67481,0 6.345,-2.48513 6.345,-7.21744 0,-3.43688 -1.79775,-5.86913 -4.41507,-5.86913 -1.77131,0 -3.14606,1.13682 -4.07137,2.24719 l -0.0793,0 0,-8.08987 z m 0,9.25312 c 0.47587,-0.6345 1.63912,-1.61269 2.98743,-1.61269 2.51157,0 3.1725,2.37938 3.1725,4.91738 0,2.93456 -0.95175,5.2875 -3.46331,5.2875 -1.40119,0 -2.19431,-0.6345 -2.69662,-1.24256 l 0,-7.34963 z"
         id="path4225"
         inkscape:connector-curvature="0" />
      <path
         d="m 564.46559,429.64625 c 1.0575,-0.47588 3.27825,-1.37475 3.27825,-4.36219 0,-1.45406 -0.71381,-2.3265 -2.03569,-2.3265 -1.0575,0 -1.63912,0.71381 -1.63912,1.55981 0,0.76669 0.423,1.42763 1.45406,1.42763 0.29081,0 0.52875,-0.0529 0.81956,-0.15863 0,2.14144 -1.21612,2.77594 -2.19431,3.19894 l 0.31725,0.66094 z"
         id="path4227"
         inkscape:connector-curvature="0" />
      <path
         d="m 586.10138,421.97937 c -1.18969,1.53338 -2.08856,2.19431 -3.807,2.19431 -2.72306,0 -4.0185,-2.27362 -4.0185,-5.499 0,-3.04031 1.29544,-4.62656 3.43688,-4.62656 2.27362,0 1.40118,3.01388 3.35756,3.01388 0.74025,0 1.11037,-0.423 1.11037,-1.18969 0,-1.53338 -1.53337,-2.80238 -4.0185,-2.80238 -3.807,0 -5.97487,2.69663 -5.97487,6.84732 0,3.67481 1.98281,6.23925 5.2875,6.23925 2.82881,0 4.12425,-1.66557 5.12887,-3.807 l -0.50231,-0.37013 z"
         id="path4229"
         inkscape:connector-curvature="0" />
      <path
         d="m 595.15127,417.908 c -1.18969,-0.0264 -2.98744,-0.423 -2.98744,-2.3265 0,-1.269 1.0575,-3.27825 1.0575,-4.99669 0,-2.82881 -2.51156,-4.0185 -5.076,-4.0185 l 0,0.79312 c 1.50694,0 3.04031,1.18969 3.04031,2.93457 0,1.9035 -0.79312,2.72306 -0.79312,4.62656 0,2.06212 1.61268,3.14606 2.90812,3.70125 l 0,0.13219 c -1.37475,0.55518 -2.90812,1.63912 -2.90812,3.70125 0,1.9035 0.79312,2.72306 0.79312,4.62656 0,1.74487 -1.53337,2.93456 -3.04031,2.93456 l 0,0.79313 c 2.56444,0 5.076,-1.18969 5.076,-4.0185 0,-1.71844 -1.0575,-3.72769 -1.0575,-4.99669 0,-1.9035 1.79775,-2.30006 2.98744,-2.3265 l 0,-1.55981 z"
         id="path4231"
         inkscape:connector-curvature="0" />
    </g>
    <g
       style="font-style:normal;font-weight:normal;font-size:25px;line-height:125%;font-family:sans-serif;letter-spacing:0px;word-spacing:0px;fill:#000000;fill-opacity:1;stroke:none;stroke-width:1px;stroke-linecap:butt;stroke-linejoin:miter;stroke-opacity:1"
       id="text4180" />
    <path
       id="path4197"
       inkscape:connector-curvature="0"
       d="m 288.17264,485.25498 c -3.80093,-45.71667 23.27913,-44.50324 24.29635,-64.76557 0.97386,-19.3986 -12.26954,-33.56581 -12.26954,-33.56581"
       style="fill:none;stroke:#000000;stroke-width:0.98772949px;stroke-linecap:butt;stroke-linejoin:miter;stroke-opacity:1"
       sodipodi:nodetypes="csc" />
    <path
       transform="matrix(-0.17483285,-0.98459813,0.98459813,-0.17483285,-37.401102,785.75711)"
       style="fill:#000000;fill-opacity:1;stroke:none;stroke-width:2;stroke-linecap:round;stroke-linejoin:miter;stroke-miterlimit:4;stroke-dasharray:none;stroke-dashoffset:0;stroke-opacity:1"
       inkscape:transform-center-x="0.17488651"
       inkscape:transform-center-y="0.99190891"
       d="m 244.42224,377.72829 -3.22603,-2.31774 -3.22602,-2.31774 3.62024,-1.63495 3.62023,-1.63495 -0.39421,3.95269 z"
       id="path4201" />
    <path
       transform="matrix(-0.59519023,-0.80358485,0.80358485,-0.59519023,28.339108,980.12617)"
       style="fill:#000000;fill-opacity:1;stroke:none;stroke-width:2;stroke-linecap:round;stroke-linejoin:miter;stroke-miterlimit:4;stroke-dasharray:none;stroke-dashoffset:0;stroke-opacity:1"
       inkscape:transform-center-x="1.1177795"
       inkscape:transform-center-y="-0.033248511"
       d="m 244.42224,377.72829 -3.22603,-2.31774 -3.22602,-2.31774 3.62024,-1.63495 3.62023,-1.63495 -0.39421,3.95269 z"
       id="path4204" />
    <path
       transform="matrix(0.25278526,-0.96752242,0.96752242,0.25278526,74.56836,614.64641)"
       style="fill:#000000;fill-opacity:1;stroke:none;stroke-width:2;stroke-linecap:round;stroke-linejoin:miter;stroke-miterlimit:4;stroke-dasharray:none;stroke-dashoffset:0;stroke-opacity:1"
       inkscape:transform-center-x="-0.79708812"
       inkscape:transform-center-y="0.38493257"
       d="m 244.42224,377.72829 -3.22603,-2.31774 -3.22602,-2.31774 3.62024,-1.63495 3.62023,-1.63495 -0.39421,3.95269 z"
       id="path4206" />
  </g>
</svg>
