<?xml version="1.0" encoding="UTF-8" standalone="no"?>
<!-- Created with Inkscape (http://www.inkscape.org/) -->

<svg
   xmlns:osb="http://www.openswatchbook.org/uri/2009/osb"
   xmlns:dc="http://purl.org/dc/elements/1.1/"
   xmlns:cc="http://creativecommons.org/ns#"
   xmlns:rdf="http://www.w3.org/1999/02/22-rdf-syntax-ns#"
   xmlns:svg="http://www.w3.org/2000/svg"
   xmlns="http://www.w3.org/2000/svg"
   xmlns:sodipodi="http://sodipodi.sourceforge.net/DTD/sodipodi-0.dtd"
   xmlns:inkscape="http://www.inkscape.org/namespaces/inkscape"
   width="344.1875"
   height="202.91246"
   id="svg2"
   version="1.1"
   inkscape:version="0.91 r13725"
   inkscape:export-filename="C:\Users\shapie2\Documents\blog\set theory\complement.png"
   inkscape:export-xdpi="90"
   inkscape:export-ydpi="90"
   sodipodi:docname="torus.svg">
  <sodipodi:namedview
     id="base"
     pagecolor="#ffffff"
     bordercolor="#666666"
     borderopacity="1.0"
     inkscape:pageopacity="0.0"
     inkscape:pageshadow="2"
     inkscape:zoom="1"
     inkscape:cx="-66.03449"
     inkscape:cy="77.263847"
     inkscape:document-units="px"
     inkscape:current-layer="text4942"
     showgrid="false"
     inkscape:window-width="1440"
     inkscape:window-height="851"
     inkscape:window-x="0"
     inkscape:window-y="1"
     inkscape:window-maximized="1"
     fit-margin-top="5"
     fit-margin-left="5"
     fit-margin-right="5"
     fit-margin-bottom="5" />
  <defs
     id="defs4">
    <marker
       inkscape:stockid="Arrow1Lend"
       orient="auto"
       refY="0"
       refX="0"
       id="Arrow1Lend"
       style="overflow:visible">
      <path
         id="path5860"
         d="M 0,0 5,-5 -12.5,0 5,5 0,0 Z"
         style="fill-rule:evenodd;stroke:#000000;stroke-width:1pt"
         transform="matrix(-0.8,0,0,-0.8,-10,0)"
         inkscape:connector-curvature="0" />
    </marker>
    <marker
       inkscape:stockid="Arrow1Lstart"
       orient="auto"
       refY="0"
       refX="0"
       id="Arrow1Lstart"
       style="overflow:visible">
      <path
         id="path5857"
         d="M 0,0 5,-5 -12.5,0 5,5 0,0 Z"
         style="fill-rule:evenodd;stroke:#000000;stroke-width:1pt"
         transform="matrix(0.8,0,0,0.8,10,0)"
         inkscape:connector-curvature="0" />
    </marker>
    <marker
       inkscape:stockid="Arrow1Mstart"
       orient="auto"
       refY="0"
       refX="0"
       id="Arrow1Mstart"
       style="overflow:visible">
      <path
         id="path5863"
         d="M 0,0 5,-5 -12.5,0 5,5 0,0 Z"
         style="fill-rule:evenodd;stroke:#000000;stroke-width:1pt"
         transform="matrix(0.4,0,0,0.4,4,0)"
         inkscape:connector-curvature="0" />
    </marker>
    <inkscape:perspective
       id="perspective3842"
       inkscape:persp3d-origin="372.04724 : 350.78739 : 1"
       inkscape:vp_z="744.09448 : 526.18109 : 1"
       inkscape:vp_y="0 : 1000 : 0"
       inkscape:vp_x="0 : 526.18109 : 1"
       sodipodi:type="inkscape:persp3d" />
    <linearGradient
       osb:paint="solid"
       id="linearGradient3767">
      <stop
         id="stop3769"
         offset="0"
         style="stop-color:#000000;stop-opacity:1;" />
    </linearGradient>
    <clipPath
       id="clipPath">
      <path
         transform="translate(188.11881,50.49505)"
         d="m 135.64357,430.58002 c 4.41814,7.29737 -7.65695,9.55583 -12.12871,7.34324 -12.11818,-5.99598 -10.14383,-22.92012 -2.55777,-31.60066 13.56967,-15.52745 37.96718,-11.74119 51.07261,2.22769 19.23274,20.49991 13.44048,53.23811 -7.01317,70.54456 -27.2615,23.06678 -68.591073,15.18649 -90.016507,-11.79863 C 48.038302,433.3382 58.042704,383.31244 91.584125,357.80776 132.20728,326.91818 190.98312,339.06511 220.54454,379.17733 255.38164,426.44819 241.08163,494.00559 194.3895,527.60969 140.48158,566.40695 64.122588,549.94733 26.485186,496.66919 -16.280822,436.13117 2.3427647,350.95705 62.211161,309.29292 129.37445,262.55207 223.37332,283.34263 269.05937,349.80437 c 50.72018,73.78512 27.76046,176.61579 -45.29691,226.32016"
         sodipodi:t0="0"
         sodipodi:argument="-17.823172"
         sodipodi:radius="170.14154"
         sodipodi:revolution="3"
         sodipodi:expansion="1"
         sodipodi:cy="430.58002"
         sodipodi:cx="135.64357"
         id="path4282"
         style="fill:none;stroke:#000000;stroke-width:1px;stroke-linecap:butt;stroke-linejoin:miter;stroke-opacity:1"
         sodipodi:type="spiral" />
    </clipPath>
    <filter
       y="-0.5"
       x="-0.5"
       width="2"
       height="2"
       id="filter"
       style="color-interpolation-filters:sRGB">
      <feGaussianBlur
         id="feGaussianBlur4292"
         stdDeviation="5.0" />
    </filter>
    <filter
       id="filter5212"
       inkscape:label="Blur content"
       inkscape:menu="Blurs"
       inkscape:menu-tooltip="Blur the contents of objects, preserving the outline"
       style="color-interpolation-filters:sRGB">
      <feColorMatrix
         id="feColorMatrix5214"
         values="1 0 0 0 0 0 1 0 0 0 0 0 1 0 0 0 0 0 1 0 "
         result="result7" />
      <feGaussianBlur
         id="feGaussianBlur5216"
         result="result6"
         stdDeviation="5" />
      <feComposite
         id="feComposite5218"
         in2="result7"
         operator="atop"
         in="result6"
         result="result91" />
      <feComposite
         id="feComposite5220"
         in2="result91"
         operator="in" />
    </filter>
    <filter
       id="filter5235"
       inkscape:label="Blur content"
       inkscape:menu="Blurs"
       inkscape:menu-tooltip="Blur the contents of objects, preserving the outline"
       style="color-interpolation-filters:sRGB">
      <feColorMatrix
         id="feColorMatrix5237"
         values="1 0 0 0 0 0 1 0 0 0 0 0 1 0 0 0 0 0 1 0 "
         result="result7" />
      <feGaussianBlur
         id="feGaussianBlur5239"
         result="result6"
         stdDeviation="5" />
      <feComposite
         id="feComposite5241"
         in2="result7"
         operator="atop"
         in="result6"
         result="result91" />
      <feComposite
         id="feComposite5243"
         in2="result91"
         operator="in" />
    </filter>
    <filter
       id="filter5258"
       inkscape:label="Blur content"
       inkscape:menu="Blurs"
       inkscape:menu-tooltip="Blur the contents of objects, preserving the outline"
       style="color-interpolation-filters:sRGB">
      <feColorMatrix
         id="feColorMatrix5260"
         values="1 0 0 0 0 0 1 0 0 0 0 0 1 0 0 0 0 0 1 0 "
         result="result7" />
      <feGaussianBlur
         id="feGaussianBlur5262"
         result="result6"
         stdDeviation="5" />
      <feComposite
         id="feComposite5264"
         in2="result7"
         operator="atop"
         in="result6"
         result="result91" />
      <feComposite
         id="feComposite5266"
         in2="result91"
         operator="in" />
    </filter>
    <filter
       id="filter5483"
       inkscape:label="Fire"
       inkscape:menu="Protrusions"
       inkscape:menu-tooltip="Edges of object are on fire"
       y="-0.2"
       width="1.2"
       height="1.4"
       x="-0.1"
       style="color-interpolation-filters:sRGB">
      <feColorMatrix
         id="feColorMatrix5485"
         values="1 0 0 0 0 0 1 0 0 0 0 0 1 0 0 0 0 0 1 0 "
         result="fbSourceGraphic" />
      <feGaussianBlur
         id="feGaussianBlur5487"
         stdDeviation="3"
         result="result1" />
      <feOffset
         id="feOffset5489"
         dx="2"
         dy="2"
         result="result6" />
      <feComposite
         id="feComposite5491"
         in2="result1"
         operator="in"
         result="result2"
         in="result6" />
      <feColorMatrix
         id="feColorMatrix5493"
         values="110"
         result="result3"
         type="hueRotate" />
      <feBlend
         id="feBlend5495"
         in2="result3"
         mode="screen"
         in="result2"
         result="result4" />
      <feConvolveMatrix
         id="feConvolveMatrix5497"
         order="3 3"
         kernelMatrix="-2 0 2 0 4 0 2 0 2"
         divisor="2"
         bias="0"
         targetX="0"
         in="result4"
         result="result5" />
      <feComposite
         id="feComposite5499"
         in2="result5"
         operator="atop"
         in="result2"
         result="fbSourceGraphic" />
      <feColorMatrix
         result="fbSourceGraphicAlpha"
         in="fbSourceGraphic"
         values="0 0 0 -1 0 0 0 0 -1 0 0 0 0 -1 0 0 0 0 1 0"
         id="feColorMatrix5513" />
      <feMorphology
         id="feMorphology5515"
         result="result1"
         radius="2.4"
         operator="dilate"
         in="fbSourceGraphic" />
      <feTurbulence
         id="feTurbulence5517"
         baseFrequency="0.09 0.028"
         numOctaves="1" />
      <feColorMatrix
         id="feColorMatrix5519"
         result="result2"
         values="2 0 0 0 0 0 2 0 0 0 0 0 0 0 0 0 0 0 1 0" />
      <feDisplacementMap
         id="feDisplacementMap5521"
         in2="result2"
         result="result4"
         scale="10.31941"
         yChannelSelector="G"
         xChannelSelector="R"
         in="result1" />
      <feFlood
         id="feFlood5523"
         result="result3"
         flood-opacity="1"
         flood-color="rgb(255,159,54)" />
      <feMorphology
         id="feMorphology5525"
         radius="3.8"
         result="result7"
         in="result4" />
      <feGaussianBlur
         id="feGaussianBlur5527"
         result="result7"
         in="result7"
         stdDeviation="2.4" />
      <feComposite
         id="feComposite5529"
         in2="result4"
         result="result5"
         in="result3"
         operator="in" />
      <feComposite
         id="feComposite5531"
         in2="result7"
         operator="out" />
      <feOffset
         id="feOffset5533"
         result="result6"
         dy="-7"
         dx="-4.5" />
      <feGaussianBlur
         id="feGaussianBlur5535"
         result="result7"
         stdDeviation="4.8" />
      <feComposite
         id="feComposite5537"
         in2="result6"
         in="fbSourceGraphic"
         result="result8" />
      <feComposite
         id="feComposite5539"
         in2="result7" />
    </filter>
    <filter
       id="filter5629"
       inkscape:label="Snow"
       style="color-interpolation-filters:sRGB">
      <feConvolveMatrix
         id="feConvolveMatrix5631"
         order="3 3"
         kernelMatrix="1 1 1 0 0 0 -1 -1 -1"
         preserveAlpha="false"
         divisor="3" />
      <feMorphology
         id="feMorphology5633"
         operator="dilate"
         radius="1 13.9" />
      <feGaussianBlur
         id="feGaussianBlur5635"
         stdDeviation="1.6270889487870621"
         result="result0" />
      <feColorMatrix
         id="feColorMatrix5637"
         values="0 0 0 0 0 0 0 0 0 0 0 0 0 0 0 0 0 0 10 0"
         result="result1" />
      <feOffset
         id="feOffset5639"
         dx="0"
         dy="1"
         result="result5" />
      <feDiffuseLighting
         id="feDiffuseLighting5641"
         in="result0"
         diffuseConstant="2.26130652"
         surfaceScale="1"
         result="result6">
        <feDistantLight
           id="feDistantLight5643"
           azimuth="225"
           elevation="32" />
      </feDiffuseLighting>
      <feComposite
         id="feComposite5645"
         in2="result1"
         operator="in"
         result="result2" />
      <feColorMatrix
         id="feColorMatrix5647"
         values="0.4 0 0 0 0.6 0 0.4 0 0 0.6 0 0 0 0 1 0 0 0 1 0"
         result="result4" />
      <feComposite
         id="feComposite5649"
         in2="result5"
         in="result4"
         result="result7" />
      <feComposite
         id="feComposite5651"
         in2="SourceGraphic"
         result="fbSourceGraphic" />
      <feColorMatrix
         result="fbSourceGraphicAlpha"
         in="fbSourceGraphic"
         values="0 0 0 -1 0 0 0 0 -1 0 0 0 0 -1 0 0 0 0 1 0"
         id="feColorMatrix5653" />
      <feConvolveMatrix
         id="feConvolveMatrix5655"
         order="3 3"
         kernelMatrix="1 1 1 0 0 0 -1 -1 -1"
         preserveAlpha="false"
         divisor="3"
         in="fbSourceGraphic" />
      <feMorphology
         id="feMorphology5657"
         operator="dilate"
         radius="1 13.9" />
      <feGaussianBlur
         id="feGaussianBlur5659"
         stdDeviation="1.6270889487870621"
         result="result0" />
      <feColorMatrix
         id="feColorMatrix5661"
         values="0 0 0 0 0 0 0 0 0 0 0 0 0 0 0 0 0 0 10 0"
         result="result1" />
      <feOffset
         id="feOffset5663"
         dx="0"
         dy="1"
         result="result5" />
      <feDiffuseLighting
         id="feDiffuseLighting5665"
         in="result0"
         diffuseConstant="2.26130652"
         surfaceScale="1"
         result="result8">
        <feDistantLight
           id="feDistantLight5667"
           azimuth="225"
           elevation="32" />
      </feDiffuseLighting>
      <feComposite
         id="feComposite5669"
         in2="result1"
         operator="in"
         result="result2" />
      <feColorMatrix
         id="feColorMatrix5671"
         values="0.4 0 0 0 0.6 0 0.4 0 0 0.6 0 0 0 0 1 0 0 0 1 0"
         result="result4" />
      <feComposite
         id="feComposite5673"
         in2="result5"
         in="result4"
         result="result9" />
      <feComposite
         id="feComposite5675"
         in2="fbSourceGraphic"
         result="fbSourceGraphic" />
      <feColorMatrix
         result="fbSourceGraphicAlpha"
         in="fbSourceGraphic"
         values="0 0 0 -1 0 0 0 0 -1 0 0 0 0 -1 0 0 0 0 1 0"
         id="feColorMatrix5677" />
      <feConvolveMatrix
         id="feConvolveMatrix5679"
         order="3 3"
         kernelMatrix="1 1 1 0 0 0 -1 -1 -1"
         preserveAlpha="false"
         divisor="3"
         in="fbSourceGraphic" />
      <feMorphology
         id="feMorphology5681"
         operator="dilate"
         radius="1 13.9" />
      <feGaussianBlur
         id="feGaussianBlur5683"
         stdDeviation="1.6270889487870621"
         result="result0" />
      <feColorMatrix
         id="feColorMatrix5685"
         values="0 0 0 0 0 0 0 0 0 0 0 0 0 0 0 0 0 0 10 0"
         result="result1" />
      <feOffset
         id="feOffset5687"
         dx="0"
         dy="1"
         result="result5" />
      <feDiffuseLighting
         id="feDiffuseLighting5689"
         in="result0"
         diffuseConstant="2.26130652"
         surfaceScale="1"
         result="result10">
        <feDistantLight
           id="feDistantLight5691"
           azimuth="225"
           elevation="32" />
      </feDiffuseLighting>
      <feComposite
         id="feComposite5693"
         in2="result1"
         operator="in"
         result="result2" />
      <feColorMatrix
         id="feColorMatrix5695"
         values="0.4 0 0 0 0.6 0 0.4 0 0 0.6 0 0 0 0 1 0 0 0 1 0"
         result="result4" />
      <feComposite
         id="feComposite5697"
         in2="result5"
         in="result4"
         result="result11" />
      <feComposite
         id="feComposite5699"
         in2="fbSourceGraphic"
         result="fbSourceGraphic" />
      <feColorMatrix
         result="fbSourceGraphicAlpha"
         in="fbSourceGraphic"
         values="0 0 0 -1 0 0 0 0 -1 0 0 0 0 -1 0 0 0 0 1 0"
         id="feColorMatrix5701" />
      <feConvolveMatrix
         id="feConvolveMatrix5703"
         order="3 3"
         kernelMatrix="1 1 1 0 0 0 -1 -1 -1"
         preserveAlpha="false"
         divisor="3"
         in="fbSourceGraphic" />
      <feMorphology
         id="feMorphology5705"
         operator="dilate"
         radius="1 13.9" />
      <feGaussianBlur
         id="feGaussianBlur5707"
         stdDeviation="1.6270889487870621"
         result="result0" />
      <feColorMatrix
         id="feColorMatrix5709"
         values="0 0 0 0 0 0 0 0 0 0 0 0 0 0 0 0 0 0 10 0"
         result="result1" />
      <feOffset
         id="feOffset5711"
         dx="0"
         dy="1"
         result="result5" />
      <feDiffuseLighting
         id="feDiffuseLighting5713"
         in="result0"
         diffuseConstant="2.26130652"
         surfaceScale="1"
         result="result12">
        <feDistantLight
           id="feDistantLight5715"
           azimuth="225"
           elevation="32" />
      </feDiffuseLighting>
      <feComposite
         id="feComposite5717"
         in2="result1"
         operator="in"
         result="result2" />
      <feColorMatrix
         id="feColorMatrix5719"
         values="0.4 0 0 0 0.6 0 0.4 0 0 0.6 0 0 0 0 1 0 0 0 1 0"
         result="result4" />
      <feComposite
         id="feComposite5721"
         in2="result5"
         in="result4"
         result="result13" />
      <feComposite
         id="feComposite5723"
         in2="fbSourceGraphic"
         result="fbSourceGraphic" />
      <feColorMatrix
         result="fbSourceGraphicAlpha"
         in="fbSourceGraphic"
         values="0 0 0 -1 0 0 0 0 -1 0 0 0 0 -1 0 0 0 0 1 0"
         id="feColorMatrix5725" />
      <feConvolveMatrix
         id="feConvolveMatrix5727"
         order="3 3"
         kernelMatrix="1 1 1 0 0 0 -1 -1 -1"
         preserveAlpha="false"
         divisor="3"
         in="fbSourceGraphic" />
      <feMorphology
         id="feMorphology5729"
         operator="dilate"
         radius="1 13.9" />
      <feGaussianBlur
         id="feGaussianBlur5731"
         stdDeviation="1.6270889487870621"
         result="result0" />
      <feColorMatrix
         id="feColorMatrix5733"
         values="0 0 0 0 0 0 0 0 0 0 0 0 0 0 0 0 0 0 10 0"
         result="result1" />
      <feOffset
         id="feOffset5735"
         dx="0"
         dy="1"
         result="result5" />
      <feDiffuseLighting
         id="feDiffuseLighting5737"
         in="result0"
         diffuseConstant="2.26130652"
         surfaceScale="1"
         result="result14">
        <feDistantLight
           id="feDistantLight5739"
           azimuth="225"
           elevation="32" />
      </feDiffuseLighting>
      <feComposite
         id="feComposite5741"
         in2="result1"
         operator="in"
         result="result2" />
      <feColorMatrix
         id="feColorMatrix5743"
         values="0.4 0 0 0 0.6 0 0.4 0 0 0.6 0 0 0 0 1 0 0 0 1 0"
         result="result4" />
      <feComposite
         id="feComposite5745"
         in2="result5"
         in="result4"
         result="result15" />
      <feComposite
         id="feComposite5747"
         in2="fbSourceGraphic" />
    </filter>
    <marker
       inkscape:stockid="Arrow1Lstart"
       orient="auto"
       refY="0"
       refX="0"
       id="Arrow1Lstart-9"
       style="overflow:visible">
      <path
         inkscape:connector-curvature="0"
         id="path5857-4"
         d="M 0,0 5,-5 -12.5,0 5,5 0,0 Z"
         style="fill-rule:evenodd;stroke:#000000;stroke-width:1pt"
         transform="matrix(0.8,0,0,0.8,10,0)" />
    </marker>
    <marker
       inkscape:stockid="Arrow1Lend"
       orient="auto"
       refY="0"
       refX="0"
       id="Arrow1Lend-4"
       style="overflow:visible">
      <path
         inkscape:connector-curvature="0"
         id="path5860-3"
         d="M 0,0 5,-5 -12.5,0 5,5 0,0 Z"
         style="fill-rule:evenodd;stroke:#000000;stroke-width:1pt"
         transform="matrix(-0.8,0,0,-0.8,-10,0)" />
    </marker>
  </defs>
  <metadata
     id="metadata7">
    <rdf:RDF>
      <cc:Work
         rdf:about="">
        <dc:format>image/svg+xml</dc:format>
        <dc:type
           rdf:resource="http://purl.org/dc/dcmitype/StillImage" />
        <dc:title />
      </cc:Work>
    </rdf:RDF>
  </metadata>
  <g
     id="layer1"
     inkscape:groupmode="layer"
     inkscape:label="Layer 1"
     transform="translate(-133.97765,-386.32255)">
    <path
       style="color:#000000;display:inline;overflow:visible;visibility:visible;fill:#f2f2f2;fill-opacity:1;fill-rule:nonzero;stroke:#000000;stroke-width:1.5;stroke-linecap:round;stroke-linejoin:round;stroke-miterlimit:4;stroke-dasharray:none;stroke-dashoffset:0;stroke-opacity:1;marker:none;enable-background:accumulate"
       d="m 306.0714,424.07876 c -91.86519,0 -166.34375,35.70001 -166.34375,79.71875 0,44.01874 74.47856,79.6875 166.34375,79.6875 91.86519,0 166.34375,-35.66876 166.34375,-79.6875 0,-44.01874 -74.47856,-79.71875 -166.34375,-79.71875 z m -3.34375,56.4375 c 1.11293,-0.0167 2.2168,0 3.34375,0 36.06228,0 65.3125,8.63801 65.3125,19.3125 0,10.67449 -29.25022,19.34375 -65.3125,19.34375 -36.06228,0 -65.28125,-8.66926 -65.28125,-19.34375 0,-10.34091 27.43678,-18.79484 61.9375,-19.3125 z"
       id="path3972-4"
       inkscape:connector-curvature="0" />
    <g
       id="g4931"
       transform="matrix(0.99757479,-0.07067552,0.06960278,1.0129498,-24.773713,12.705943)">
      <path
         transform="translate(133.97765,418.32876)"
         id="path4929"
         d="m 196.0396,102.34189 c 0,0 0,0 0,0 7.38202,0 13.36634,14.18504 13.36634,31.68317 l 0,0 c 0,17.49813 -5.98432,31.68317 -13.36634,31.68317 0,0 0,0 0,0"
         style="color:#000000;display:inline;overflow:visible;visibility:visible;fill:none;stroke:#000000;stroke-width:1;stroke-linecap:round;stroke-linejoin:round;stroke-miterlimit:4;stroke-dasharray:none;stroke-dashoffset:0;stroke-opacity:1;marker:none;enable-background:accumulate"
         inkscape:connector-curvature="0" />
      <path
         transform="translate(133.97765,418.32876)"
         id="path4923"
         d="m 196.0396,165.70823 c -7.38203,0 -13.36633,-14.18504 -13.36633,-31.68317 0,-17.49813 5.9843,-31.68317 13.36633,-31.68317"
         style="color:#000000;display:inline;overflow:visible;visibility:visible;fill:none;stroke:#000000;stroke-width:1;stroke-linecap:round;stroke-linejoin:round;stroke-miterlimit:4;stroke-dasharray:3, 3;stroke-dashoffset:0;stroke-opacity:1;marker:none;enable-background:accumulate"
         inkscape:connector-curvature="0" />
    </g>
    <path
       style="color:#000000;display:inline;overflow:visible;visibility:visible;fill:none;stroke:#000000;stroke-width:1;stroke-linecap:round;stroke-linejoin:round;stroke-miterlimit:4;stroke-dasharray:3, 3;stroke-dashoffset:0;stroke-opacity:1;marker:none;enable-background:accumulate"
       d="m 5.6692503,85.51492 c -5.94e-5,-0.0206 -8.91e-5,-0.0412 -8.91e-5,-0.0618 0,-32.642462 74.5108278,-59.104406 166.4245888,-59.104406 91.91377,0 166.4246,26.461944 166.4246,59.104406 l 0,0 c 0,0.0206 -3e-5,0.0412 -9e-5,0.0618"
       id="path4940"
       transform="translate(133.97765,418.32876)"
       inkscape:connector-curvature="0" />
    <path
       style="color:#000000;display:inline;overflow:visible;visibility:visible;fill:none;stroke:#000000;stroke-width:1;stroke-linecap:round;stroke-linejoin:round;stroke-miterlimit:4;stroke-dasharray:none;stroke-dashoffset:0;stroke-opacity:1;marker:none;enable-background:accumulate"
       d="m 338.51826,85.514923 c -0.094,32.614057 -74.56876,59.042607 -166.42451,59.042607 -91.855749,0 -166.3305263,-26.42855 -166.4244997,-59.04261"
       id="path4935"
       transform="translate(133.97765,418.32876)"
       inkscape:connector-curvature="0" />
    <g
       transform="translate(133.97765,418.32876)"
       style="font-style:normal;font-variant:normal;font-weight:normal;font-stretch:normal;font-size:32px;line-height:125%;font-family:'Palatino LT Std';-inkscape-font-specification:'Palatino LT Std';letter-spacing:0px;word-spacing:0px;fill:#000000;fill-opacity:1;stroke:none"
       id="text4942">
      <g
         style="font-style:normal;font-variant:normal;font-weight:normal;font-stretch:normal;font-size:25px;line-height:125%;font-family:STIXGeneral;-inkscape-font-specification:STIXGeneral;letter-spacing:0px;word-spacing:0px;fill:#000000;fill-opacity:1;stroke:none;stroke-width:1px;stroke-linecap:butt;stroke-linejoin:miter;stroke-opacity:1"
         id="text3460">
        <path
           d="m 152.36844,-22.69621 -0.575,0 c -0.35,0.525 -0.575,0.65 -1.125,0.65 -0.325,0 -0.625,-0.075 -1.15,-0.275 -0.525,-0.225 -1.35,-0.35 -2.125,-0.35 -2.4,0 -4.45,1.475 -4.45,4.1 0,1.35 0.375,2.15 1.875,3.75 0.325,0.325 0.625,0.675 0.975,1.05 l 0.975,1.05 c 1.15,1.25 1.5,2 1.5,3.0750003 0,1.9 -1.35,3.2 -3.275,3.2 -2.1,0 -3.6,-1.725 -3.6,-4.1750003 0,-0.175 0,-0.35 0.05,-0.575 l -0.5,-0.05 -0.85,5.6000003 0.45,0 c 0.175,-0.575 0.575,-0.8 1.075,-0.8 0.275,0 0.5,0.05 1.175,0.3 1.15,0.4 1.825,0.575 2.6,0.575 2.875,0 5.05,-2.025 5.05,-4.8750003 0,-1.625 -0.55,-2.7 -2.825,-5 -2.275,-2.275 -2.475,-2.675 -2.475,-3.9 0,-1.575 1.075,-2.5 2.8,-2.5 2.425,0 2.975,1.525 2.975,4.075 l 0.45,0.075 1,-5 z"
           style="font-style:italic"
           id="path3499" />
        <path
           d="m 158.57094,-16.02121 0,-0.24375 c -1.21875,0 -1.54375,-0.2925 -1.54375,-0.99125 l 0,-9.70125 -0.14625,-0.04875 -2.90875,1.47875 0,0.2275 0.43875,-0.1625 c 0.2925,-0.11375 0.56875,-0.195 0.73125,-0.195 0.34125,0 0.4875,0.24375 0.4875,0.79625 l 0,7.29625 c 0,0.89375 -0.34125,1.235 -1.54375,1.3 l 0,0.24375 4.485,0 z"
           style="font-style:normal;font-variant:normal;font-weight:normal;font-stretch:normal;font-size:64.99999762%;font-family:STIXGeneral;-inkscape-font-specification:STIXGeneral;baseline-shift:super"
           id="path3501" />
        <path
           d="m 177.85094,-6.5712097 -5.75,-5.7500003 5.75,-5.8 -1.15,-1.125 -5.775,5.75 -5.75,-5.75 -1.175,1.15 5.75,5.775 -5.75,5.7750003 1.15,1.15 5.775,-5.7500003 5.775,5.7500003 1.15,-1.175 z"
           style="font-style:normal;font-variant:normal;font-weight:normal;font-stretch:normal;font-family:STIXGeneral;-inkscape-font-specification:STIXGeneral"
           id="path3503" />
        <path
           d="m 197.89157,-22.69621 -0.575,0 c -0.35,0.525 -0.575,0.65 -1.125,0.65 -0.325,0 -0.625,-0.075 -1.15,-0.275 -0.525,-0.225 -1.35,-0.35 -2.125,-0.35 -2.4,0 -4.45,1.475 -4.45,4.1 0,1.35 0.375,2.15 1.875,3.75 0.325,0.325 0.625,0.675 0.975,1.05 l 0.975,1.05 c 1.15,1.25 1.5,2 1.5,3.0750003 0,1.9 -1.35,3.2 -3.275,3.2 -2.1,0 -3.6,-1.725 -3.6,-4.1750003 0,-0.175 0,-0.35 0.05,-0.575 l -0.5,-0.05 -0.85,5.6000003 0.45,0 c 0.175,-0.575 0.575,-0.8 1.075,-0.8 0.275,0 0.5,0.05 1.175,0.3 1.15,0.4 1.825,0.575 2.6,0.575 2.875,0 5.05,-2.025 5.05,-4.8750003 0,-1.625 -0.55,-2.7 -2.825,-5 -2.275,-2.275 -2.475,-2.675 -2.475,-3.9 0,-1.575 1.075,-2.5 2.8,-2.5 2.425,0 2.975,1.525 2.975,4.075 l 0.45,0.075 1,-5 z"
           style="font-style:italic"
           id="path3505" />
        <path
           d="m 204.09407,-16.02121 0,-0.24375 c -1.21875,0 -1.54375,-0.2925 -1.54375,-0.99125 l 0,-9.70125 -0.14625,-0.04875 -2.90875,1.47875 0,0.2275 0.43875,-0.1625 c 0.2925,-0.11375 0.56875,-0.195 0.73125,-0.195 0.34125,0 0.4875,0.24375 0.4875,0.79625 l 0,7.29625 c 0,0.89375 -0.34125,1.235 -1.54375,1.3 l 0,0.24375 4.485,0 z"
           style="font-size:64.99999762%;baseline-shift:super"
           id="path3507" />
      </g>
    </g>
  </g>
</svg>
