<?xml version="1.0" encoding="UTF-8" standalone="no"?>
<!-- Created with Inkscape (http://www.inkscape.org/) -->

<svg
   xmlns:dc="http://purl.org/dc/elements/1.1/"
   xmlns:cc="http://creativecommons.org/ns#"
   xmlns:rdf="http://www.w3.org/1999/02/22-rdf-syntax-ns#"
   xmlns:svg="http://www.w3.org/2000/svg"
   xmlns="http://www.w3.org/2000/svg"
   xmlns:sodipodi="http://sodipodi.sourceforge.net/DTD/sodipodi-0.dtd"
   xmlns:inkscape="http://www.inkscape.org/namespaces/inkscape"
   width="824.52563"
   height="253.53893"
   id="svg8731"
   version="1.1"
   inkscape:version="0.91 r13725"
   sodipodi:docname="turn_1.svg">
  <defs
     id="defs8733">
    <marker
       inkscape:stockid="Arrow1Lend"
       orient="auto"
       refY="0"
       refX="0"
       id="Arrow1Lend"
       style="overflow:visible">
      <path
         id="path4762"
         d="M 0,0 5,-5 -12.5,0 5,5 0,0 z"
         style="fill-rule:evenodd;stroke:#000000;stroke-width:1pt"
         transform="matrix(-0.8,0,0,-0.8,-10,0)"
         inkscape:connector-curvature="0" />
    </marker>
    <marker
       inkscape:stockid="Arrow1Mend"
       orient="auto"
       refY="0"
       refX="0"
       id="Arrow1Mend"
       style="overflow:visible">
      <path
         id="path4768"
         d="M 0,0 5,-5 -12.5,0 5,5 0,0 z"
         style="fill-rule:evenodd;stroke:#000000;stroke-width:1pt"
         transform="matrix(-0.4,0,0,-0.4,-4,0)"
         inkscape:connector-curvature="0" />
    </marker>
    <marker
       inkscape:stockid="Arrow1Lstart"
       orient="auto"
       refY="0"
       refX="0"
       id="Arrow1Lstart"
       style="overflow:visible">
      <path
         id="path5857"
         d="M 0,0 5,-5 -12.5,0 5,5 0,0 z"
         style="fill-rule:evenodd;stroke:#000000;stroke-width:1pt"
         transform="matrix(0.8,0,0,0.8,10,0)"
         inkscape:connector-curvature="0" />
    </marker>
    <marker
       inkscape:stockid="Arrow1Lend"
       orient="auto"
       refY="0"
       refX="0"
       id="Arrow1Lend-1"
       style="overflow:visible">
      <path
         id="path5860"
         d="M 0,0 5,-5 -12.5,0 5,5 0,0 z"
         style="fill-rule:evenodd;stroke:#000000;stroke-width:1pt"
         transform="matrix(-0.8,0,0,-0.8,-10,0)"
         inkscape:connector-curvature="0" />
    </marker>
  </defs>
  <sodipodi:namedview
     id="base"
     pagecolor="#ffffff"
     bordercolor="#666666"
     borderopacity="1.0"
     inkscape:pageopacity="0.0"
     inkscape:pageshadow="2"
     inkscape:zoom="0.945"
     inkscape:cx="326.90742"
     inkscape:cy="34.46604"
     inkscape:document-units="px"
     inkscape:current-layer="layer1"
     showgrid="false"
     inkscape:window-width="1440"
     inkscape:window-height="851"
     inkscape:window-x="0"
     inkscape:window-y="1"
     inkscape:window-maximized="1"
     fit-margin-top="5"
     fit-margin-left="5"
     fit-margin-right="5"
     fit-margin-bottom="5" />
  <metadata
     id="metadata8736">
    <rdf:RDF>
      <cc:Work
         rdf:about="">
        <dc:format>image/svg+xml</dc:format>
        <dc:type
           rdf:resource="http://purl.org/dc/dcmitype/StillImage" />
        <dc:title />
      </cc:Work>
    </rdf:RDF>
  </metadata>
  <g
     inkscape:label="Layer 1"
     inkscape:groupmode="layer"
     id="layer1"
     transform="translate(60.52565,-285.12234)">
    <path
       style="color:#000000;fill:#f2f2f2;fill-opacity:1;fill-rule:nonzero;stroke:#000000;stroke-width:2;stroke-miterlimit:4;stroke-dasharray:8, 4, 2, 4;stroke-dashoffset:0;stroke-opacity:1;marker:none;visibility:visible;display:inline;overflow:visible;enable-background:accumulate"
       d="m -54.52565,307.39182 334,0 0,209 -334,0 z"
       id="rect8890" />
    <path
       style="color:#000000;fill:#f2f2f2;fill-opacity:1;fill-rule:nonzero;stroke:#000000;stroke-width:2;stroke-miterlimit:4;stroke-dasharray:8, 4, 2, 4;stroke-dashoffset:0;stroke-opacity:1;marker:none;visibility:visible;display:inline;overflow:visible;enable-background:accumulate"
       d="m 371.99997,291.12234 386,0 0,241.53893 -386,0 z"
       id="rect8890-5" />
    <path
       transform="translate(60.570121,256.33728)"
       style="color:#000000;fill:#000000;fill-opacity:1;fill-rule:nonzero;stroke:none;stroke-width:2;marker:none;visibility:visible;display:inline;overflow:visible;enable-background:accumulate"
       d="m 96.28106,146.33939 c 0,2.19276 -1.777587,3.97035 -3.970353,3.97035 -2.192765,0 -3.970353,-1.77759 -3.970353,-3.97035 0,-2.19277 1.777588,-3.97036 3.970353,-3.97036 2.192766,0 3.970353,1.77759 3.970353,3.97036 z"
       id="path10592" />
    <path
       transform="matrix(1.2352743,0,0,1.2352743,312.28273,-150.09748)"
       style="fill:#cccccc;stroke:#000000;stroke-width:1.21430516000000010;stroke-miterlimit:4;stroke-dasharray:4.85722077999999960, 4.85722077999999960;stroke-dashoffset:0;stroke-opacity:1"
       d="m 266.33664,462.75821 c 0,48.39327 -39.2305,87.62376 -87.62376,87.62376 -48.39327,0 -87.623769,-39.23049 -87.623769,-87.62376 0,-48.39327 39.230499,-87.62376 87.623769,-87.62376 48.39326,0 87.62376,39.23049 87.62376,87.62376 z"
       id="path5849" />
    <path
       transform="translate(440.73144,275.19646)"
       style="color:#000000;fill:#000000;fill-opacity:1;fill-rule:nonzero;stroke:none;stroke-width:2;marker:none;visibility:visible;display:inline;overflow:visible;enable-background:accumulate"
       d="m 96.28106,146.33939 c 0,2.19276 -1.777587,3.97035 -3.970353,3.97035 -2.192765,0 -3.970353,-1.77759 -3.970353,-3.97035 0,-2.19277 1.777588,-3.97036 3.970353,-3.97036 2.192766,0 3.970353,1.77759 3.970353,3.97036 z"
       id="path10592-0" />
    <path
       style="fill:none;stroke:#000000;stroke-width:0.80000001;stroke-linecap:butt;stroke-linejoin:miter;stroke-miterlimit:4;stroke-opacity:1;stroke-dasharray:none;marker-start:url(#Arrow1Lstart);marker-end:url(#Arrow1Lend)"
       d="M 532.60765,425.29047 520.25833,527.01979"
       inkscape:connector-curvature="0"
       id="path13300" />
    <g
       style="font-size:16px;font-style:oblique;font-variant:normal;font-weight:normal;font-stretch:normal;line-height:125%;letter-spacing:0px;word-spacing:0px;fill:#000000;fill-opacity:1;stroke:none;font-family:Palatino LT Std;-inkscape-font-specification:Sans Oblique"
       id="text10612-3" />
    <g
       style="font-style:italic;font-variant:normal;font-weight:normal;font-stretch:normal;font-size:25px;line-height:125%;font-family:STIXGeneral;-inkscape-font-specification:'STIXGeneral, Italic';text-align:start;letter-spacing:0px;word-spacing:0px;writing-mode:lr-tb;text-anchor:start;fill:#000000;fill-opacity:1;stroke:none;stroke-width:1px;stroke-linecap:butt;stroke-linejoin:miter;stroke-opacity:1"
       id="text4193">
      <path
         d="m -30.394028,317.04524 -5.175,0 0,0.4 c 1.075,0.05 1.525,0.375 1.525,0.85 0,0.3 -0.175,0.675 -0.525,1.075 l -3.625,4.175 -1.475,-3.675 c -0.275,-0.675 -0.4,-1.075 -0.4,-1.4 0,-0.625 0.4,-0.85 1.775,-1.025 l 0,-0.4 -6.575,0 0,0.4 c 1.45,0.125 1.9,0.525 2.375,1.725 l 2.575,6.375 -2.075,2.425 c -3.425,4 -4.1,4.75 -5.5,5 l 0,0.4 5.325,0 0,-0.4 c -1.2,0 -1.65,-0.275 -1.65,-0.825 0,-0.35 0.225,-0.8 0.575,-1.2 l 3.775,-4.3 1.675,4.125 c 0.2,0.5 0.35,0.95 0.35,1.275 0,0.6 -0.425,0.9 -1.925,0.925 l 0,0.4 6.775,0 0,-0.4 c -1.7,-0.2 -2.025,-0.425 -2.625,-1.925 l -2.525,-6.375 4.225,-4.85 c 1.25,-1.45 2.05,-2.025 3.125,-2.375 l 0,-0.4 z"
         style=""
         id="path4234" />
    </g>
    <g
       style="font-style:italic;font-variant:normal;font-weight:normal;font-stretch:normal;font-size:25px;line-height:125%;font-family:STIXGeneral;-inkscape-font-specification:'STIXGeneral, Italic';text-align:start;letter-spacing:0px;word-spacing:0px;writing-mode:lr-tb;text-anchor:start;fill:#000000;fill-opacity:1;stroke:none;stroke-width:1px;stroke-linecap:butt;stroke-linejoin:miter;stroke-opacity:1"
       id="text4197">
      <path
         d="m 394.45281,301.17225 -4.725,0 0,0.4 0.725,0.075 c 0.725,0.075 1,0.275 1,0.7 0,0.675 -1.1,2.225 -3.725,5.325 l -0.975,1.15 -0.775,-2.75 c -0.6,-2.125 -0.9,-3.225 -0.9,-3.6 0,-0.55 0.3,-0.75 1.8,-0.9 l 0,-0.4 -5.975,0 0,0.4 c 1.4,0.2 1.55,0.4 1.925,1.7 l 1.9,6.675 -1.475,5.125 c -0.45,1.6 -1.025,1.925 -2.675,2.025 l 0,0.4 7.225,0 0,-0.4 -0.9,-0.075 c -0.975,-0.075 -1.325,-0.3 -1.325,-0.925 0,-0.525 0.175,-1.2 0.75,-3.175 l 0.9,-3.075 5.475,-6.75 c 0.825,-1.025 1.025,-1.275 1.75,-1.525 l 0,-0.4 z"
         style=""
         id="path4237" />
    </g>
    <g
       style="font-style:italic;font-variant:normal;font-weight:normal;font-stretch:normal;font-size:25px;line-height:125%;font-family:STIXGeneral;-inkscape-font-specification:'STIXGeneral, Italic';text-align:start;letter-spacing:0px;word-spacing:0px;writing-mode:lr-tb;text-anchor:start;fill:#000000;fill-opacity:1;stroke:none;stroke-width:1px;stroke-linecap:butt;stroke-linejoin:miter;stroke-opacity:1"
       id="text4201">
      <path
         d="m 495.10529,345.61668 0,0.4 c 1.575,0.125 1.925,0.3 1.925,1.025 0,0.375 -0.1,0.975 -0.275,1.6 l -3.025,10.9 c -0.425,1.55 -0.7,1.8 -2.075,2 l 0,0.4 6.8,0 c 4.05,0 6.875,-1.65 6.875,-5 0,-1.775 -1,-3.1 -3.15,-3.75 l 0,-0.025 c 1.075,-0.225 2,-0.45 2.775,-0.975 0.9,-0.6 1.6,-1.475 1.6,-2.825 0,-2.475 -1.725,-3.75 -5.2,-3.75 l -6.25,0 z m 2.95,7.25 1.575,-5.6 c 0.25,-0.9 0.5,-0.9 1.475,-0.9 2.025,0 2.925,0.85 2.925,2.7 0,2.475 -1.75,3.8 -5.025,3.8 l -0.95,0 z m -0.25,0.8 c 1.575,0 2.65,0.125 3.15,0.3 0.95,0.325 1.675,1.425 1.675,2.975 0,2.775 -1.95,4.25 -4.825,4.25 -1.05,0 -1.675,-0.35 -1.675,-1.05 0,-0.325 0.375,-1.6 0.875,-3.5 l 0.8,-2.975 z"
         style=""
         id="path4240" />
    </g>
    <g
       style="font-style:italic;font-variant:normal;font-weight:normal;font-stretch:normal;font-size:25px;line-height:125%;font-family:STIXGeneral;-inkscape-font-specification:'STIXGeneral, Italic';text-align:start;letter-spacing:0px;word-spacing:0px;writing-mode:lr-tb;text-anchor:start;fill:#000000;fill-opacity:1;stroke:none;stroke-width:1px;stroke-linecap:butt;stroke-linejoin:miter;stroke-opacity:1"
       id="text4209">
      <path
         d="m 168.82978,398.56934 c -0.35,-1.7 -0.65,-2.15 -1.275,-2.15 -0.575,0 -1.4,0.175 -2.925,0.725 l -0.275,0.1 0.075,0.4 0.45,-0.125 c 0.475,-0.125 0.775,-0.175 0.975,-0.175 0.625,0 0.8,0.2 1.15,1.7 l 0.7,3.1 -2.05,2.9 c -0.525,0.75 -1,1.225 -1.275,1.225 -0.15,0 -0.4,-0.075 -0.65,-0.225 -0.325,-0.175 -0.575,-0.275 -0.8,-0.275 -0.5,0 -0.85,0.4 -0.85,0.9 0,0.65 0.475,1.05 1.25,1.05 0.775,0 1.275,-0.225 2.375,-1.7 l 2.2,-2.975 0.725,2.975 c 0.3,1.25 0.675,1.7 1.475,1.7 0.95,0 1.6,-0.6 3.05,-2.85 l -0.375,-0.225 c -0.2,0.25 -0.3,0.4 -0.525,0.7 -0.575,0.75 -0.85,1 -1.175,1 -0.35,0 -0.575,-0.325 -0.75,-1.025 l -0.8,-3.35 c -0.15,-0.6 -0.2,-0.95 -0.2,-1.125 1.1,-1.925 2,-3.025 2.45,-3.025 0.6,0 0.825,0.425 1.3,0.425 0.5,0 0.85,-0.375 0.85,-0.9 0,-0.55 -0.425,-0.925 -1.025,-0.925 -1.1,0 -2.025,0.9 -3.775,3.575 l -0.3,-1.425 z"
         style=""
         id="path4243" />
    </g>
    <g
       style="font-style:normal;font-weight:normal;font-size:25px;line-height:125%;font-family:sans-serif;letter-spacing:0px;word-spacing:0px;fill:#000000;fill-opacity:1;stroke:none;stroke-width:1px;stroke-linecap:butt;stroke-linejoin:miter;stroke-opacity:1"
       id="text4213">
      <path
         d="m 544.73221,414.73375 -0.175,0.8 2.275,0 -2.2,10.5 c -0.575,2.7 -1.375,4.05 -2.425,4.05 -0.3,0 -0.5,-0.175 -0.5,-0.4 0,-0.275 0.225,-0.4 0.225,-0.725 0,-0.525 -0.375,-0.925 -0.95,-0.925 -0.525,0 -0.95,0.475 -0.95,1.05 0,0.875 0.85,1.525 1.975,1.525 2.275,0 3.95,-2.45 5,-7.075 l 1.8,-8 2.7,0 0.15,-0.8 -2.675,0 c 0.725,-3.95 1.65,-5.7 3.05,-5.7 0.35,0 0.55,0.125 0.55,0.325 0,0.225 -0.25,0.35 -0.25,0.775 0,0.6 0.475,0.975 0.925,0.975 0.575,0 1.05,-0.525 1.05,-1.075 0,-0.9 -0.925,-1.55 -2.15,-1.55 -1.525,0 -2.55,0.85 -3.3,1.925 -0.825,1.175 -1.25,2.55 -1.8,4.325 l -2.325,0 z"
         style="font-style:italic"
         id="path4246" />
      <path
         d="m 558.24081,429.45875 c -3.5,-2.925 -4.25,-5.75 -4.25,-10.4 0,-4.825 0.775,-7.15 4.25,-10.125 l -0.225,-0.4 c -4,2.375 -6.175,5.975 -6.175,10.6 0,4.25 2.15,8.475 6.1,10.725 l 0.3,-0.4 z"
         style="font-style:normal;font-variant:normal;font-weight:normal;font-stretch:normal;font-family:STIXGeneral;-inkscape-font-specification:STIXGeneral"
         id="path4248" />
      <path
         d="m 565.06542,416.55875 c -0.35,-1.7 -0.65,-2.15 -1.275,-2.15 -0.575,0 -1.4,0.175 -2.925,0.725 l -0.275,0.1 0.075,0.4 0.45,-0.125 c 0.475,-0.125 0.775,-0.175 0.975,-0.175 0.625,0 0.8,0.2 1.15,1.7 l 0.7,3.1 -2.05,2.9 c -0.525,0.75 -1,1.225 -1.275,1.225 -0.15,0 -0.4,-0.075 -0.65,-0.225 -0.325,-0.175 -0.575,-0.275 -0.8,-0.275 -0.5,0 -0.85,0.4 -0.85,0.9 0,0.65 0.475,1.05 1.25,1.05 0.775,0 1.275,-0.225 2.375,-1.7 l 2.2,-2.975 0.725,2.975 c 0.3,1.25 0.675,1.7 1.475,1.7 0.95,0 1.6,-0.6 3.05,-2.85 l -0.375,-0.225 c -0.2,0.25 -0.3,0.4 -0.525,0.7 -0.575,0.75 -0.85,1 -1.175,1 -0.35,0 -0.575,-0.325 -0.75,-1.025 l -0.8,-3.35 c -0.15,-0.6 -0.2,-0.95 -0.2,-1.125 1.1,-1.925 2,-3.025 2.45,-3.025 0.6,0 0.825,0.425 1.3,0.425 0.5,0 0.85,-0.375 0.85,-0.9 0,-0.55 -0.425,-0.925 -1.025,-0.925 -1.1,0 -2.025,0.9 -3.775,3.575 l -0.3,-1.425 z"
         style="font-style:italic"
         id="path4250" />
      <path
         d="m 570.7994,408.93375 c 3.625,2.85 4.25,5.725 4.25,10.4 0,4.85 -0.7,7.2 -4.25,10.125 l 0.225,0.4 c 3.975,-2.425 6.175,-5.975 6.175,-10.6 0,-4.25 -2.275,-8.425 -6.1,-10.725 l -0.3,0.4 z"
         style="font-style:normal;font-variant:normal;font-weight:normal;font-stretch:normal;font-family:STIXGeneral;-inkscape-font-specification:STIXGeneral"
         id="path4252" />
    </g>
    <g
       style="font-style:normal;font-weight:normal;font-size:25px;line-height:125%;font-family:sans-serif;letter-spacing:0px;word-spacing:0px;fill:#000000;fill-opacity:1;stroke:none;stroke-width:1px;stroke-linecap:butt;stroke-linejoin:miter;stroke-opacity:1"
       id="text4221" />
    <g
       style="font-style:normal;font-weight:normal;font-size:25px;line-height:125%;font-family:sans-serif;letter-spacing:0px;word-spacing:0px;fill:#000000;fill-opacity:1;stroke:none;stroke-width:1px;stroke-linecap:butt;stroke-linejoin:miter;stroke-opacity:1"
       id="text4227">
      <path
         d="m 521.40292,467.31878 -0.4,0 c -0.075,0.225 -0.225,0.425 -0.525,0.425 -0.675,0 -1.05,-0.425 -2.25,-0.425 -3.55,0 -6.575,3.975 -6.575,7.525 0,2.075 1.175,3.775 3.45,3.775 2.5,0 3.6,-1 5,-2.7 l -0.4,-0.25 c -1.425,1.425 -2.275,2.05 -3.675,2.05 -1.475,0 -2.225,-1.175 -2.225,-3 0,-0.6 0.05,-1.075 0.25,-1.7 l 4.5,0 0.15,-0.8 -4.475,0 c 0.4,-1.75 2.125,-4.35 3.85,-4.35 1.85,0 2.3,1.525 2.475,2.675 l 0.4,0 0.45,-3.225 z"
         style="font-style:italic;font-variant:normal;font-weight:normal;font-stretch:normal;font-family:STIXGeneral;-inkscape-font-specification:'STIXGeneral Italic'"
         id="path4256" />
    </g>
  </g>
</svg>
