<?xml version="1.0" encoding="UTF-8" standalone="no"?>
<!-- Created with Inkscape (http://www.inkscape.org/) -->

<svg
   xmlns:dc="http://purl.org/dc/elements/1.1/"
   xmlns:cc="http://creativecommons.org/ns#"
   xmlns:rdf="http://www.w3.org/1999/02/22-rdf-syntax-ns#"
   xmlns:svg="http://www.w3.org/2000/svg"
   xmlns="http://www.w3.org/2000/svg"
   xmlns:sodipodi="http://sodipodi.sourceforge.net/DTD/sodipodi-0.dtd"
   xmlns:inkscape="http://www.inkscape.org/namespaces/inkscape"
   width="824.52563"
   height="253.53893"
   id="svg8731"
   version="1.1"
   inkscape:version="0.91 r13725"
   sodipodi:docname="turn_2.svg">
  <defs
     id="defs8733">
    <marker
       inkscape:stockid="Arrow1Lend"
       orient="auto"
       refY="0"
       refX="0"
       id="Arrow1Lend"
       style="overflow:visible">
      <path
         id="path4762"
         d="M 0,0 5,-5 -12.5,0 5,5 0,0 z"
         style="fill-rule:evenodd;stroke:#000000;stroke-width:1pt"
         transform="matrix(-0.8,0,0,-0.8,-10,0)"
         inkscape:connector-curvature="0" />
    </marker>
    <marker
       inkscape:stockid="Arrow1Mend"
       orient="auto"
       refY="0"
       refX="0"
       id="Arrow1Mend"
       style="overflow:visible">
      <path
         id="path4768"
         d="M 0,0 5,-5 -12.5,0 5,5 0,0 z"
         style="fill-rule:evenodd;stroke:#000000;stroke-width:1pt"
         transform="matrix(-0.4,0,0,-0.4,-4,0)"
         inkscape:connector-curvature="0" />
    </marker>
    <marker
       inkscape:stockid="Arrow1Lstart"
       orient="auto"
       refY="0"
       refX="0"
       id="Arrow1Lstart"
       style="overflow:visible">
      <path
         id="path5857"
         d="M 0,0 5,-5 -12.5,0 5,5 0,0 z"
         style="fill-rule:evenodd;stroke:#000000;stroke-width:1pt"
         transform="matrix(0.8,0,0,0.8,10,0)"
         inkscape:connector-curvature="0" />
    </marker>
    <marker
       inkscape:stockid="Arrow1Lend"
       orient="auto"
       refY="0"
       refX="0"
       id="Arrow1Lend-1"
       style="overflow:visible">
      <path
         id="path5860"
         d="M 0,0 5,-5 -12.5,0 5,5 0,0 z"
         style="fill-rule:evenodd;stroke:#000000;stroke-width:1pt"
         transform="matrix(-0.8,0,0,-0.8,-10,0)"
         inkscape:connector-curvature="0" />
    </marker>
    <marker
       inkscape:stockid="Arrow1Lstart"
       orient="auto"
       refY="0"
       refX="0"
       id="Arrow1Lstart-0"
       style="overflow:visible">
      <path
         id="path5857-6"
         d="M 0,0 5,-5 -12.5,0 5,5 0,0 z"
         style="fill-rule:evenodd;stroke:#000000;stroke-width:1pt"
         transform="matrix(0.8,0,0,0.8,10,0)"
         inkscape:connector-curvature="0" />
    </marker>
    <marker
       inkscape:stockid="Arrow1Lend"
       orient="auto"
       refY="0"
       refX="0"
       id="Arrow1Lend-6"
       style="overflow:visible">
      <path
         id="path4762-1"
         d="M 0,0 5,-5 -12.5,0 5,5 0,0 z"
         style="fill-rule:evenodd;stroke:#000000;stroke-width:1pt"
         transform="matrix(-0.8,0,0,-0.8,-10,0)"
         inkscape:connector-curvature="0" />
    </marker>
  </defs>
  <sodipodi:namedview
     id="base"
     pagecolor="#ffffff"
     bordercolor="#666666"
     borderopacity="1.0"
     inkscape:pageopacity="0.0"
     inkscape:pageshadow="2"
     inkscape:zoom="1.3364318"
     inkscape:cx="407.40824"
     inkscape:cy="76.794082"
     inkscape:document-units="px"
     inkscape:current-layer="layer1"
     showgrid="false"
     inkscape:window-width="1440"
     inkscape:window-height="851"
     inkscape:window-x="0"
     inkscape:window-y="1"
     inkscape:window-maximized="1"
     fit-margin-top="5"
     fit-margin-left="5"
     fit-margin-right="5"
     fit-margin-bottom="5" />
  <metadata
     id="metadata8736">
    <rdf:RDF>
      <cc:Work
         rdf:about="">
        <dc:format>image/svg+xml</dc:format>
        <dc:type
           rdf:resource="http://purl.org/dc/dcmitype/StillImage" />
        <dc:title />
      </cc:Work>
    </rdf:RDF>
  </metadata>
  <g
     inkscape:label="Layer 1"
     inkscape:groupmode="layer"
     id="layer1"
     transform="translate(60.52565,-285.12234)">
    <path
       style="color:#000000;fill:#f2f2f2;fill-opacity:1;fill-rule:nonzero;stroke:#000000;stroke-width:2;stroke-miterlimit:4;stroke-dasharray:8, 4, 2, 4;stroke-dashoffset:0;stroke-opacity:1;marker:none;visibility:visible;display:inline;overflow:visible;enable-background:accumulate"
       d="m -54.52565,307.39182 334,0 0,209 -334,0 z"
       id="rect8890" />
    <path
       style="color:#000000;fill:#f2f2f2;fill-opacity:1;fill-rule:nonzero;stroke:#000000;stroke-width:2;stroke-miterlimit:4;stroke-dasharray:8, 4, 2, 4;stroke-dashoffset:0;stroke-opacity:1;marker:none;visibility:visible;display:inline;overflow:visible;enable-background:accumulate"
       d="m 371.99997,291.12234 386,0 0,241.53893 -386,0 z"
       id="rect8890-5" />
    <path
       inkscape:connector-curvature="0"
       style="fill:#b3b3b3;stroke:#000000;stroke-width:1.15046834999999990;stroke-miterlimit:4;stroke-opacity:1;stroke-dasharray:4.60187344000000030, 4.60187344000000030;stroke-dashoffset:0;fill-opacity:1"
       d="m 235.89815,402.67666 c 0,45.84921 -37.16812,83.01733 -83.01731,83.01733 -45.84921,0 -83.017338,-37.16812 -83.017338,-83.01733 0,-45.8492 37.168128,-83.01732 83.017338,-83.01732 45.84919,0 83.01731,37.16812 83.01731,83.01732 z"
       id="path5849-3" />
    <path
       style="color:#000000;fill:#000000;fill-opacity:1;fill-rule:nonzero;stroke:none;stroke-width:2;marker:none;visibility:visible;display:inline;overflow:visible;enable-background:accumulate"
       d="m 96.28106,146.33939 c 0,2.19276 -1.777587,3.97035 -3.970353,3.97035 -2.192765,0 -3.970353,-1.77759 -3.970353,-3.97035 0,-2.19277 1.777588,-3.97036 3.970353,-3.97036 2.192766,0 3.970353,1.77759 3.970353,3.97036 z"
       id="path10592"
       transform="translate(60.570121,256.33728)" />
    <path
       transform="matrix(1.2352743,0,0,1.2352743,312.28273,-150.09748)"
       style="fill:#cccccc;stroke:#000000;stroke-width:1.21430516000000010;stroke-miterlimit:4;stroke-dasharray:4.85722077999999960, 4.85722077999999960;stroke-dashoffset:0;stroke-opacity:1"
       d="m 266.33664,462.75821 c 0,48.39327 -39.2305,87.62376 -87.62376,87.62376 -48.39327,0 -87.623769,-39.23049 -87.623769,-87.62376 0,-48.39327 39.230499,-87.62376 87.623769,-87.62376 48.39326,0 87.62376,39.23049 87.62376,87.62376 z"
       id="path5849" />
    <path
       inkscape:connector-curvature="0"
       style="fill:#b3b3b3;fill-opacity:1;stroke:#000000;stroke-width:1.15046835;stroke-miterlimit:4;stroke-opacity:1;stroke-dasharray:4.60187344, 4.60187344;stroke-dashoffset:0"
       d="m 539.4871,336.71329 c -13.92691,0.0756 -23.82432,14.02574 -23.90116,27.08401 -0.39849,27.4655 -0.42444,55.52967 -9.34884,81.85349 -3.65704,12.69594 -5.35909,28.24074 3.84375,39.0625 5.13356,6.76182 14.83074,8.80764 22.39513,5.11695 10.20707,-4.62215 16.60638,-14.37414 25.12391,-21.27871 13.77474,-12.77422 30.99727,-23.41083 50.29346,-23.90074 3.79697,-0.5713 9.43536,-1.2495 10.5,-5.59375 -0.0314,-6.88517 -7.5589,-9.83987 -11.74661,-14.11648 -15.2873,-12.65774 -29.4861,-27.89417 -35.78189,-47.11668 -5.81817,-13.7345 -10.13393,-29.58565 -22.659,-38.89184 -2.66217,-1.4667 -5.63901,-2.49187 -8.71875,-2.21875 z"
       id="path5849-3-4" />
    <path
       transform="translate(440.73144,275.19646)"
       style="color:#000000;fill:#000000;fill-opacity:1;fill-rule:nonzero;stroke:none;stroke-width:2;marker:none;visibility:visible;display:inline;overflow:visible;enable-background:accumulate"
       d="m 96.28106,146.33939 c 0,2.19276 -1.777587,3.97035 -3.970353,3.97035 -2.192765,0 -3.970353,-1.77759 -3.970353,-3.97035 0,-2.19277 1.777588,-3.97036 3.970353,-3.97036 2.192766,0 3.970353,1.77759 3.970353,3.97036 z"
       id="path10592-0" />
    <g
       style="font-size:16px;font-style:oblique;font-variant:normal;font-weight:normal;font-stretch:normal;line-height:125%;letter-spacing:0px;word-spacing:0px;fill:#000000;fill-opacity:1;stroke:none;font-family:Palatino LT Std;-inkscape-font-specification:Sans Oblique"
       id="text10612-3" />
    <g
       id="g14100"
       transform="matrix(0.99623568,0.08668599,-0.08668599,0.99623568,48.778707,-39.192322)">
      <path
         style="font-size:medium;font-style:normal;font-variant:normal;font-weight:normal;font-stretch:normal;text-indent:0;text-align:start;text-decoration:none;line-height:normal;letter-spacing:normal;word-spacing:normal;text-transform:none;direction:ltr;block-progression:tb;writing-mode:lr-tb;text-anchor:start;baseline-shift:baseline;color:#000000;fill:#000000;fill-opacity:1;stroke:none;stroke-width:0.80000001;marker:none;visibility:visible;display:inline;overflow:visible;enable-background:accumulate;font-family:Sans;-inkscape-font-specification:Sans"
         d="m 463.65625,419.1875 -0.75,0.25 c 3.78346,10.80988 16.64618,16.39007 28.46875,19.3125 11.82257,2.92243 22.6875,3.1875 22.6875,3.1875 l 0.0312,-0.8125 c 0,0 -10.80884,-0.25858 -22.53125,-3.15625 -11.72241,-2.89767 -24.2823,-8.42711 -27.90625,-18.78125 z"
         id="path13338"
         inkscape:connector-curvature="0" />
      <path
         inkscape:connector-curvature="0"
         style="fill-rule:evenodd;stroke:#000000;stroke-width:0.64000001pt"
         d="m 506.0799,441.34451 -3.27708,3.12102 11.2747,-2.92596 -11.11864,-3.47214 3.12102,3.27708 z"
         id="path14104" />
    </g>
    <g
       id="g14191">
      <path
         style="font-size:medium;font-style:normal;font-variant:normal;font-weight:normal;font-stretch:normal;text-indent:0;text-align:start;text-decoration:none;line-height:normal;letter-spacing:normal;word-spacing:normal;text-transform:none;direction:ltr;block-progression:tb;writing-mode:lr-tb;text-anchor:start;baseline-shift:baseline;color:#000000;fill:#000000;fill-opacity:1;stroke:none;stroke-width:0.80000001;marker:none;visibility:visible;display:inline;overflow:visible;enable-background:accumulate;font-family:Sans;-inkscape-font-specification:Sans"
         d="m 151.34375,405.71875 -11.71875,78 0.8125,0.0937 11.6875,-78 -0.78125,-0.0937 z"
         id="path13300"
         inkscape:connector-curvature="0" />
      <path
         inkscape:connector-curvature="0"
         style="fill-rule:evenodd;stroke:#000000;stroke-width:0.64000001pt"
         d="m 150.54755,413.67604 2.68992,3.63927 -1.50324,-11.55077 -4.82595,10.60142 3.63927,-2.68992 z"
         id="path14197" />
      <path
         inkscape:connector-curvature="0"
         style="fill-rule:evenodd;stroke:#000000;stroke-width:0.64000001pt"
         d="m 141.22128,475.8534 -2.68992,-3.63927 1.50324,11.55077 4.82595,-10.60142 -3.63927,2.68992 z"
         id="path14199" />
    </g>
    <g
       transform="translate(-60.52565,285.12234)"
       style="font-style:oblique;font-variant:normal;font-weight:normal;font-stretch:normal;font-size:32px;line-height:125%;font-family:'Palatino LT Std';-inkscape-font-specification:'Sans Oblique';letter-spacing:0px;word-spacing:0px;fill:#000000;fill-opacity:1;stroke:none"
       id="text14180" />
    <g
       style="font-style:italic;font-variant:normal;font-weight:normal;font-stretch:normal;font-size:25px;line-height:125%;font-family:STIXGeneral;-inkscape-font-specification:'STIXGeneral, Italic';text-align:start;letter-spacing:0px;word-spacing:0px;writing-mode:lr-tb;text-anchor:start;fill:#000000;fill-opacity:1;stroke:none;stroke-width:1px;stroke-linecap:butt;stroke-linejoin:miter;stroke-opacity:1"
       id="text4885">
      <path
         d="m -30.39365,317.04527 -5.175,0 0,0.4 c 1.075,0.05 1.525,0.375 1.525,0.85 0,0.3 -0.175,0.675 -0.525,1.075 l -3.625,4.175 -1.475,-3.675 c -0.275,-0.675 -0.4,-1.075 -0.4,-1.4 0,-0.625 0.4,-0.85 1.775,-1.025 l 0,-0.4 -6.575,0 0,0.4 c 1.45,0.125 1.9,0.525 2.375,1.725 l 2.575,6.375 -2.075,2.425 c -3.425,4 -4.1,4.75 -5.5,5 l 0,0.4 5.325,0 0,-0.4 c -1.2,0 -1.65,-0.275 -1.65,-0.825 0,-0.35 0.225,-0.8 0.575,-1.2 l 3.775,-4.3 1.675,4.125 c 0.2,0.5 0.35,0.95 0.35,1.275 0,0.6 -0.425,0.9 -1.925,0.925 l 0,0.4 6.775,0 0,-0.4 c -1.7,-0.2 -2.025,-0.425 -2.625,-1.925 l -2.525,-6.375 4.225,-4.85 c 1.25,-1.45 2.05,-2.025 3.125,-2.375 l 0,-0.4 z"
         style=""
         id="path4933" />
    </g>
    <g
       style="font-style:italic;font-variant:normal;font-weight:normal;font-stretch:normal;font-size:25px;line-height:125%;font-family:STIXGeneral;-inkscape-font-specification:'STIXGeneral, Italic';text-align:start;letter-spacing:0px;word-spacing:0px;writing-mode:lr-tb;text-anchor:start;fill:#000000;fill-opacity:1;stroke:none;stroke-width:1px;stroke-linecap:butt;stroke-linejoin:miter;stroke-opacity:1"
       id="text4889">
      <path
         d="m 394.45235,301.17225 -4.725,0 0,0.4 0.725,0.075 c 0.725,0.075 1,0.275 1,0.7 0,0.675 -1.1,2.225 -3.725,5.325 l -0.975,1.15 -0.775,-2.75 c -0.6,-2.125 -0.9,-3.225 -0.9,-3.6 0,-0.55 0.3,-0.75 1.8,-0.9 l 0,-0.4 -5.975,0 0,0.4 c 1.4,0.2 1.55,0.4 1.925,1.7 l 1.9,6.675 -1.475,5.125 c -0.45,1.6 -1.025,1.925 -2.675,2.025 l 0,0.4 7.225,0 0,-0.4 -0.9,-0.075 c -0.975,-0.075 -1.325,-0.3 -1.325,-0.925 0,-0.525 0.175,-1.2 0.75,-3.175 l 0.9,-3.075 5.475,-6.75 c 0.825,-1.025 1.025,-1.275 1.75,-1.525 l 0,-0.4 z"
         style=""
         id="path4936" />
    </g>
    <g
       style="font-style:italic;font-variant:normal;font-weight:normal;font-stretch:normal;font-size:25px;line-height:125%;font-family:STIXGeneral;-inkscape-font-specification:'STIXGeneral, Italic';text-align:start;letter-spacing:0px;word-spacing:0px;writing-mode:lr-tb;text-anchor:start;fill:#000000;fill-opacity:1;stroke:none;stroke-width:1px;stroke-linecap:butt;stroke-linejoin:miter;stroke-opacity:1"
       id="text4893">
      <path
         d="m 135.02747,350.98445 0,0.4 c 1.575,0.125 1.925,0.3 1.925,1.025 0,0.375 -0.1,0.975 -0.275,1.6 l -3.025,10.9 c -0.425,1.55 -0.7,1.8 -2.075,2 l 0,0.4 6.8,0 c 4.05,0 6.875,-1.65 6.875,-5 0,-1.775 -1,-3.1 -3.15,-3.75 l 0,-0.025 c 1.075,-0.225 2,-0.45 2.775,-0.975 0.9,-0.6 1.6,-1.475 1.6,-2.825 0,-2.475 -1.725,-3.75 -5.2,-3.75 l -6.25,0 z m 2.95,7.25 1.575,-5.6 c 0.25,-0.9 0.5,-0.9 1.475,-0.9 2.025,0 2.925,0.85 2.925,2.7 0,2.475 -1.75,3.8 -5.025,3.8 l -0.95,0 z m -0.25,0.8 c 1.575,0 2.65,0.125 3.15,0.3 0.95,0.325 1.675,1.425 1.675,2.975 0,2.775 -1.95,4.25 -4.825,4.25 -1.05,0 -1.675,-0.35 -1.675,-1.05 0,-0.325 0.375,-1.6 0.875,-3.5 l 0.8,-2.975 z"
         style=""
         id="path4939" />
      <path
         d="m 150.93567,356.78445 c 1.475,-3.175 2.15,-4.95 2.15,-5.35 0,-0.4 -0.325,-0.775 -0.875,-0.775 -0.725,0 -1.15,0.425 -1.275,0.975 -0.15,0.6 -0.375,2.65 -0.575,5.15 l 0.575,0 z"
         style=""
         id="path4941" />
    </g>
    <g
       style="font-style:italic;font-variant:normal;font-weight:normal;font-stretch:normal;font-size:25px;line-height:125%;font-family:STIXGeneral;-inkscape-font-specification:'STIXGeneral, Italic';text-align:start;letter-spacing:0px;word-spacing:0px;writing-mode:lr-tb;text-anchor:start;fill:#000000;fill-opacity:1;stroke:none;stroke-width:1px;stroke-linecap:butt;stroke-linejoin:miter;stroke-opacity:1"
       id="text4897">
      <path
         d="m 168.82935,398.56927 c -0.35,-1.7 -0.65,-2.15 -1.275,-2.15 -0.575,0 -1.4,0.175 -2.925,0.725 l -0.275,0.1 0.075,0.4 0.45,-0.125 c 0.475,-0.125 0.775,-0.175 0.975,-0.175 0.625,0 0.8,0.2 1.15,1.7 l 0.7,3.1 -2.05,2.9 c -0.525,0.75 -1,1.225 -1.275,1.225 -0.15,0 -0.4,-0.075 -0.65,-0.225 -0.325,-0.175 -0.575,-0.275 -0.8,-0.275 -0.5,0 -0.85,0.4 -0.85,0.9 0,0.65 0.475,1.05 1.25,1.05 0.775,0 1.275,-0.225 2.375,-1.7 l 2.2,-2.975 0.725,2.975 c 0.3,1.25 0.675,1.7 1.475,1.7 0.95,0 1.6,-0.6 3.05,-2.85 l -0.375,-0.225 c -0.2,0.25 -0.3,0.4 -0.525,0.7 -0.575,0.75 -0.85,1 -1.175,1 -0.35,0 -0.575,-0.325 -0.75,-1.025 l -0.8,-3.35 c -0.15,-0.6 -0.2,-0.95 -0.2,-1.125 1.1,-1.925 2,-3.025 2.45,-3.025 0.6,0 0.825,0.425 1.3,0.425 0.5,0 0.85,-0.375 0.85,-0.9 0,-0.55 -0.425,-0.925 -1.025,-0.925 -1.1,0 -2.025,0.9 -3.775,3.575 l -0.3,-1.425 z"
         style=""
         id="path4944" />
    </g>
    <g
       style="font-style:italic;font-variant:normal;font-weight:normal;font-stretch:normal;font-size:25px;line-height:119.00000572%;font-family:STIXGeneral;-inkscape-font-specification:'STIXGeneral, Italic';text-align:start;letter-spacing:0px;word-spacing:0px;writing-mode:lr-tb;text-anchor:start;fill:#000000;fill-opacity:1;stroke:none;stroke-width:1px;stroke-linecap:butt;stroke-linejoin:miter;stroke-opacity:1"
       id="text4901">
      <path
         d="m 448.5687,397.76384 -0.175,0.8 2.275,0 -2.2,10.5 c -0.575,2.7 -1.375,4.05 -2.425,4.05 -0.3,0 -0.5,-0.175 -0.5,-0.4 0,-0.275 0.225,-0.4 0.225,-0.725 0,-0.525 -0.375,-0.925 -0.95,-0.925 -0.525,0 -0.95,0.475 -0.95,1.05 0,0.875 0.85,1.525 1.975,1.525 2.275,0 3.95,-2.45 5,-7.075 l 1.8,-8 2.7,0 0.15,-0.8 -2.675,0 c 0.725,-3.95 1.65,-5.7 3.05,-5.7 0.35,0 0.55,0.125 0.55,0.325 0,0.225 -0.25,0.35 -0.25,0.775 0,0.6 0.475,0.975 0.925,0.975 0.575,0 1.05,-0.525 1.05,-1.075 0,-0.9 -0.925,-1.55 -2.15,-1.55 -1.525,0 -2.55,0.85 -3.3,1.925 -0.825,1.175 -1.25,2.55 -1.8,4.325 l -2.325,0 z"
         style=""
         id="path4947" />
      <path
         d="m 465.57229,412.36384 0,-0.625 -2.075,0 c -0.825,0 -1.3,-0.35 -1.3,-1.35 l 0,-16.65 c 0,-0.9 0.45,-1.2 1.3,-1.2 l 2.075,0 0,-0.625 -5.275,0 0,20.45 5.275,0 z"
         style="font-style:normal;font-variant:normal;font-weight:normal;font-stretch:normal;line-height:119.00000572%;font-family:STIXGeneral;-inkscape-font-specification:STIXGeneral"
         id="path4949" />
      <path
         d="m 469.64808,392.13884 0,0.4 c 1.575,0.125 1.925,0.3 1.925,1.025 0,0.375 -0.1,0.975 -0.275,1.6 l -3.025,10.9 c -0.425,1.55 -0.7,1.8 -2.075,2 l 0,0.4 6.8,0 c 4.05,0 6.875,-1.65 6.875,-5 0,-1.775 -1,-3.1 -3.15,-3.75 l 0,-0.025 c 1.075,-0.225 2,-0.45 2.775,-0.975 0.9,-0.6 1.6,-1.475 1.6,-2.825 0,-2.475 -1.725,-3.75 -5.2,-3.75 l -6.25,0 z m 2.95,7.25 1.575,-5.6 c 0.25,-0.9 0.5,-0.9 1.475,-0.9 2.025,0 2.925,0.85 2.925,2.7 0,2.475 -1.75,3.8 -5.025,3.8 l -0.95,0 z m -0.25,0.8 c 1.575,0 2.65,0.125 3.15,0.3 0.95,0.325 1.675,1.425 1.675,2.975 0,2.775 -1.95,4.25 -4.825,4.25 -1.05,0 -1.675,-0.35 -1.675,-1.05 0,-0.325 0.375,-1.6 0.875,-3.5 l 0.8,-2.975 z"
         style=""
         id="path4951" />
      <path
         d="m 485.55628,397.93884 c 1.475,-3.175 2.15,-4.95 2.15,-5.35 0,-0.4 -0.325,-0.775 -0.875,-0.775 -0.725,0 -1.15,0.425 -1.275,0.975 -0.15,0.6 -0.375,2.65 -0.575,5.15 l 0.575,0 z"
         style=""
         id="path4953" />
      <path
         d="m 493.17737,412.36384 0,-20.45 -5.275,0 0,0.625 2.1,0 c 0.95,0 1.275,0.475 1.275,1.35 l 0,16.7 c 0,0.775 -0.3,1.15 -1.175,1.15 l -2.2,0 0,0.625 5.275,0 z"
         style="font-style:normal;font-variant:normal;font-weight:normal;font-stretch:normal;line-height:119.00000572%;font-family:STIXGeneral;-inkscape-font-specification:STIXGeneral"
         id="path4955" />
    </g>
    <g
       style="font-style:italic;font-variant:normal;font-weight:normal;font-stretch:normal;font-size:25px;line-height:125%;font-family:STIXGeneral;-inkscape-font-specification:'STIXGeneral, Italic';text-align:start;letter-spacing:0px;word-spacing:0px;writing-mode:lr-tb;text-anchor:start;fill:#000000;fill-opacity:1;stroke:none;stroke-width:1px;stroke-linecap:butt;stroke-linejoin:miter;stroke-opacity:1"
       id="text4905">
      <path
         d="m 542.10135,415.72209 -0.175,0.8 2.275,0 -2.2,10.5 c -0.575,2.7 -1.375,4.05 -2.425,4.05 -0.3,0 -0.5,-0.175 -0.5,-0.4 0,-0.275 0.225,-0.4 0.225,-0.725 0,-0.525 -0.375,-0.925 -0.95,-0.925 -0.525,0 -0.95,0.475 -0.95,1.05 0,0.875 0.85,1.525 1.975,1.525 2.275,0 3.95,-2.45 5,-7.075 l 1.8,-8 2.7,0 0.15,-0.8 -2.675,0 c 0.725,-3.95 1.65,-5.7 3.05,-5.7 0.35,0 0.55,0.125 0.55,0.325 0,0.225 -0.25,0.35 -0.25,0.775 0,0.6 0.475,0.975 0.925,0.975 0.575,0 1.05,-0.525 1.05,-1.075 0,-0.9 -0.925,-1.55 -2.15,-1.55 -1.525,0 -2.55,0.85 -3.3,1.925 -0.825,1.175 -1.25,2.55 -1.8,4.325 l -2.325,0 z"
         style=""
         id="path4958" />
      <path
         d="m 557.23995,430.44709 c -3.5,-2.925 -4.25,-5.75 -4.25,-10.4 0,-4.825 0.775,-7.15 4.25,-10.125 l -0.225,-0.4 c -4,2.375 -6.175,5.975 -6.175,10.6 0,4.25 2.15,8.475 6.1,10.725 l 0.3,-0.4 z"
         style="font-style:normal;font-variant:normal;font-weight:normal;font-stretch:normal;font-family:STIXGeneral;-inkscape-font-specification:STIXGeneral"
         id="path4960" />
      <path
         d="m 564.06456,417.54709 c -0.35,-1.7 -0.65,-2.15 -1.275,-2.15 -0.575,0 -1.4,0.175 -2.925,0.725 l -0.275,0.1 0.075,0.4 0.45,-0.125 c 0.475,-0.125 0.775,-0.175 0.975,-0.175 0.625,0 0.8,0.2 1.15,1.7 l 0.7,3.1 -2.05,2.9 c -0.525,0.75 -1,1.225 -1.275,1.225 -0.15,0 -0.4,-0.075 -0.65,-0.225 -0.325,-0.175 -0.575,-0.275 -0.8,-0.275 -0.5,0 -0.85,0.4 -0.85,0.9 0,0.65 0.475,1.05 1.25,1.05 0.775,0 1.275,-0.225 2.375,-1.7 l 2.2,-2.975 0.725,2.975 c 0.3,1.25 0.675,1.7 1.475,1.7 0.95,0 1.6,-0.6 3.05,-2.85 l -0.375,-0.225 c -0.2,0.25 -0.3,0.4 -0.525,0.7 -0.575,0.75 -0.85,1 -1.175,1 -0.35,0 -0.575,-0.325 -0.75,-1.025 l -0.8,-3.35 c -0.15,-0.6 -0.2,-0.95 -0.2,-1.125 1.1,-1.925 2,-3.025 2.45,-3.025 0.6,0 0.825,0.425 1.3,0.425 0.5,0 0.85,-0.375 0.85,-0.9 0,-0.55 -0.425,-0.925 -1.025,-0.925 -1.1,0 -2.025,0.9 -3.775,3.575 l -0.3,-1.425 z"
         style=""
         id="path4962" />
      <path
         d="m 569.79854,409.92209 c 3.625,2.85 4.25,5.725 4.25,10.4 0,4.85 -0.7,7.2 -4.25,10.125 l 0.225,0.4 c 3.975,-2.425 6.175,-5.975 6.175,-10.6 0,-4.25 -2.275,-8.425 -6.1,-10.725 l -0.3,0.4 z"
         style="font-style:normal;font-variant:normal;font-weight:normal;font-stretch:normal;font-family:STIXGeneral;-inkscape-font-specification:STIXGeneral"
         id="path4964" />
    </g>
    <g
       style="font-style:italic;font-variant:normal;font-weight:normal;font-stretch:normal;font-size:25px;line-height:125%;font-family:STIXGeneral;-inkscape-font-specification:'STIXGeneral, Italic';text-align:start;letter-spacing:0px;word-spacing:0px;writing-mode:lr-tb;text-anchor:start;fill:#000000;fill-opacity:1;stroke:none;stroke-width:1px;stroke-linecap:butt;stroke-linejoin:miter;stroke-opacity:1"
       id="text4909">
      <path
         d="m 141.03268,434.51819 c 0,-1.125 -1.775,-1.6 -3,-1.6 -1.6,0 -4.225,0.8 -4.225,3.2 0,1.35 1.4,2.325 2.525,3.475 -3.2,0.3 -6.2,3.55 -6.2,6.75 0,2.275 1.35,3.55 3.7,3.55 4,0 6.625,-3.675 6.625,-6.95 0,-1.95 -0.6,-2.725 -1.625,-3.7 -1.575,-1.525 -4.15,-2.425 -4.15,-3.875 0,-0.95 1.45,-1.45 2.35,-1.45 2.225,0 1.4,1.8 3.025,1.8 0.75,0 0.975,-0.675 0.975,-1.2 z m -2.6,8.45 c 0,1.975 -1.95,6.4 -4.25,6.4 -1.175,0 -1.95,-0.9 -1.95,-2.275 0,-3.45 2.35,-6.975 4.525,-6.975 0.85,0 1.675,0.675 1.675,2.85 z"
         style=""
         id="path4967" />
    </g>
    <g
       style="font-style:italic;font-variant:normal;font-weight:normal;font-stretch:normal;font-size:25px;line-height:125%;font-family:STIXGeneral;-inkscape-font-specification:'STIXGeneral, Italic';text-align:start;letter-spacing:0px;word-spacing:0px;writing-mode:lr-tb;text-anchor:start;fill:#000000;fill-opacity:1;stroke:none;stroke-width:1px;stroke-linecap:butt;stroke-linejoin:miter;stroke-opacity:1"
       id="text4913">
      <path
         d="m 587.72552,345.74666 0,0.4 c 1.575,0.125 1.925,0.3 1.925,1.025 0,0.375 -0.1,0.975 -0.275,1.6 l -3.025,10.9 c -0.425,1.55 -0.7,1.8 -2.075,2 l 0,0.4 6.8,0 c 4.05,0 6.875,-1.65 6.875,-5 0,-1.775 -1,-3.1 -3.15,-3.75 l 0,-0.025 c 1.075,-0.225 2,-0.45 2.775,-0.975 0.9,-0.6 1.6,-1.475 1.6,-2.825 0,-2.475 -1.725,-3.75 -5.2,-3.75 l -6.25,0 z m 2.95,7.25 1.575,-5.6 c 0.25,-0.9 0.5,-0.9 1.475,-0.9 2.025,0 2.925,0.85 2.925,2.7 0,2.475 -1.75,3.8 -5.025,3.8 l -0.95,0 z m -0.25,0.8 c 1.575,0 2.65,0.125 3.15,0.3 0.95,0.325 1.675,1.425 1.675,2.975 0,2.775 -1.95,4.25 -4.825,4.25 -1.05,0 -1.675,-0.35 -1.675,-1.05 0,-0.325 0.375,-1.6 0.875,-3.5 l 0.8,-2.975 z"
         style=""
         id="path4970" />
    </g>
  </g>
</svg>
