<?xml version="1.0" encoding="UTF-8" standalone="no"?>
<!-- Created with Inkscape (http://www.inkscape.org/) -->

<svg
   xmlns:dc="http://purl.org/dc/elements/1.1/"
   xmlns:cc="http://creativecommons.org/ns#"
   xmlns:rdf="http://www.w3.org/1999/02/22-rdf-syntax-ns#"
   xmlns:svg="http://www.w3.org/2000/svg"
   xmlns="http://www.w3.org/2000/svg"
   xmlns:sodipodi="http://sodipodi.sourceforge.net/DTD/sodipodi-0.dtd"
   xmlns:inkscape="http://www.inkscape.org/namespaces/inkscape"
   width="416.20999"
   height="304.51898"
   id="svg2"
   version="1.1"
   inkscape:version="0.91 r13725"
   sodipodi:docname="vomitous_mass.svg"
   inkscape:export-filename="C:\Users\shapie2\Google Drive\blog\Boundary points and interior\vomitous_mass.png"
   inkscape:export-xdpi="90"
   inkscape:export-ydpi="90">
  <defs
     id="defs4" />
  <sodipodi:namedview
     id="base"
     pagecolor="#ffffff"
     bordercolor="#666666"
     borderopacity="1.0"
     inkscape:pageopacity="0.0"
     inkscape:pageshadow="2"
     inkscape:zoom="1.16"
     inkscape:cx="112.97245"
     inkscape:cy="218.9129"
     inkscape:document-units="px"
     inkscape:current-layer="layer1"
     showgrid="false"
     inkscape:window-width="1440"
     inkscape:window-height="851"
     inkscape:window-x="0"
     inkscape:window-y="1"
     inkscape:window-maximized="1"
     fit-margin-top="5"
     fit-margin-left="5"
     fit-margin-right="5"
     fit-margin-bottom="5" />
  <metadata
     id="metadata7">
    <rdf:RDF>
      <cc:Work
         rdf:about="">
        <dc:format>image/svg+xml</dc:format>
        <dc:type
           rdf:resource="http://purl.org/dc/dcmitype/StillImage" />
        <dc:title></dc:title>
      </cc:Work>
    </rdf:RDF>
  </metadata>
  <g
     inkscape:label="Layer 1"
     inkscape:groupmode="layer"
     id="layer1"
     transform="translate(-102.40751,-369.84132)">
    <path
       style="fill:#f2f2f2;fill-opacity:1;fill-rule:nonzero;stroke:#000000;stroke-width:2;stroke-linecap:round;stroke-linejoin:bevel;stroke-miterlimit:4;stroke-dasharray:2, 4;stroke-dashoffset:0;stroke-opacity:1"
       d="m 201.5625,396.375 c -48.08689,2.85991 -90.14664,44.95292 -92.33483,92.9153 -5.6128,50.33546 17.9261,103.78305 61.17858,130.99095 33.47202,20.51768 74.67673,24.87216 112.88532,18.64781 29.7027,-2.52444 58.24284,8.51357 85.14593,19.72719 13.45641,4.46465 27.32276,12.44008 41.93339,8.74814 7.17905,-2.09971 8.14761,-10.76957 9.0444,-17.04798 1.78414,-22.82792 12.62461,-46.15478 32.74428,-58.27281 16.16258,-10.32546 35.82954,-11.08208 54.15293,-14.3961 4.44891,-1.07195 8.57584,-6.66218 4.9375,-10.75 -5.22675,-7.59312 -13.86343,-11.89058 -21.84414,-16.00408 -31.04653,-13.74103 -69.71514,-5.95239 -93.77455,17.76655 -20.75093,17.28321 -42.62386,35.43317 -69.60426,41.54451 -28.74033,5.45625 -58.69558,-14.12231 -67.83107,-41.40708 -2.76298,-8.65745 -5.93192,-17.7103 -13.22732,-23.65445 -13.70664,-12.68169 -33.35895,-17.94931 -44.44018,-33.6487 -14.71729,-18.54766 -18.90422,-44.92383 -10.02424,-66.96576 4.5507,-13.05107 12.6462,-24.44408 18.99576,-36.56849 1.67341,-5.21944 -1.43416,-12.01178 -7.9375,-11.625 z"
       id="path2985"
       inkscape:connector-curvature="0"
       sodipodi:nodetypes="ssssssssccccccccccs" />
    <g
       id="g5332"
       transform="translate(38,193)">
      <g
         transform="translate(-40.516666,-43.500446)"
         id="g5276">
        <circle
           style="fill:#f2f2f2;fill-opacity:1;fill-rule:nonzero;stroke:#000000;stroke-width:1.01030934;stroke-linecap:round;stroke-linejoin:bevel;stroke-miterlimit:4;stroke-dasharray:1.0103093, 2.02061859;stroke-dashoffset:0;stroke-opacity:1"
           id="path4455-4"
           transform="matrix(1.9795918,0,0,1.9795918,-408.42857,-477.1303)"
           cx="371"
           cy="403.36218"
           r="48" />
        <path
           style="fill:none;stroke:#000000;stroke-width:2.20000005;stroke-linecap:round;stroke-linejoin:bevel;stroke-miterlimit:4;stroke-dasharray:none;stroke-dashoffset:0;stroke-opacity:1"
           d="m 396.19496,257.31761 c 35.33499,38.79965 32.52632,98.89764 -6.27333,134.23263 -38.79965,35.33499 -98.89764,32.52632 -134.23263,-6.27333"
           id="path4455-4-8"
           inkscape:connector-curvature="0"
           sodipodi:nodetypes="csc" />
      </g>
      <path
         inkscape:connector-curvature="0"
         id="path4455-0-5"
         d="m 281.23549,229.87959 c 0,15.31533 -12.41553,27.73086 -27.73086,27.73086 -15.31533,0 -27.73086,-12.41553 -27.73086,-27.73086 0,-15.31533 12.41553,-27.73086 27.73086,-27.73086 15.31533,0 27.73086,12.41553 27.73086,27.73086 z"
         style="fill:#ffffff;stroke:#000000;stroke-width:2;stroke-linecap:round;stroke-linejoin:bevel;stroke-miterlimit:4;stroke-dasharray:none;stroke-dashoffset:0;stroke-opacity:1" />
      <path
         inkscape:connector-curvature="0"
         id="path4455-9-5"
         d="m 343.92228,323.926 c 0,15.31533 -12.41553,27.73086 -27.73086,27.73086 -15.31533,0 -27.73086,-12.41553 -27.73086,-27.73086 0,-15.31533 12.41553,-27.73086 27.73086,-27.73086 15.31533,0 27.73086,12.41553 27.73086,27.73086 z"
         style="fill:#ffffff;fill-opacity:1;fill-rule:nonzero;stroke:#000000;stroke-width:2;stroke-linecap:round;stroke-linejoin:bevel;stroke-miterlimit:4;stroke-dasharray:2, 4;stroke-dashoffset:0;stroke-opacity:1" />
    </g>
    <circle
       style="fill:#000000;fill-opacity:1;fill-rule:nonzero;stroke:#000000;stroke-width:2;stroke-linecap:round;stroke-linejoin:bevel;stroke-miterlimit:4;stroke-dasharray:none;stroke-dashoffset:0;stroke-opacity:1"
       id="path5339"
       transform="translate(197,181)"
       cx="85.5"
       cy="231.86218"
       r="2.5" />
    <circle
       style="fill:#000000;fill-opacity:1;fill-rule:nonzero;stroke:#000000;stroke-width:2;stroke-linecap:round;stroke-linejoin:bevel;stroke-miterlimit:4;stroke-dasharray:none;stroke-dashoffset:0;stroke-opacity:1"
       id="path5339-1"
       transform="translate(214.5,189.5)"
       cx="85.5"
       cy="231.86218"
       r="2.5" />
    <circle
       style="fill:#000000;fill-opacity:1;fill-rule:nonzero;stroke:#000000;stroke-width:2;stroke-linecap:round;stroke-linejoin:bevel;stroke-miterlimit:4;stroke-dasharray:none;stroke-dashoffset:0;stroke-opacity:1"
       id="path5339-7"
       transform="translate(214.87931,345.39655)"
       cx="85.5"
       cy="231.86218"
       r="2.5" />
    <circle
       style="fill:#000000;fill-opacity:1;fill-rule:nonzero;stroke:#000000;stroke-width:2;stroke-linecap:round;stroke-linejoin:bevel;stroke-miterlimit:4;stroke-dasharray:none;stroke-dashoffset:0;stroke-opacity:1"
       id="path5339-11"
       transform="translate(220.87931,360.39655)"
       cx="85.5"
       cy="231.86218"
       r="2.5" />
    <circle
       style="fill:#000000;fill-opacity:1;fill-rule:nonzero;stroke:#000000;stroke-width:2;stroke-linecap:round;stroke-linejoin:bevel;stroke-miterlimit:4;stroke-dasharray:none;stroke-dashoffset:0;stroke-opacity:1"
       id="path5339-5"
       transform="translate(228.87931,345.39655)"
       cx="85.5"
       cy="231.86218"
       r="2.5" />
    <circle
       style="fill:#000000;fill-opacity:1;fill-rule:nonzero;stroke:#000000;stroke-width:2;stroke-linecap:round;stroke-linejoin:bevel;stroke-miterlimit:4;stroke-dasharray:none;stroke-dashoffset:0;stroke-opacity:1"
       id="path5339-2"
       transform="translate(234.87931,365.39655)"
       cx="85.5"
       cy="231.86218"
       r="2.5" />
    <circle
       style="fill:#000000;fill-opacity:1;fill-rule:nonzero;stroke:#000000;stroke-width:2;stroke-linecap:round;stroke-linejoin:bevel;stroke-miterlimit:4;stroke-dasharray:none;stroke-dashoffset:0;stroke-opacity:1"
       id="path5339-76"
       transform="translate(241.87931,355.39655)"
       cx="85.5"
       cy="231.86218"
       r="2.5" />
    <path
       style="fill:none;stroke:#000000;stroke-width:2;stroke-linecap:round;stroke-linejoin:bevel;stroke-miterlimit:4;stroke-dashoffset:0;stroke-opacity:1"
       d="m 496.03454,536.58832 c 16.23533,-12.57998 -28.75866,-57.93005 10.02935,-54.25151 22.48418,-6.02538 -34.52423,-72.22359 -69.03666,-91.56665 -10.40603,-4.41747 -26.34437,-2.06368 -30.55768,9.77477 -1.94532,12.00067 4.48311,20.2942 21.75738,17.25919 65.32432,-1.43632 55.37242,60.94123 52.12377,100.46836 -1.12249,8.83626 3.90533,25.0406 15.68384,18.31584 z"
       id="path5444"
       inkscape:connector-curvature="0"
       sodipodi:nodetypes="ccccccc" />
  </g>
</svg>
